<svg width="97" height="22" viewBox="0 0 97 22" fill="none" xmlns="http://www.w3.org/2000/svg">
<rect x="0.5" y="0.5" width="96" height="21" rx="10.5" stroke="#D9569D"/>
<path d="M28.8164 15H27.2695L30.0859 7H31.875L34.6953 15H33.1484L31.0117 8.64062H30.9492L28.8164 15ZM28.8672 11.8633H33.0859V13.0273H28.8672V11.8633ZM38.0111 15.1172C37.4121 15.1172 36.8978 14.9857 36.4681 14.7227C36.041 14.4596 35.7116 14.0964 35.4798 13.6328C35.2507 13.1667 35.1361 12.6302 35.1361 12.0234C35.1361 11.4141 35.2533 10.8763 35.4877 10.4102C35.722 9.94141 36.0528 9.57682 36.4798 9.31641C36.9095 9.05339 37.4173 8.92188 38.0033 8.92188C38.4903 8.92188 38.9213 9.01172 39.2963 9.19141C39.6739 9.36849 39.9746 9.61979 40.1986 9.94531C40.4226 10.2682 40.5502 10.6458 40.5814 11.0781H39.2298C39.1752 10.7891 39.0449 10.5482 38.8392 10.3555C38.6361 10.1602 38.364 10.0625 38.0228 10.0625C37.7337 10.0625 37.4798 10.1406 37.2611 10.2969C37.0423 10.4505 36.8718 10.6719 36.7494 10.9609C36.6296 11.25 36.5697 11.5964 36.5697 12C36.5697 12.4089 36.6296 12.7604 36.7494 13.0547C36.8692 13.3464 37.0371 13.5716 37.2533 13.7305C37.472 13.8867 37.7285 13.9648 38.0228 13.9648C38.2311 13.9648 38.4173 13.9258 38.5814 13.8477C38.7481 13.7669 38.8874 13.651 38.9994 13.5C39.1114 13.349 39.1882 13.1654 39.2298 12.9492H40.5814C40.5476 13.3737 40.4226 13.75 40.2064 14.0781C39.9903 14.4036 39.696 14.6589 39.3236 14.8437C38.9512 15.026 38.5137 15.1172 38.0111 15.1172ZM44.2497 15.1172C43.6508 15.1172 43.1364 14.9857 42.7068 14.7227C42.2797 14.4596 41.9502 14.0964 41.7185 13.6328C41.4893 13.1667 41.3747 12.6302 41.3747 12.0234C41.3747 11.4141 41.4919 10.8763 41.7263 10.4102C41.9607 9.94141 42.2914 9.57682 42.7185 9.31641C43.1482 9.05339 43.656 8.92188 44.2419 8.92188C44.7289 8.92188 45.1599 9.01172 45.5349 9.19141C45.9125 9.36849 46.2133 9.61979 46.4372 9.94531C46.6612 10.2682 46.7888 10.6458 46.82 11.0781H45.4685C45.4138 10.7891 45.2836 10.5482 45.0779 10.3555C44.8747 10.1602 44.6026 10.0625 44.2614 10.0625C43.9724 10.0625 43.7185 10.1406 43.4997 10.2969C43.281 10.4505 43.1104 10.6719 42.988 10.9609C42.8682 11.25 42.8083 11.5964 42.8083 12C42.8083 12.4089 42.8682 12.7604 42.988 13.0547C43.1078 13.3464 43.2758 13.5716 43.4919 13.7305C43.7107 13.8867 43.9672 13.9648 44.2614 13.9648C44.4698 13.9648 44.656 13.9258 44.82 13.8477C44.9867 13.7669 45.126 13.651 45.238 13.5C45.35 13.349 45.4268 13.1654 45.4685 12.9492H46.82C46.7862 13.3737 46.6612 13.75 46.445 14.0781C46.2289 14.4036 45.9346 14.6589 45.5622 14.8437C45.1898 15.026 44.7523 15.1172 44.2497 15.1172ZM50.5274 15.1172C49.9259 15.1172 49.4063 14.9922 48.9688 14.7422C48.5339 14.4896 48.1993 14.1328 47.9649 13.6719C47.7305 13.2083 47.6134 12.6628 47.6134 12.0352C47.6134 11.418 47.7305 10.8763 47.9649 10.4102C48.2019 9.94141 48.5326 9.57682 48.9571 9.31641C49.3816 9.05339 49.8803 8.92188 50.4532 8.92188C50.823 8.92188 51.172 8.98177 51.5001 9.10156C51.8308 9.21875 52.1225 9.40104 52.3751 9.64844C52.6303 9.89583 52.8308 10.2109 52.9766 10.5937C53.1225 10.974 53.1954 11.4271 53.1954 11.9531V12.3867H48.2774V11.4336H51.8399C51.8373 11.1628 51.7787 10.9219 51.6641 10.7109C51.5496 10.4974 51.3894 10.3294 51.1837 10.207C50.9805 10.0846 50.7436 10.0234 50.4727 10.0234C50.1837 10.0234 49.9298 10.0937 49.711 10.2344C49.4923 10.3724 49.3217 10.5547 49.1993 10.7812C49.0795 11.0052 49.0183 11.2513 49.0157 11.5195V12.3516C49.0157 12.7005 49.0795 13 49.2071 13.25C49.3347 13.4974 49.5131 13.6875 49.7423 13.8203C49.9714 13.9505 50.2397 14.0156 50.547 14.0156C50.7527 14.0156 50.9389 13.987 51.1055 13.9297C51.2722 13.8698 51.4167 13.7826 51.5391 13.668C51.6615 13.5534 51.754 13.4115 51.8165 13.2422L53.1368 13.3906C53.0535 13.7396 52.8946 14.0443 52.6602 14.3047C52.4285 14.5625 52.1316 14.763 51.7696 14.9062C51.4076 15.0469 50.9936 15.1172 50.5274 15.1172ZM59.0239 10.5859L57.7348 10.7266C57.6983 10.5964 57.6345 10.474 57.5434 10.3594C57.4549 10.2448 57.3351 10.1523 57.184 10.082C57.033 10.0117 56.8481 9.97656 56.6293 9.97656C56.3351 9.97656 56.0877 10.0404 55.8871 10.168C55.6892 10.2956 55.5916 10.4609 55.5942 10.6641C55.5916 10.8385 55.6554 10.9805 55.7856 11.0898C55.9184 11.1992 56.1371 11.2891 56.4418 11.3594L57.4653 11.5781C58.033 11.7005 58.4549 11.8945 58.7309 12.1602C59.0095 12.4258 59.1502 12.7734 59.1528 13.2031C59.1502 13.5807 59.0395 13.9141 58.8207 14.2031C58.6046 14.4896 58.3038 14.7135 57.9184 14.875C57.533 15.0365 57.0903 15.1172 56.5903 15.1172C55.8559 15.1172 55.2648 14.9635 54.8168 14.6562C54.3689 14.3464 54.102 13.9154 54.0161 13.3633L55.395 13.2305C55.4575 13.5013 55.5903 13.7057 55.7934 13.8437C55.9965 13.9818 56.2608 14.0508 56.5864 14.0508C56.9223 14.0508 57.1918 13.9818 57.395 13.8437C57.6007 13.7057 57.7036 13.5352 57.7036 13.332C57.7036 13.1602 57.6371 13.0182 57.5043 12.9062C57.3741 12.7943 57.171 12.7083 56.895 12.6484L55.8715 12.4336C55.296 12.3138 54.8702 12.112 54.5942 11.8281C54.3181 11.5417 54.1814 11.1797 54.184 10.7422C54.1814 10.3724 54.2817 10.0521 54.4848 9.78125C54.6905 9.50781 54.9757 9.29687 55.3403 9.14844C55.7075 8.9974 56.1306 8.92188 56.6098 8.92188C57.3129 8.92188 57.8663 9.07161 58.27 9.37109C58.6762 9.67057 58.9275 10.0755 59.0239 10.5859ZM60.2088 15V9H61.6229V15H60.2088ZM60.9197 8.14844C60.6958 8.14844 60.5031 8.07422 60.3416 7.92578C60.1801 7.77474 60.0994 7.59375 60.0994 7.38281C60.0994 7.16927 60.1801 6.98828 60.3416 6.83984C60.5031 6.6888 60.6958 6.61328 60.9197 6.61328C61.1463 6.61328 61.339 6.6888 61.4979 6.83984C61.6593 6.98828 61.74 7.16927 61.74 7.38281C61.74 7.59375 61.6593 7.77474 61.4979 7.92578C61.339 8.07422 61.1463 8.14844 60.9197 8.14844ZM63.0295 15V7H64.4435V9.99219H64.5021C64.575 9.84635 64.6779 9.69141 64.8107 9.52734C64.9435 9.36068 65.1232 9.21875 65.3498 9.10156C65.5763 8.98177 65.8654 8.92188 66.217 8.92188C66.6805 8.92188 67.0985 9.04036 67.4709 9.27734C67.8459 9.51172 68.1427 9.85937 68.3615 10.3203C68.5828 10.7786 68.6935 11.3411 68.6935 12.0078C68.6935 12.6667 68.5854 13.2266 68.3693 13.6875C68.1532 14.1484 67.8589 14.5 67.4865 14.7422C67.1141 14.9844 66.6922 15.1055 66.2209 15.1055C65.8771 15.1055 65.592 15.0482 65.3654 14.9336C65.1388 14.819 64.9565 14.681 64.8185 14.5195C64.6831 14.3555 64.5776 14.2005 64.5021 14.0547H64.4201V15H63.0295ZM64.4162 12C64.4162 12.388 64.4709 12.7279 64.5802 13.0195C64.6922 13.3112 64.8524 13.5391 65.0607 13.7031C65.2716 13.8646 65.5268 13.9453 65.8263 13.9453C66.1388 13.9453 66.4005 13.862 66.6115 13.6953C66.8224 13.526 66.9813 13.2956 67.088 13.0039C67.1974 12.7096 67.2521 12.375 67.2521 12C67.2521 11.6276 67.1987 11.2969 67.092 11.0078C66.9852 10.7187 66.8263 10.4922 66.6154 10.3281C66.4045 10.1641 66.1414 10.082 65.8263 10.082C65.5242 10.082 65.2677 10.1615 65.0568 10.3203C64.8459 10.4792 64.6857 10.7018 64.5763 10.9883C64.4696 11.2747 64.4162 11.612 64.4162 12ZM69.7857 15V9H71.1997V15H69.7857ZM70.4966 8.14844C70.2726 8.14844 70.0799 8.07422 69.9185 7.92578C69.757 7.77474 69.6763 7.59375 69.6763 7.38281C69.6763 7.16927 69.757 6.98828 69.9185 6.83984C70.0799 6.6888 70.2726 6.61328 70.4966 6.61328C70.7232 6.61328 70.9159 6.6888 71.0747 6.83984C71.2362 6.98828 71.3169 7.16927 71.3169 7.38281C71.3169 7.59375 71.2362 7.77474 71.0747 7.92578C70.9159 8.07422 70.7232 8.14844 70.4966 8.14844ZM73.9579 7V15H72.5438V7H73.9579ZM75.302 15V9H76.7161V15H75.302ZM76.0129 8.14844C75.789 8.14844 75.5963 8.07422 75.4348 7.92578C75.2733 7.77474 75.1926 7.59375 75.1926 7.38281C75.1926 7.16927 75.2733 6.98828 75.4348 6.83984C75.5963 6.6888 75.789 6.61328 76.0129 6.61328C76.2395 6.61328 76.4322 6.6888 76.5911 6.83984C76.7525 6.98828 76.8332 7.16927 76.8332 7.38281C76.8332 7.59375 76.7525 7.77474 76.5911 7.92578C76.4322 8.07422 76.2395 8.14844 76.0129 8.14844ZM81.0563 9V10.0937H77.607V9H81.0563ZM78.4586 7.5625H79.8727V13.1953C79.8727 13.3854 79.9013 13.5313 79.9586 13.6328C80.0185 13.7318 80.0966 13.7995 80.193 13.8359C80.2893 13.8724 80.3961 13.8906 80.5133 13.8906C80.6018 13.8906 80.6826 13.8841 80.7555 13.8711C80.831 13.8581 80.8883 13.8464 80.9273 13.8359L81.1656 14.9414C81.0901 14.9674 80.982 14.9961 80.8414 15.0273C80.7034 15.0586 80.5341 15.0768 80.3336 15.082C79.9794 15.0924 79.6604 15.0391 79.3766 14.9219C79.0927 14.8021 78.8674 14.6172 78.7008 14.3672C78.5367 14.1172 78.456 13.8047 78.4586 13.4297V7.5625ZM83.0078 17.25C82.8151 17.25 82.6367 17.2344 82.4726 17.2031C82.3112 17.1745 82.1823 17.1406 82.0859 17.1016L82.414 16C82.6198 16.0599 82.8033 16.0885 82.9648 16.0859C83.1263 16.0833 83.2682 16.0326 83.3906 15.9336C83.5156 15.8372 83.6211 15.6758 83.707 15.4492L83.8281 15.125L81.6523 9H83.1523L84.5351 13.5312H84.5976L85.9843 9H87.4882L85.0859 15.7266C84.9739 16.0443 84.8255 16.3164 84.6406 16.543C84.4557 16.7721 84.2291 16.9466 83.9609 17.0664C83.6953 17.1888 83.3776 17.25 83.0078 17.25Z" fill="#D9569D"/>
<path d="M10.0835 8.33317L9.72994 7.97962L9.37639 8.33317L9.72994 8.68672L10.0835 8.33317ZM20.3752 8.83317C20.6513 8.83317 20.8752 8.60931 20.8752 8.33317C20.8752 8.05703 20.6513 7.83317 20.3752 7.83317L20.3752 8.83317ZM11.8966 5.81295L9.72994 7.97962L10.437 8.68672L12.6037 6.52006L11.8966 5.81295ZM9.72994 8.68672L11.8966 10.8534L12.6037 10.1463L10.437 7.97962L9.72994 8.68672ZM10.0835 8.83317L20.3752 8.83317L20.3752 7.83317L10.0835 7.83317L10.0835 8.83317Z" fill="#D9569D"/>
<path d="M20.9165 12.6667L21.2701 12.3131L21.6236 12.6667L21.2701 13.0202L20.9165 12.6667ZM16.0415 13.1667C15.7654 13.1667 15.5415 12.9428 15.5415 12.6667C15.5415 12.3905 15.7654 12.1667 16.0415 12.1667L16.0415 13.1667ZM19.1034 10.1464L21.2701 12.3131L20.563 13.0202L18.3963 10.8536L19.1034 10.1464ZM21.2701 13.0202L19.1034 15.1869L18.3963 14.4798L20.563 12.3131L21.2701 13.0202ZM20.9165 13.1667L16.0415 13.1667L16.0415 12.1667L20.9165 12.1667L20.9165 13.1667Z" fill="#D9569D"/>
</svg>
