<svg width="455" height="137" viewBox="0 0 455 137" fill="none" xmlns="http://www.w3.org/2000/svg">
<g filter="url(#filter0_dd_35_1120)">
<rect x="3" y="2" width="449" height="131" rx="12" fill="#9747FF"/>
<path d="M31.5384 41L27.3764 26.4545H30.7358L33.1435 36.5611H33.2642L35.9205 26.4545H38.7969L41.446 36.5824H41.5739L43.9815 26.4545H47.3409L43.179 41H40.1818L37.4119 31.4901H37.2983L34.5355 41H31.5384ZM52.7298 41.2131C51.6076 41.2131 50.6417 40.9858 49.832 40.5312C49.0271 40.072 48.4068 39.4233 47.9712 38.5852C47.5356 37.7424 47.3178 36.7457 47.3178 35.5952C47.3178 34.473 47.5356 33.4882 47.9712 32.6406C48.4068 31.7931 49.02 31.1326 49.8107 30.6591C50.6062 30.1856 51.5389 29.9489 52.609 29.9489C53.3287 29.9489 53.9987 30.0649 54.619 30.2969C55.244 30.5241 55.7885 30.8674 56.2525 31.3267C56.7212 31.786 57.0858 32.3636 57.3462 33.0597C57.6067 33.7509 57.7369 34.5606 57.7369 35.4886V36.3196H48.5252V34.4446H54.8888C54.8888 34.009 54.7942 33.6231 54.6048 33.2869C54.4154 32.9508 54.1526 32.688 53.8164 32.4986C53.485 32.3045 53.0991 32.2074 52.6587 32.2074C52.1995 32.2074 51.7923 32.3139 51.4371 32.527C51.0868 32.7353 50.8121 33.017 50.6133 33.3722C50.4144 33.7225 50.3126 34.1132 50.3079 34.544V36.3267C50.3079 36.8665 50.4073 37.3329 50.6062 37.7259C50.8098 38.1188 51.0962 38.4219 51.4656 38.6349C51.8349 38.848 52.2728 38.9545 52.7795 38.9545C53.1156 38.9545 53.4234 38.9072 53.7028 38.8125C53.9821 38.7178 54.2212 38.5758 54.4201 38.3864C54.619 38.197 54.7705 37.965 54.8746 37.6903L57.6729 37.875C57.5309 38.5473 57.2397 39.1345 56.7994 39.6364C56.3638 40.1335 55.8003 40.5218 55.109 40.8011C54.4225 41.0758 53.6294 41.2131 52.7298 41.2131ZM62.7369 26.4545V41H59.7113V26.4545H62.7369ZM68.1861 26.4545V41H65.1605V26.4545H68.1861ZM79.6864 33.2017L76.9165 33.3722C76.8692 33.1354 76.7674 32.9223 76.6112 32.733C76.4549 32.5388 76.2489 32.3849 75.9933 32.2713C75.7423 32.1529 75.4416 32.0938 75.0913 32.0938C74.6225 32.0938 74.2272 32.1932 73.9052 32.392C73.5832 32.5862 73.4222 32.8466 73.4222 33.1733C73.4222 33.4337 73.5264 33.6539 73.7347 33.8338C73.9431 34.0137 74.3005 34.1581 74.8072 34.267L76.7816 34.6648C77.8422 34.8826 78.6329 35.233 79.1538 35.7159C79.6746 36.1989 79.935 36.8333 79.935 37.6193C79.935 38.3343 79.7243 38.9616 79.3029 39.5014C78.8862 40.0412 78.3133 40.4626 77.5842 40.7656C76.8597 41.0639 76.024 41.2131 75.0771 41.2131C73.6329 41.2131 72.4824 40.9124 71.6254 40.3111C70.7731 39.705 70.2736 38.8812 70.1268 37.8395L73.1026 37.6832C73.1926 38.1236 73.4104 38.4598 73.756 38.6918C74.1017 38.919 74.5444 39.0327 75.0842 39.0327C75.6145 39.0327 76.0406 38.9309 76.3626 38.7273C76.6893 38.5189 76.855 38.2514 76.8597 37.9247C76.855 37.6501 76.739 37.4252 76.5117 37.25C76.2844 37.0701 75.9341 36.9328 75.4606 36.8381L73.5714 36.4616C72.506 36.2486 71.7129 35.8793 71.1921 35.3537C70.676 34.8281 70.418 34.1581 70.418 33.3438C70.418 32.643 70.6074 32.0393 70.9862 31.5327C71.3697 31.026 71.9071 30.6354 72.5984 30.3608C73.2944 30.0862 74.1088 29.9489 75.0415 29.9489C76.4194 29.9489 77.5037 30.2401 78.2944 30.8224C79.0898 31.4048 79.5539 32.1979 79.6864 33.2017ZM86.5259 41V26.4545H96.1566V28.9901H89.6012V32.456H95.5174V34.9915H89.6012V41H86.5259ZM101.142 41.206C100.446 41.206 99.8261 41.0852 99.2816 40.8438C98.7371 40.5975 98.3062 40.2353 97.989 39.7571C97.6765 39.2741 97.5202 38.6728 97.5202 37.9531C97.5202 37.3471 97.6315 36.8381 97.854 36.4261C98.0766 36.0142 98.3796 35.6828 98.7631 35.4318C99.1467 35.1809 99.5823 34.9915 100.07 34.8636C100.562 34.7358 101.078 34.6458 101.618 34.5938C102.253 34.5275 102.764 34.4659 103.152 34.4091C103.541 34.3475 103.822 34.2576 103.998 34.1392C104.173 34.0208 104.26 33.8456 104.26 33.6136V33.571C104.26 33.1212 104.118 32.7732 103.834 32.527C103.555 32.2808 103.157 32.1577 102.641 32.1577C102.096 32.1577 101.663 32.2784 101.341 32.5199C101.019 32.7566 100.806 33.0549 100.702 33.4148L97.9038 33.1875C98.0458 32.5246 98.3252 31.9517 98.7418 31.4688C99.1585 30.9811 99.6959 30.607 100.354 30.3466C101.017 30.0814 101.784 29.9489 102.655 29.9489C103.261 29.9489 103.841 30.0199 104.395 30.1619C104.954 30.304 105.449 30.5241 105.88 30.8224C106.315 31.1207 106.658 31.5043 106.909 31.973C107.16 32.437 107.286 32.9934 107.286 33.642V41H104.417V39.4872H104.331C104.156 39.8281 103.922 40.1288 103.628 40.3892C103.335 40.6449 102.982 40.8461 102.57 40.9929C102.158 41.1349 101.682 41.206 101.142 41.206ZM102.009 39.1179C102.454 39.1179 102.847 39.0303 103.188 38.8551C103.529 38.6752 103.796 38.4337 103.99 38.1307C104.185 37.8277 104.282 37.4844 104.282 37.1009V35.9432C104.187 36.0047 104.057 36.0616 103.891 36.1136C103.73 36.161 103.548 36.206 103.344 36.2486C103.141 36.2865 102.937 36.322 102.733 36.3551C102.53 36.3835 102.345 36.4096 102.179 36.4332C101.824 36.4853 101.514 36.5682 101.249 36.6818C100.984 36.7955 100.778 36.9493 100.631 37.1435C100.484 37.3329 100.411 37.5696 100.411 37.8537C100.411 38.2656 100.56 38.5805 100.858 38.7983C101.161 39.0114 101.545 39.1179 102.009 39.1179ZM109.633 41V30.0909H112.566V31.9943H112.68C112.879 31.3172 113.213 30.8059 113.681 30.4602C114.15 30.1098 114.69 29.9347 115.301 29.9347C115.452 29.9347 115.616 29.9441 115.791 29.9631C115.966 29.982 116.12 30.008 116.252 30.0412V32.7259C116.11 32.6832 115.914 32.6454 115.663 32.6122C115.412 32.5791 115.182 32.5625 114.974 32.5625C114.529 32.5625 114.131 32.6596 113.781 32.8537C113.435 33.0431 113.161 33.3082 112.957 33.6491C112.758 33.9901 112.659 34.383 112.659 34.8281V41H109.633ZM122.224 45.3182C121.244 45.3182 120.403 45.1832 119.702 44.9134C119.006 44.6482 118.452 44.286 118.04 43.8267C117.629 43.3674 117.361 42.8513 117.238 42.2784L120.036 41.902C120.121 42.1198 120.256 42.3234 120.441 42.5128C120.626 42.7022 120.87 42.8537 121.173 42.9673C121.48 43.0857 121.854 43.1449 122.295 43.1449C122.953 43.1449 123.495 42.9839 123.921 42.6619C124.352 42.3447 124.567 41.812 124.567 41.0639V39.0682H124.44C124.307 39.3712 124.108 39.6577 123.843 39.9276C123.578 40.1974 123.237 40.4176 122.82 40.5881C122.404 40.7585 121.906 40.8438 121.329 40.8438C120.51 40.8438 119.764 40.6544 119.092 40.2756C118.424 39.892 117.891 39.3073 117.494 38.5213C117.101 37.7306 116.904 36.7315 116.904 35.5241C116.904 34.2884 117.105 33.2562 117.508 32.4276C117.91 31.599 118.445 30.9787 119.113 30.5668C119.785 30.1548 120.522 29.9489 121.322 29.9489C121.933 29.9489 122.444 30.053 122.856 30.2614C123.268 30.465 123.599 30.7206 123.85 31.0284C124.106 31.3314 124.302 31.6297 124.44 31.9233H124.553V30.0909H127.558V41.1065C127.558 42.0346 127.33 42.8111 126.876 43.4361C126.421 44.0611 125.791 44.5298 124.987 44.8423C124.186 45.1596 123.265 45.3182 122.224 45.3182ZM122.288 38.571C122.775 38.571 123.187 38.4503 123.523 38.2088C123.864 37.9626 124.125 37.6122 124.305 37.1577C124.489 36.6984 124.582 36.1491 124.582 35.5099C124.582 34.8707 124.492 34.3168 124.312 33.848C124.132 33.3745 123.871 33.0076 123.531 32.7472C123.19 32.4867 122.775 32.3565 122.288 32.3565C121.79 32.3565 121.371 32.4915 121.031 32.7614C120.69 33.0265 120.432 33.3958 120.256 33.8693C120.081 34.3428 119.994 34.8897 119.994 35.5099C119.994 36.1397 120.081 36.6842 120.256 37.1435C120.436 37.598 120.694 37.9508 121.031 38.2017C121.371 38.4479 121.79 38.571 122.288 38.571ZM134.894 41.2131C133.791 41.2131 132.837 40.9787 132.032 40.5099C131.232 40.0365 130.614 39.3783 130.178 38.5355C129.743 37.688 129.525 36.7055 129.525 35.5881C129.525 34.4612 129.743 33.4763 130.178 32.6335C130.614 31.786 131.232 31.1278 132.032 30.6591C132.837 30.1856 133.791 29.9489 134.894 29.9489C135.997 29.9489 136.949 30.1856 137.749 30.6591C138.554 31.1278 139.174 31.786 139.61 32.6335C140.046 33.4763 140.263 34.4612 140.263 35.5881C140.263 36.7055 140.046 37.688 139.61 38.5355C139.174 39.3783 138.554 40.0365 137.749 40.5099C136.949 40.9787 135.997 41.2131 134.894 41.2131ZM134.908 38.8693C135.41 38.8693 135.829 38.7273 136.165 38.4432C136.502 38.1544 136.755 37.7614 136.925 37.2642C137.101 36.767 137.188 36.2012 137.188 35.5668C137.188 34.9323 137.101 34.3665 136.925 33.8693C136.755 33.3722 136.502 32.9792 136.165 32.6903C135.829 32.4015 135.41 32.2571 134.908 32.2571C134.402 32.2571 133.976 32.4015 133.63 32.6903C133.289 32.9792 133.031 33.3722 132.856 33.8693C132.685 34.3665 132.6 34.9323 132.6 35.5668C132.6 36.2012 132.685 36.767 132.856 37.2642C133.031 37.7614 133.289 38.1544 133.63 38.4432C133.976 38.7273 134.402 38.8693 134.908 38.8693Z" fill="white"/>
<path d="M35.7528 67.5H34.608C34.5402 67.1707 34.4218 66.8814 34.2525 66.6321C34.0863 66.3828 33.8832 66.1735 33.6431 66.0043C33.4061 65.8319 33.143 65.7027 32.8537 65.6165C32.5644 65.5303 32.2628 65.4872 31.9489 65.4872C31.3764 65.4872 30.8578 65.6319 30.3931 65.9212C29.9315 66.2105 29.5637 66.6367 29.2898 67.1999C29.0189 67.7631 28.8835 68.4541 28.8835 69.2727C28.8835 70.0914 29.0189 70.7823 29.2898 71.3455C29.5637 71.9087 29.9315 72.335 30.3931 72.6243C30.8578 72.9136 31.3764 73.0582 31.9489 73.0582C32.2628 73.0582 32.5644 73.0152 32.8537 72.929C33.143 72.8428 33.4061 72.7151 33.6431 72.5458C33.8832 72.3735 34.0863 72.1626 34.2525 71.9134C34.4218 71.661 34.5402 71.3717 34.608 71.0455H35.7528C35.6667 71.5286 35.5097 71.9611 35.282 72.3427C35.0542 72.7243 34.7711 73.049 34.4325 73.3168C34.094 73.5814 33.7139 73.783 33.2923 73.9215C32.8737 74.06 32.4259 74.1293 31.9489 74.1293C31.1425 74.1293 30.4254 73.9323 29.7976 73.5384C29.1697 73.1444 28.6758 72.5843 28.3157 71.858C27.9556 71.1316 27.7756 70.2699 27.7756 69.2727C27.7756 68.2756 27.9556 67.4138 28.3157 66.6875C28.6758 65.9612 29.1697 65.401 29.7976 65.0071C30.4254 64.6132 31.1425 64.4162 31.9489 64.4162C32.4259 64.4162 32.8737 64.4854 33.2923 64.6239C33.7139 64.7624 34.094 64.9656 34.4325 65.2333C34.7711 65.498 35.0542 65.8211 35.282 66.2028C35.5097 66.5813 35.6667 67.0137 35.7528 67.5ZM38.5447 69.7344V74H37.4552V64.5455H38.5447V68.017H38.637C38.8032 67.6508 39.0525 67.36 39.3849 67.1445C39.7203 66.926 40.1666 66.8168 40.7236 66.8168C41.2068 66.8168 41.63 66.9137 41.9932 67.1076C42.3563 67.2984 42.6379 67.5923 42.838 67.9893C43.0411 68.3833 43.1427 68.8849 43.1427 69.4943V74H42.0532V69.5682C42.0532 69.005 41.907 68.5695 41.6146 68.2617C41.3253 67.9509 40.9237 67.7955 40.4097 67.7955C40.0527 67.7955 39.7326 67.8709 39.4495 68.0217C39.1694 68.1725 38.9478 68.3925 38.7847 68.6818C38.6247 68.9711 38.5447 69.322 38.5447 69.7344ZM47.2225 74.1662C46.7731 74.1662 46.3654 74.0816 45.9991 73.9123C45.6329 73.7399 45.342 73.4922 45.1266 73.169C44.9112 72.8428 44.8034 72.4489 44.8034 71.9872C44.8034 71.581 44.8835 71.2517 45.0435 70.9993C45.2035 70.7438 45.4174 70.5438 45.6852 70.3991C45.9529 70.2545 46.2484 70.1468 46.5716 70.076C46.8978 70.0021 47.2256 69.9437 47.5549 69.9006C47.9857 69.8452 48.335 69.8036 48.6028 69.7759C48.8736 69.7451 49.0706 69.6944 49.1937 69.6236C49.3199 69.5528 49.383 69.4297 49.383 69.2543V69.2173C49.383 68.7618 49.2583 68.4079 49.0091 68.1555C48.7628 67.9032 48.3889 67.777 47.8873 67.777C47.3671 67.777 46.9593 67.8909 46.6639 68.1186C46.3684 68.3464 46.1607 68.5895 46.0407 68.848L45.0066 68.4787C45.1912 68.0478 45.4374 67.7124 45.7452 67.4723C46.056 67.2292 46.3946 67.0599 46.7608 66.9645C47.1301 66.866 47.4933 66.8168 47.8503 66.8168C48.0781 66.8168 48.3397 66.8445 48.6351 66.8999C48.9337 66.9522 49.2214 67.0614 49.4984 67.2276C49.7785 67.3938 50.0108 67.6446 50.1955 67.9801C50.3801 68.3156 50.4725 68.7649 50.4725 69.3281V74H49.383V73.0398H49.3276C49.2537 73.1937 49.1306 73.3583 48.9583 73.5337C48.7859 73.7092 48.5566 73.8584 48.2704 73.9815C47.9842 74.1046 47.6349 74.1662 47.2225 74.1662ZM47.3887 73.1875C47.8195 73.1875 48.1827 73.1029 48.4782 72.9336C48.7767 72.7643 49.0014 72.5458 49.1522 72.2781C49.306 72.0103 49.383 71.7287 49.383 71.4332V70.4361C49.3368 70.4915 49.2353 70.5423 49.0783 70.5884C48.9244 70.6315 48.7459 70.67 48.5428 70.7038C48.3427 70.7346 48.1473 70.7623 47.9565 70.7869C47.7688 70.8085 47.6164 70.8269 47.4995 70.8423C47.2163 70.8793 46.9516 70.9393 46.7054 71.0224C46.4623 71.1024 46.2653 71.224 46.1145 71.3871C45.9668 71.5471 45.8929 71.7656 45.8929 72.0426C45.8929 72.4212 46.033 72.7074 46.313 72.9013C46.5962 73.0921 46.9547 73.1875 47.3887 73.1875ZM57.4838 68.4972L56.5051 68.7741C56.4435 68.611 56.3527 68.4525 56.2327 68.2987C56.1157 68.1417 55.9557 68.0124 55.7526 67.9109C55.5494 67.8093 55.2894 67.7585 54.9724 67.7585C54.5384 67.7585 54.1768 67.8585 53.8875 68.0586C53.6013 68.2556 53.4582 68.5064 53.4582 68.8111C53.4582 69.0819 53.5567 69.2958 53.7536 69.4528C53.9506 69.6097 54.2584 69.7405 54.6769 69.8452L55.7295 70.1037C56.3635 70.2576 56.8359 70.493 57.1468 70.81C57.4576 71.1239 57.613 71.5286 57.613 72.0241C57.613 72.4304 57.4961 72.7936 57.2622 73.1136C57.0313 73.4337 56.7082 73.6861 56.2927 73.8707C55.8772 74.0554 55.394 74.1477 54.8431 74.1477C54.1199 74.1477 53.5213 73.9908 53.0473 73.6768C52.5734 73.3629 52.2733 72.9044 52.1471 72.3011L53.1812 72.0426C53.2797 72.4242 53.4659 72.7105 53.7398 72.9013C54.0168 73.0921 54.3784 73.1875 54.8247 73.1875C55.3325 73.1875 55.7356 73.0798 56.0342 72.8643C56.3358 72.6458 56.4866 72.3842 56.4866 72.0795C56.4866 71.8333 56.4004 71.6271 56.2281 71.4609C56.0557 71.2917 55.791 71.1655 55.434 71.0824L54.2522 70.8054C53.6028 70.6515 53.1258 70.413 52.8211 70.0898C52.5195 69.7636 52.3687 69.3558 52.3687 68.8665C52.3687 68.4664 52.481 68.1125 52.7057 67.8047C52.9334 67.4969 53.2427 67.2553 53.6336 67.0799C54.0276 66.9045 54.4738 66.8168 54.9724 66.8168C55.6741 66.8168 56.225 66.9706 56.6251 67.2784C57.0283 67.5862 57.3145 67.9924 57.4838 68.4972ZM62.226 74.1477C61.5428 74.1477 60.9534 73.9969 60.4579 73.6953C59.9655 73.3906 59.5854 72.9659 59.3176 72.4212C59.053 71.8733 58.9206 71.2363 58.9206 70.5099C58.9206 69.7836 59.053 69.1435 59.3176 68.5895C59.5854 68.0324 59.9578 67.5985 60.4348 67.2876C60.915 66.9737 61.4751 66.8168 62.1152 66.8168C62.4846 66.8168 62.8493 66.8783 63.2093 67.0014C63.5694 67.1245 63.8972 67.3246 64.1926 67.6016C64.4881 67.8755 64.7235 68.2386 64.899 68.6911C65.0744 69.1435 65.1621 69.7005 65.1621 70.3622V70.8239H59.6962V69.8821H64.0542C64.0542 69.482 63.9741 69.125 63.8141 68.8111C63.6571 68.4972 63.4325 68.2494 63.1401 68.0678C62.8508 67.8862 62.5092 67.7955 62.1152 67.7955C61.6813 67.7955 61.3058 67.9032 60.9888 68.1186C60.6749 68.331 60.4333 68.608 60.264 68.9496C60.0948 69.2912 60.0101 69.6574 60.0101 70.0483V70.6761C60.0101 71.2116 60.1025 71.6656 60.2871 72.038C60.4748 72.4073 60.7349 72.6889 61.0673 72.8828C61.3997 73.0736 61.7859 73.169 62.226 73.169C62.5123 73.169 62.7708 73.129 63.0016 73.049C63.2355 72.9659 63.4371 72.8428 63.6064 72.6797C63.7756 72.5135 63.9064 72.3073 63.9988 72.0611L65.0513 72.3565C64.9405 72.7135 64.7543 73.0275 64.4927 73.2983C64.2311 73.5661 63.908 73.7753 63.5233 73.9261C63.1386 74.0739 62.7061 74.1477 62.226 74.1477ZM77.0865 67.5C76.9849 67.1892 76.851 66.9106 76.6848 66.6644C76.5217 66.4151 76.3263 66.2028 76.0985 66.0273C75.8739 65.8519 75.6184 65.718 75.3322 65.6257C75.046 65.5334 74.7321 65.4872 74.3904 65.4872C73.8303 65.4872 73.321 65.6319 72.8624 65.9212C72.4038 66.2105 72.0391 66.6367 71.7683 67.1999C71.4975 67.7631 71.362 68.4541 71.362 69.2727C71.362 70.0914 71.499 70.7823 71.7729 71.3455C72.0468 71.9087 72.4177 72.335 72.8855 72.6243C73.3533 72.9136 73.8796 73.0582 74.4643 73.0582C75.006 73.0582 75.483 72.9428 75.8954 72.712C76.3109 72.4781 76.6341 72.1488 76.8649 71.7241C77.0988 71.2963 77.2157 70.7931 77.2157 70.2145L77.5666 70.2884H74.7228V69.2727H78.3237V70.2884C78.3237 71.067 78.1575 71.7441 77.8251 72.3196C77.4958 72.8951 77.0403 73.3414 76.4586 73.6584C75.88 73.9723 75.2153 74.1293 74.4643 74.1293C73.6272 74.1293 72.8916 73.9323 72.2576 73.5384C71.6267 73.1444 71.1343 72.5843 70.7804 71.858C70.4295 71.1316 70.2541 70.2699 70.2541 69.2727C70.2541 68.5249 70.3541 67.8524 70.5542 67.2553C70.7573 66.6552 71.0435 66.1443 71.4128 65.7227C71.7821 65.301 72.2192 64.9779 72.7239 64.7532C73.2286 64.5285 73.7842 64.4162 74.3904 64.4162C74.889 64.4162 75.3538 64.4916 75.7846 64.6424C76.2186 64.7901 76.6048 65.0009 76.9434 65.2749C77.285 65.5457 77.5697 65.8704 77.7974 66.2489C78.0252 66.6244 78.1821 67.0414 78.2683 67.5H77.0865ZM80.1368 74V66.9091H81.1894V67.9801H81.2632C81.3925 67.6293 81.6264 67.3446 81.9649 67.1261C82.3035 66.9076 82.6851 66.7983 83.1098 66.7983C83.1898 66.7983 83.2899 66.7998 83.4099 66.8029C83.5299 66.806 83.6207 66.8106 83.6823 66.8168V67.9247C83.6453 67.9155 83.5607 67.9016 83.4284 67.8832C83.2991 67.8616 83.1621 67.8509 83.0175 67.8509C82.6728 67.8509 82.365 67.9232 82.0942 68.0678C81.8264 68.2094 81.6141 68.4064 81.4571 68.6587C81.3032 68.908 81.2263 69.1927 81.2263 69.5128V74H80.1368ZM87.6386 74.1477C86.9984 74.1477 86.4368 73.9954 85.9536 73.6907C85.4735 73.386 85.098 72.9598 84.8271 72.4119C84.5594 71.8641 84.4255 71.224 84.4255 70.4915C84.4255 69.7528 84.5594 69.1081 84.8271 68.5572C85.098 68.0063 85.4735 67.5785 85.9536 67.2738C86.4368 66.9691 86.9984 66.8168 87.6386 66.8168C88.2787 66.8168 88.8389 66.9691 89.319 67.2738C89.8022 67.5785 90.1776 68.0063 90.4454 68.5572C90.7162 69.1081 90.8517 69.7528 90.8517 70.4915C90.8517 71.224 90.7162 71.8641 90.4454 72.4119C90.1776 72.9598 89.8022 73.386 89.319 73.6907C88.8389 73.9954 88.2787 74.1477 87.6386 74.1477ZM87.6386 73.169C88.1249 73.169 88.5249 73.0444 88.8389 72.7951C89.1528 72.5458 89.3852 72.218 89.536 71.8118C89.6868 71.4055 89.7622 70.9654 89.7622 70.4915C89.7622 70.0175 89.6868 69.5759 89.536 69.1665C89.3852 68.7572 89.1528 68.4264 88.8389 68.174C88.5249 67.9216 88.1249 67.7955 87.6386 67.7955C87.1523 67.7955 86.7522 67.9216 86.4383 68.174C86.1244 68.4264 85.892 68.7572 85.7412 69.1665C85.5904 69.5759 85.515 70.0175 85.515 70.4915C85.515 70.9654 85.5904 71.4055 85.7412 71.8118C85.892 72.218 86.1244 72.5458 86.4383 72.7951C86.7522 73.0444 87.1523 73.169 87.6386 73.169ZM93.8801 74L91.7195 66.9091H92.8644L94.3971 72.3381H94.471L95.9852 66.9091H97.1485L98.6443 72.3196H98.7181L100.251 66.9091H101.396L99.2352 74H98.1642L96.613 68.5526H96.5022L94.9511 74H93.8801ZM105.92 66.9091V67.8324H102.245V66.9091H105.92ZM103.316 65.2102H104.406V71.9688C104.406 72.2765 104.45 72.5073 104.54 72.6612C104.632 72.812 104.749 72.9136 104.89 72.9659C105.035 73.0152 105.187 73.0398 105.347 73.0398C105.467 73.0398 105.566 73.0336 105.643 73.0213C105.72 73.0059 105.781 72.9936 105.828 72.9844L106.049 73.9631C105.975 73.9908 105.872 74.0185 105.74 74.0462C105.607 74.0769 105.44 74.0923 105.237 74.0923C104.929 74.0923 104.627 74.0262 104.332 73.8938C104.039 73.7615 103.796 73.5599 103.602 73.2891C103.412 73.0182 103.316 72.6766 103.316 72.2642V65.2102ZM108.801 69.7344V74H107.711V64.5455H108.801V68.017H108.893C109.059 67.6508 109.308 67.36 109.641 67.1445C109.976 66.926 110.422 66.8168 110.979 66.8168C111.463 66.8168 111.886 66.9137 112.249 67.1076C112.612 67.2984 112.894 67.5923 113.094 67.9893C113.297 68.3833 113.399 68.8849 113.399 69.4943V74H112.309V69.5682C112.309 69.005 112.163 68.5695 111.87 68.2617C111.581 67.9509 111.18 67.7955 110.666 67.7955C110.309 67.7955 109.988 67.8709 109.705 68.0217C109.425 68.1725 109.204 68.3925 109.041 68.6818C108.881 68.9711 108.801 69.322 108.801 69.7344ZM124.366 66.9091C124.311 66.4413 124.086 66.0781 123.692 65.8196C123.298 65.5611 122.815 65.4318 122.243 65.4318C121.824 65.4318 121.458 65.4995 121.144 65.6349C120.833 65.7704 120.59 65.9566 120.414 66.1935C120.242 66.4305 120.156 66.6998 120.156 67.0014C120.156 67.2538 120.216 67.4708 120.336 67.6523C120.459 67.8308 120.616 67.9801 120.807 68.1001C120.998 68.2171 121.198 68.314 121.407 68.391C121.616 68.4648 121.809 68.5249 121.984 68.571L122.944 68.8295C123.19 68.8942 123.464 68.9834 123.766 69.0973C124.071 69.2112 124.362 69.3666 124.638 69.5636C124.919 69.7575 125.149 70.0067 125.331 70.3114C125.513 70.6161 125.603 70.9901 125.603 71.4332C125.603 71.9441 125.469 72.4058 125.202 72.8182C124.937 73.2306 124.549 73.5584 124.038 73.8015C123.531 74.0446 122.913 74.1662 122.187 74.1662C121.51 74.1662 120.924 74.0569 120.428 73.8384C119.936 73.6199 119.548 73.3152 119.265 72.9244C118.985 72.5335 118.826 72.0795 118.789 71.5625H119.971C120.002 71.9195 120.122 72.215 120.331 72.4489C120.544 72.6797 120.811 72.852 121.135 72.9659C121.461 73.0767 121.812 73.1321 122.187 73.1321C122.624 73.1321 123.017 73.0613 123.364 72.9197C123.712 72.7751 123.988 72.575 124.191 72.3196C124.394 72.0611 124.495 71.7595 124.495 71.4148C124.495 71.1009 124.408 70.8454 124.232 70.6484C124.057 70.4515 123.826 70.2914 123.54 70.1683C123.254 70.0452 122.944 69.9375 122.612 69.8452L121.449 69.5128C120.71 69.3004 120.125 68.9973 119.694 68.6033C119.263 68.2094 119.048 67.6939 119.048 67.0568C119.048 66.5275 119.191 66.0658 119.477 65.6719C119.767 65.2749 120.154 64.9671 120.641 64.7486C121.13 64.527 121.676 64.4162 122.279 64.4162C122.889 64.4162 123.431 64.5254 123.904 64.744C124.378 64.9594 124.754 65.2549 125.031 65.6303C125.311 66.0058 125.459 66.4321 125.474 66.9091H124.366ZM129.425 74.1662C128.975 74.1662 128.568 74.0816 128.201 73.9123C127.835 73.7399 127.544 73.4922 127.329 73.169C127.113 72.8428 127.006 72.4489 127.006 71.9872C127.006 71.581 127.086 71.2517 127.246 70.9993C127.406 70.7438 127.62 70.5438 127.887 70.3991C128.155 70.2545 128.451 70.1468 128.774 70.076C129.1 70.0021 129.428 69.9437 129.757 69.9006C130.188 69.8452 130.537 69.8036 130.805 69.7759C131.076 69.7451 131.273 69.6944 131.396 69.6236C131.522 69.5528 131.585 69.4297 131.585 69.2543V69.2173C131.585 68.7618 131.46 68.4079 131.211 68.1555C130.965 67.9032 130.591 67.777 130.089 67.777C129.569 67.777 129.161 67.8909 128.866 68.1186C128.571 68.3464 128.363 68.5895 128.243 68.848L127.209 68.4787C127.393 68.0478 127.64 67.7124 127.947 67.4723C128.258 67.2292 128.597 67.0599 128.963 66.9645C129.332 66.866 129.695 66.8168 130.052 66.8168C130.28 66.8168 130.542 66.8445 130.837 66.8999C131.136 66.9522 131.424 67.0614 131.701 67.2276C131.981 67.3938 132.213 67.6446 132.398 67.9801C132.582 68.3156 132.675 68.7649 132.675 69.3281V74H131.585V73.0398H131.53C131.456 73.1937 131.333 73.3583 131.16 73.5337C130.988 73.7092 130.759 73.8584 130.473 73.9815C130.186 74.1046 129.837 74.1662 129.425 74.1662ZM129.591 73.1875C130.022 73.1875 130.385 73.1029 130.68 72.9336C130.979 72.7643 131.204 72.5458 131.354 72.2781C131.508 72.0103 131.585 71.7287 131.585 71.4332V70.4361C131.539 70.4915 131.437 70.5423 131.28 70.5884C131.127 70.6315 130.948 70.67 130.745 70.7038C130.545 70.7346 130.349 70.7623 130.159 70.7869C129.971 70.8085 129.819 70.8269 129.702 70.8423C129.418 70.8793 129.154 70.9393 128.908 71.0224C128.664 71.1024 128.467 71.224 128.317 71.3871C128.169 71.5471 128.095 71.7656 128.095 72.0426C128.095 72.4212 128.235 72.7074 128.515 72.9013C128.798 73.0921 129.157 73.1875 129.591 73.1875ZM140.208 66.9091L137.585 74H136.477L133.855 66.9091H135.037L136.994 72.5597H137.068L139.026 66.9091H140.208ZM141.646 74V66.9091H142.735V74H141.646ZM142.2 65.7273C141.987 65.7273 141.804 65.6549 141.65 65.5103C141.499 65.3656 141.424 65.1918 141.424 64.9886C141.424 64.7855 141.499 64.6116 141.65 64.467C141.804 64.3223 141.987 64.25 142.2 64.25C142.412 64.25 142.594 64.3223 142.744 64.467C142.898 64.6116 142.975 64.7855 142.975 64.9886C142.975 65.1918 142.898 65.3656 142.744 65.5103C142.594 65.6549 142.412 65.7273 142.2 65.7273ZM145.82 69.7344V74H144.731V66.9091H145.783V68.017H145.875C146.042 67.657 146.294 67.3677 146.633 67.1491C146.971 66.9276 147.408 66.8168 147.944 66.8168C148.424 66.8168 148.844 66.9152 149.204 67.1122C149.564 67.3061 149.844 67.6016 150.044 67.9986C150.244 68.3925 150.344 68.8911 150.344 69.4943V74H149.255V69.5682C149.255 69.0111 149.11 68.5772 148.821 68.2663C148.531 67.9524 148.134 67.7955 147.63 67.7955C147.282 67.7955 146.971 67.8709 146.697 68.0217C146.426 68.1725 146.212 68.3925 146.055 68.6818C145.899 68.9711 145.82 69.322 145.82 69.7344ZM155.197 76.8068C154.671 76.8068 154.219 76.7391 153.84 76.6037C153.461 76.4714 153.146 76.2959 152.894 76.0774C152.644 75.862 152.446 75.6312 152.298 75.3849L153.166 74.7756C153.265 74.9048 153.389 75.0526 153.54 75.2188C153.691 75.388 153.897 75.5342 154.159 75.6573C154.423 75.7835 154.769 75.8466 155.197 75.8466C155.77 75.8466 156.242 75.7081 156.615 75.4311C156.987 75.1541 157.173 74.7202 157.173 74.1293V72.6889H157.081C157.001 72.8182 156.887 72.9782 156.739 73.169C156.595 73.3568 156.385 73.5245 156.111 73.6722C155.84 73.8169 155.474 73.8892 155.013 73.8892C154.44 73.8892 153.926 73.7538 153.471 73.483C153.018 73.2121 152.66 72.8182 152.395 72.3011C152.133 71.7841 152.003 71.1562 152.003 70.4176C152.003 69.6913 152.13 69.0588 152.386 68.5202C152.641 67.9786 152.997 67.56 153.452 67.2646C153.908 66.966 154.434 66.8168 155.031 66.8168C155.493 66.8168 155.859 66.8937 156.13 67.0476C156.404 67.1984 156.613 67.3707 156.758 67.5646C156.905 67.7554 157.019 67.9124 157.099 68.0355H157.21V66.9091H158.263V74.2031C158.263 74.8125 158.124 75.308 157.847 75.6896C157.573 76.0743 157.204 76.3559 156.739 76.5344C156.278 76.716 155.764 76.8068 155.197 76.8068ZM155.16 72.9105C155.597 72.9105 155.967 72.8105 156.268 72.6104C156.57 72.4104 156.799 72.1226 156.956 71.7472C157.113 71.3717 157.192 70.9223 157.192 70.3991C157.192 69.8883 157.115 69.4374 156.961 69.0465C156.807 68.6557 156.579 68.3494 156.278 68.1278C155.976 67.9062 155.604 67.7955 155.16 67.7955C154.699 67.7955 154.314 67.9124 154.006 68.1463C153.702 68.3802 153.472 68.6941 153.318 69.0881C153.168 69.482 153.092 69.919 153.092 70.3991C153.092 70.8916 153.169 71.3271 153.323 71.7056C153.48 72.0811 153.711 72.3765 154.015 72.592C154.323 72.8043 154.705 72.9105 155.16 72.9105ZM165.28 68.4972L164.301 68.7741C164.239 68.611 164.149 68.4525 164.029 68.2987C163.912 68.1417 163.752 68.0124 163.548 67.9109C163.345 67.8093 163.085 67.7585 162.768 67.7585C162.334 67.7585 161.973 67.8585 161.683 68.0586C161.397 68.2556 161.254 68.5064 161.254 68.8111C161.254 69.0819 161.353 69.2958 161.55 69.4528C161.747 69.6097 162.054 69.7405 162.473 69.8452L163.525 70.1037C164.159 70.2576 164.632 70.493 164.943 70.81C165.253 71.1239 165.409 71.5286 165.409 72.0241C165.409 72.4304 165.292 72.7936 165.058 73.1136C164.827 73.4337 164.504 73.6861 164.089 73.8707C163.673 74.0554 163.19 74.1477 162.639 74.1477C161.916 74.1477 161.317 73.9908 160.843 73.6768C160.369 73.3629 160.069 72.9044 159.943 72.3011L160.977 72.0426C161.076 72.4242 161.262 72.7105 161.536 72.9013C161.813 73.0921 162.174 73.1875 162.621 73.1875C163.128 73.1875 163.532 73.0798 163.83 72.8643C164.132 72.6458 164.282 72.3842 164.282 72.0795C164.282 71.8333 164.196 71.6271 164.024 71.4609C163.852 71.2917 163.587 71.1655 163.23 71.0824L162.048 70.8054C161.399 70.6515 160.922 70.413 160.617 70.0898C160.315 69.7636 160.165 69.3558 160.165 68.8665C160.165 68.4664 160.277 68.1125 160.502 67.8047C160.729 67.4969 161.039 67.2553 161.43 67.0799C161.823 66.9045 162.27 66.8168 162.768 66.8168C163.47 66.8168 164.021 66.9706 164.421 67.2784C164.824 67.5862 165.11 67.9924 165.28 68.4972ZM171.241 74H170.04L173.512 64.5455H174.694L178.165 74H176.965L174.14 66.0412H174.066L171.241 74ZM171.684 70.3068H176.522V71.3224H171.684V70.3068ZM182.371 74.1477C181.706 74.1477 181.134 73.9908 180.654 73.6768C180.174 73.3629 179.804 72.9305 179.546 72.3796C179.287 71.8287 179.158 71.1993 179.158 70.4915C179.158 69.7713 179.29 69.1358 179.555 68.5849C179.823 68.0309 180.195 67.5985 180.672 67.2876C181.152 66.9737 181.712 66.8168 182.353 66.8168C182.851 66.8168 183.3 66.9091 183.701 67.0938C184.101 67.2784 184.428 67.5369 184.684 67.8693C184.939 68.2017 185.098 68.5895 185.159 69.0327H184.07C183.987 68.7095 183.802 68.4233 183.516 68.174C183.233 67.9216 182.851 67.7955 182.371 67.7955C181.946 67.7955 181.574 67.9062 181.254 68.1278C180.937 68.3464 180.689 68.6557 180.511 69.0558C180.335 69.4528 180.247 69.919 180.247 70.4545C180.247 71.0024 180.334 71.4794 180.506 71.8857C180.681 72.2919 180.928 72.6074 181.245 72.832C181.565 73.0567 181.94 73.169 182.371 73.169C182.654 73.169 182.911 73.1198 183.142 73.0213C183.373 72.9228 183.568 72.7812 183.728 72.5966C183.888 72.4119 184.002 72.1903 184.07 71.9318H185.159C185.098 72.3504 184.945 72.7274 184.702 73.0629C184.462 73.3952 184.144 73.6599 183.747 73.8569C183.353 74.0508 182.894 74.1477 182.371 74.1477ZM189.633 74.1477C188.968 74.1477 188.396 73.9908 187.915 73.6768C187.435 73.3629 187.066 72.9305 186.807 72.3796C186.549 71.8287 186.42 71.1993 186.42 70.4915C186.42 69.7713 186.552 69.1358 186.817 68.5849C187.084 68.0309 187.457 67.5985 187.934 67.2876C188.414 66.9737 188.974 66.8168 189.614 66.8168C190.113 66.8168 190.562 66.9091 190.962 67.0938C191.362 67.2784 191.69 67.5369 191.946 67.8693C192.201 68.2017 192.36 68.5895 192.421 69.0327H191.332C191.248 68.7095 191.064 68.4233 190.778 68.174C190.494 67.9216 190.113 67.7955 189.633 67.7955C189.208 67.7955 188.836 67.9062 188.516 68.1278C188.199 68.3464 187.951 68.6557 187.772 69.0558C187.597 69.4528 187.509 69.919 187.509 70.4545C187.509 71.0024 187.595 71.4794 187.768 71.8857C187.943 72.2919 188.189 72.6074 188.506 72.832C188.826 73.0567 189.202 73.169 189.633 73.169C189.916 73.169 190.173 73.1198 190.404 73.0213C190.634 72.9228 190.83 72.7812 190.99 72.5966C191.15 72.4119 191.264 72.1903 191.332 71.9318H192.421C192.36 72.3504 192.207 72.7274 191.964 73.0629C191.724 73.3952 191.405 73.6599 191.008 73.8569C190.614 74.0508 190.156 74.1477 189.633 74.1477ZM196.894 74.1477C196.254 74.1477 195.693 73.9954 195.209 73.6907C194.729 73.386 194.354 72.9598 194.083 72.4119C193.815 71.8641 193.681 71.224 193.681 70.4915C193.681 69.7528 193.815 69.1081 194.083 68.5572C194.354 68.0063 194.729 67.5785 195.209 67.2738C195.693 66.9691 196.254 66.8168 196.894 66.8168C197.535 66.8168 198.095 66.9691 198.575 67.2738C199.058 67.5785 199.434 68.0063 199.701 68.5572C199.972 69.1081 200.108 69.7528 200.108 70.4915C200.108 71.224 199.972 71.8641 199.701 72.4119C199.434 72.9598 199.058 73.386 198.575 73.6907C198.095 73.9954 197.535 74.1477 196.894 74.1477ZM196.894 73.169C197.381 73.169 197.781 73.0444 198.095 72.7951C198.409 72.5458 198.641 72.218 198.792 71.8118C198.943 71.4055 199.018 70.9654 199.018 70.4915C199.018 70.0175 198.943 69.5759 198.792 69.1665C198.641 68.7572 198.409 68.4264 198.095 68.174C197.781 67.9216 197.381 67.7955 196.894 67.7955C196.408 67.7955 196.008 67.9216 195.694 68.174C195.38 68.4264 195.148 68.7572 194.997 69.1665C194.846 69.5759 194.771 70.0175 194.771 70.4915C194.771 70.9654 194.846 71.4055 194.997 71.8118C195.148 72.218 195.38 72.5458 195.694 72.7951C196.008 73.0444 196.408 73.169 196.894 73.169ZM206.239 71.1009V66.9091H207.329V74H206.239V72.7997H206.165C205.999 73.1598 205.741 73.466 205.39 73.7184C205.039 73.9677 204.596 74.0923 204.06 74.0923C203.617 74.0923 203.223 73.9954 202.879 73.8015C202.534 73.6045 202.263 73.3091 202.066 72.9151C201.869 72.5181 201.771 72.018 201.771 71.4148V66.9091H202.86V71.3409C202.86 71.858 203.005 72.2704 203.294 72.5781C203.586 72.8859 203.959 73.0398 204.411 73.0398C204.682 73.0398 204.958 72.9705 205.238 72.832C205.521 72.6935 205.758 72.4812 205.949 72.195C206.142 71.9087 206.239 71.544 206.239 71.1009ZM210.414 69.7344V74H209.324V66.9091H210.377V68.017H210.469C210.635 67.657 210.888 67.3677 211.226 67.1491C211.565 66.9276 212.002 66.8168 212.537 66.8168C213.017 66.8168 213.438 66.9152 213.798 67.1122C214.158 67.3061 214.438 67.6016 214.638 67.9986C214.838 68.3925 214.938 68.8911 214.938 69.4943V74H213.848V69.5682C213.848 69.0111 213.704 68.5772 213.415 68.2663C213.125 67.9524 212.728 67.7955 212.223 67.7955C211.876 67.7955 211.565 67.8709 211.291 68.0217C211.02 68.1725 210.806 68.3925 210.649 68.6818C210.492 68.9711 210.414 69.322 210.414 69.7344ZM220.013 66.9091V67.8324H216.338V66.9091H220.013ZM217.409 65.2102H218.498V71.9688C218.498 72.2765 218.543 72.5073 218.632 72.6612C218.725 72.812 218.842 72.9136 218.983 72.9659C219.128 73.0152 219.28 73.0398 219.44 73.0398C219.56 73.0398 219.659 73.0336 219.736 73.0213C219.813 73.0059 219.874 72.9936 219.92 72.9844L220.142 73.9631C220.068 73.9908 219.965 74.0185 219.833 74.0462C219.7 74.0769 219.532 74.0923 219.329 74.0923C219.022 74.0923 218.72 74.0262 218.425 73.8938C218.132 73.7615 217.889 73.5599 217.695 73.2891C217.504 73.0182 217.409 72.6766 217.409 72.2642V65.2102Z" fill="white"/>
<path d="M33.4034 110.159C32.6809 110.159 32.0014 110.023 31.3651 109.751C30.732 109.48 30.1735 109.103 29.6896 108.623C29.209 108.139 28.8312 107.58 28.5561 106.947C28.2843 106.314 28.1501 105.635 28.1534 104.909C28.1567 104.183 28.2943 103.504 28.5661 102.871C28.8411 102.238 29.219 101.681 29.6996 101.2C30.1802 100.716 30.737 100.339 31.37 100.067C32.0031 99.795 32.6809 99.6591 33.4034 99.6591C34.1293 99.6591 34.8087 99.795 35.4418 100.067C36.0781 100.339 36.6349 100.716 37.1122 101.2C37.5928 101.681 37.969 102.238 38.2408 102.871C38.5125 103.504 38.6501 104.183 38.6534 104.909C38.6567 105.635 38.5225 106.314 38.2507 106.947C37.9789 107.58 37.6027 108.139 37.1222 108.623C36.6416 109.103 36.0831 109.48 35.4467 109.751C34.8104 110.023 34.1293 110.159 33.4034 110.159ZM46.214 110.159C45.4914 110.159 44.812 110.023 44.1756 109.751C43.5426 109.48 42.9841 109.103 42.5002 108.623C42.0196 108.139 41.6417 107.58 41.3667 106.947C41.0949 106.314 40.9606 105.635 40.964 104.909C40.9673 104.183 41.1048 103.504 41.3766 102.871C41.6517 102.238 42.0295 101.681 42.5101 101.2C42.9907 100.716 43.5475 100.339 44.1806 100.067C44.8136 99.795 45.4914 99.6591 46.214 99.6591C46.9398 99.6591 47.6193 99.795 48.2523 100.067C48.8887 100.339 49.4455 100.716 49.9228 101.2C50.4034 101.681 50.7795 102.238 51.0513 102.871C51.3231 103.504 51.4606 104.183 51.464 104.909C51.4673 105.635 51.333 106.314 51.0613 106.947C50.7895 107.58 50.4133 108.139 49.9327 108.623C49.4521 109.103 48.8936 109.48 48.2573 109.751C47.6209 110.023 46.9398 110.159 46.214 110.159ZM59.0245 110.159C58.302 110.159 57.6225 110.023 56.9862 109.751C56.3531 109.48 55.7946 109.103 55.3107 108.623C54.8301 108.139 54.4523 107.58 54.1772 106.947C53.9054 106.314 53.7712 105.635 53.7745 104.909C53.7778 104.183 53.9154 103.504 54.1871 102.871C54.4622 102.238 54.8401 101.681 55.3207 101.2C55.8013 100.716 56.3581 100.339 56.9911 100.067C57.6242 99.795 58.302 99.6591 59.0245 99.6591C59.7504 99.6591 60.4298 99.795 61.0629 100.067C61.6992 100.339 62.256 100.716 62.7333 101.2C63.2139 101.681 63.5901 102.238 63.8619 102.871C64.1336 103.504 64.2712 104.183 64.2745 104.909C64.2778 105.635 64.1436 106.314 63.8718 106.947C63.6 107.58 63.2238 108.139 62.7433 108.623C62.2627 109.103 61.7042 109.48 61.0678 109.751C60.4315 110.023 59.7504 110.159 59.0245 110.159ZM71.835 110.159C71.1125 110.159 70.4331 110.023 69.7967 109.751C69.1636 109.48 68.6052 109.103 68.1213 108.623C67.6407 108.139 67.2628 107.58 66.9877 106.947C66.716 106.314 66.5817 105.635 66.585 104.909C66.5884 104.183 66.7259 103.504 66.9977 102.871C67.2728 102.238 67.6506 101.681 68.1312 101.2C68.6118 100.716 69.1686 100.339 69.8017 100.067C70.4347 99.795 71.1125 99.6591 71.835 99.6591C72.5609 99.6591 73.2404 99.795 73.8734 100.067C74.5098 100.339 75.0666 100.716 75.5439 101.2C76.0244 101.681 76.4006 102.238 76.6724 102.871C76.9442 103.504 77.0817 104.183 77.085 104.909C77.0884 105.635 76.9541 106.314 76.6824 106.947C76.4106 107.58 76.0344 108.139 75.5538 108.623C75.0732 109.103 74.5147 109.48 73.8784 109.751C73.242 110.023 72.5609 110.159 71.835 110.159ZM88.5831 110.159C87.8606 110.159 87.1811 110.023 86.5447 109.751C85.9117 109.48 85.3532 109.103 84.8693 108.623C84.3887 108.139 84.0109 107.58 83.7358 106.947C83.464 106.314 83.3298 105.635 83.3331 104.909C83.3364 104.183 83.474 103.504 83.7457 102.871C84.0208 102.238 84.3987 101.681 84.8793 101.2C85.3598 100.716 85.9167 100.339 86.5497 100.067C87.1828 99.795 87.8606 99.6591 88.5831 99.6591C89.3089 99.6591 89.9884 99.795 90.6214 100.067C91.2578 100.339 91.8146 100.716 92.2919 101.2C92.7725 101.681 93.1487 102.238 93.4205 102.871C93.6922 103.504 93.8298 104.183 93.8331 104.909C93.8364 105.635 93.7022 106.314 93.4304 106.947C93.1586 107.58 92.7824 108.139 92.3018 108.623C91.8213 109.103 91.2628 109.48 90.6264 109.751C89.9901 110.023 89.3089 110.159 88.5831 110.159ZM101.394 110.159C100.671 110.159 99.9917 110.023 99.3553 109.751C98.7222 109.48 98.1638 109.103 97.6799 108.623C97.1993 108.139 96.8214 107.58 96.5463 106.947C96.2746 106.314 96.1403 105.635 96.1436 104.909C96.147 104.183 96.2845 103.504 96.5563 102.871C96.8314 102.238 97.2092 101.681 97.6898 101.2C98.1704 100.716 98.7272 100.339 99.3603 100.067C99.9933 99.795 100.671 99.6591 101.394 99.6591C102.119 99.6591 102.799 99.795 103.432 100.067C104.068 100.339 104.625 100.716 105.102 101.2C105.583 101.681 105.959 102.238 106.231 102.871C106.503 103.504 106.64 104.183 106.644 104.909C106.647 105.635 106.513 106.314 106.241 106.947C105.969 107.58 105.593 108.139 105.112 108.623C104.632 109.103 104.073 109.48 103.437 109.751C102.801 110.023 102.119 110.159 101.394 110.159ZM114.204 110.159C113.482 110.159 112.802 110.023 112.166 109.751C111.533 109.48 110.974 109.103 110.49 108.623C110.01 108.139 109.632 107.58 109.357 106.947C109.085 106.314 108.951 105.635 108.954 104.909C108.958 104.183 109.095 103.504 109.367 102.871C109.642 102.238 110.02 101.681 110.5 101.2C110.981 100.716 111.538 100.339 112.171 100.067C112.804 99.795 113.482 99.6591 114.204 99.6591C114.93 99.6591 115.609 99.795 116.243 100.067C116.879 100.339 117.436 100.716 117.913 101.2C118.394 101.681 118.77 102.238 119.042 102.871C119.313 103.504 119.451 104.183 119.454 104.909C119.458 105.635 119.323 106.314 119.051 106.947C118.78 107.58 118.404 108.139 117.923 108.623C117.442 109.103 116.884 109.48 116.248 109.751C115.611 110.023 114.93 110.159 114.204 110.159ZM127.015 110.159C126.292 110.159 125.613 110.023 124.976 109.751C124.343 109.48 123.785 109.103 123.301 108.623C122.82 108.139 122.443 107.58 122.167 106.947C121.896 106.314 121.761 105.635 121.765 104.909C121.768 104.183 121.906 103.504 122.177 102.871C122.452 102.238 122.83 101.681 123.311 101.2C123.791 100.716 124.348 100.339 124.981 100.067C125.614 99.795 126.292 99.6591 127.015 99.6591C127.741 99.6591 128.42 99.795 129.053 100.067C129.689 100.339 130.246 100.716 130.724 101.2C131.204 101.681 131.58 102.238 131.852 102.871C132.124 103.504 132.261 104.183 132.265 104.909C132.268 105.635 132.134 106.314 131.862 106.947C131.59 107.58 131.214 108.139 130.733 108.623C130.253 109.103 129.694 109.48 129.058 109.751C128.422 110.023 127.741 110.159 127.015 110.159ZM143.763 110.159C143.04 110.159 142.361 110.023 141.724 109.751C141.091 109.48 140.533 109.103 140.049 108.623C139.568 108.139 139.191 107.58 138.915 106.947C138.644 106.314 138.509 105.635 138.513 104.909C138.516 104.183 138.654 103.504 138.925 102.871C139.201 102.238 139.578 101.681 140.059 101.2C140.54 100.716 141.096 100.339 141.729 100.067C142.362 99.795 143.04 99.6591 143.763 99.6591C144.489 99.6591 145.168 99.795 145.801 100.067C146.438 100.339 146.994 100.716 147.472 101.2C147.952 101.681 148.328 102.238 148.6 102.871C148.872 103.504 149.009 104.183 149.013 104.909C149.016 105.635 148.882 106.314 148.61 106.947C148.338 107.58 147.962 108.139 147.482 108.623C147.001 109.103 146.442 109.48 145.806 109.751C145.17 110.023 144.489 110.159 143.763 110.159ZM156.573 110.159C155.851 110.159 155.171 110.023 154.535 109.751C153.902 109.48 153.343 109.103 152.86 108.623C152.379 108.139 152.001 107.58 151.726 106.947C151.454 106.314 151.32 105.635 151.323 104.909C151.327 104.183 151.464 103.504 151.736 102.871C152.011 102.238 152.389 101.681 152.869 101.2C153.35 100.716 153.907 100.339 154.54 100.067C155.173 99.795 155.851 99.6591 156.573 99.6591C157.299 99.6591 157.979 99.795 158.612 100.067C159.248 100.339 159.805 100.716 160.282 101.2C160.763 101.681 161.139 102.238 161.411 102.871C161.682 103.504 161.82 104.183 161.823 104.909C161.827 105.635 161.692 106.314 161.421 106.947C161.149 107.58 160.773 108.139 160.292 108.623C159.811 109.103 159.253 109.48 158.617 109.751C157.98 110.023 157.299 110.159 156.573 110.159ZM169.384 110.159C168.661 110.159 167.982 110.023 167.346 109.751C166.712 109.48 166.154 109.103 165.67 108.623C165.19 108.139 164.812 107.58 164.537 106.947C164.265 106.314 164.131 105.635 164.134 104.909C164.137 104.183 164.275 103.504 164.547 102.871C164.822 102.238 165.199 101.681 165.68 101.2C166.161 100.716 166.717 100.339 167.35 100.067C167.984 99.795 168.661 99.6591 169.384 99.6591C170.11 99.6591 170.789 99.795 171.422 100.067C172.059 100.339 172.615 100.716 173.093 101.2C173.573 101.681 173.949 102.238 174.221 102.871C174.493 103.504 174.631 104.183 174.634 104.909C174.637 105.635 174.503 106.314 174.231 106.947C173.959 107.58 173.583 108.139 173.103 108.623C172.622 109.103 172.064 109.48 171.427 109.751C170.791 110.023 170.11 110.159 169.384 110.159ZM182.194 110.159C181.472 110.159 180.792 110.023 180.156 109.751C179.523 109.48 178.965 109.103 178.481 108.623C178 108.139 177.622 107.58 177.347 106.947C177.075 106.314 176.941 105.635 176.944 104.909C176.948 104.183 177.085 103.504 177.357 102.871C177.632 102.238 178.01 101.681 178.491 101.2C178.971 100.716 179.528 100.339 180.161 100.067C180.794 99.795 181.472 99.6591 182.194 99.6591C182.92 99.6591 183.6 99.795 184.233 100.067C184.869 100.339 185.426 100.716 185.903 101.2C186.384 101.681 186.76 102.238 187.032 102.871C187.304 103.504 187.441 104.183 187.444 104.909C187.448 105.635 187.314 106.314 187.042 106.947C186.77 107.58 186.394 108.139 185.913 108.623C185.433 109.103 184.874 109.48 184.238 109.751C183.601 110.023 182.92 110.159 182.194 110.159ZM196.835 99.679C197.252 99.6823 197.67 99.7618 198.087 99.9176C198.505 100.073 198.886 100.332 199.231 100.693C199.576 101.051 199.852 101.54 200.061 102.16C200.27 102.78 200.374 103.557 200.374 104.491C200.374 105.396 200.288 106.2 200.116 106.903C199.947 107.602 199.701 108.192 199.38 108.673C199.062 109.153 198.674 109.518 198.217 109.766C197.763 110.015 197.249 110.139 196.675 110.139C196.105 110.139 195.597 110.027 195.149 109.801C194.705 109.572 194.34 109.256 194.055 108.852C193.774 108.444 193.593 107.972 193.513 107.435H194.727C194.836 107.902 195.053 108.288 195.378 108.593C195.706 108.895 196.138 109.045 196.675 109.045C197.461 109.045 198.081 108.702 198.535 108.016C198.992 107.33 199.221 106.361 199.221 105.108H199.141C198.956 105.386 198.735 105.627 198.48 105.829C198.225 106.031 197.942 106.187 197.63 106.296C197.318 106.406 196.987 106.46 196.636 106.46C196.052 106.46 195.517 106.316 195.03 106.028C194.546 105.736 194.158 105.337 193.866 104.83C193.578 104.319 193.434 103.736 193.434 103.08C193.434 102.456 193.573 101.886 193.852 101.369C194.133 100.849 194.528 100.435 195.035 100.126C195.545 99.8182 196.145 99.669 196.835 99.679ZM196.835 100.773C196.417 100.773 196.041 100.877 195.706 101.086C195.375 101.291 195.111 101.57 194.915 101.921C194.723 102.269 194.627 102.655 194.627 103.08C194.627 103.504 194.72 103.89 194.906 104.238C195.094 104.583 195.351 104.858 195.676 105.063C196.004 105.265 196.377 105.366 196.795 105.366C197.11 105.366 197.403 105.305 197.675 105.183C197.946 105.057 198.183 104.886 198.386 104.67C198.591 104.452 198.752 104.205 198.868 103.93C198.984 103.651 199.042 103.361 199.042 103.06C199.042 102.662 198.946 102.289 198.754 101.941C198.565 101.593 198.303 101.311 197.968 101.096C197.637 100.88 197.259 100.773 196.835 100.773ZM205.571 99.679C205.988 99.6823 206.406 99.7618 206.824 99.9176C207.241 100.073 207.622 100.332 207.967 100.693C208.312 101.051 208.589 101.54 208.797 102.16C209.006 102.78 209.111 103.557 209.111 104.491C209.111 105.396 209.024 106.2 208.852 106.903C208.683 107.602 208.438 108.192 208.116 108.673C207.798 109.153 207.41 109.518 206.953 109.766C206.499 110.015 205.985 110.139 205.412 110.139C204.842 110.139 204.333 110.027 203.885 109.801C203.441 109.572 203.077 109.256 202.792 108.852C202.51 108.444 202.329 107.972 202.25 107.435H203.463C203.572 107.902 203.789 108.288 204.114 108.593C204.442 108.895 204.875 109.045 205.412 109.045C206.197 109.045 206.817 108.702 207.271 108.016C207.729 107.33 207.957 106.361 207.957 105.108H207.878C207.692 105.386 207.472 105.627 207.216 105.829C206.961 106.031 206.678 106.187 206.366 106.296C206.055 106.406 205.723 106.46 205.372 106.46C204.789 106.46 204.253 106.316 203.766 106.028C203.282 105.736 202.894 105.337 202.603 104.83C202.314 104.319 202.17 103.736 202.17 103.08C202.17 102.456 202.309 101.886 202.588 101.369C202.87 100.849 203.264 100.435 203.771 100.126C204.282 99.8182 204.881 99.669 205.571 99.679ZM205.571 100.773C205.153 100.773 204.777 100.877 204.442 101.086C204.111 101.291 203.847 101.57 203.652 101.921C203.46 102.269 203.363 102.655 203.363 103.08C203.363 103.504 203.456 103.89 203.642 104.238C203.831 104.583 204.088 104.858 204.412 105.063C204.741 105.265 205.113 105.366 205.531 105.366C205.846 105.366 206.139 105.305 206.411 105.183C206.683 105.057 206.92 104.886 207.122 104.67C207.327 104.452 207.488 104.205 207.604 103.93C207.72 103.651 207.778 103.361 207.778 103.06C207.778 102.662 207.682 102.289 207.49 101.941C207.301 101.593 207.039 101.311 206.704 101.096C206.373 100.88 205.995 100.773 205.571 100.773ZM214.307 99.679C214.725 99.6823 215.142 99.7618 215.56 99.9176C215.978 100.073 216.359 100.332 216.703 100.693C217.048 101.051 217.325 101.54 217.534 102.16C217.743 102.78 217.847 103.557 217.847 104.491C217.847 105.396 217.761 106.2 217.588 106.903C217.419 107.602 217.174 108.192 216.853 108.673C216.534 109.153 216.147 109.518 215.689 109.766C215.235 110.015 214.721 110.139 214.148 110.139C213.578 110.139 213.069 110.027 212.622 109.801C212.178 109.572 211.813 109.256 211.528 108.852C211.246 108.444 211.066 107.972 210.986 107.435H212.199C212.309 107.902 212.526 108.288 212.85 108.593C213.179 108.895 213.611 109.045 214.148 109.045C214.934 109.045 215.553 108.702 216.007 108.016C216.465 107.33 216.694 106.361 216.694 105.108H216.614C216.428 105.386 216.208 105.627 215.953 105.829C215.698 106.031 215.414 106.187 215.103 106.296C214.791 106.406 214.46 106.46 214.108 106.46C213.525 106.46 212.99 106.316 212.502 106.028C212.019 105.736 211.631 105.337 211.339 104.83C211.051 104.319 210.907 103.736 210.907 103.08C210.907 102.456 211.046 101.886 211.324 101.369C211.606 100.849 212 100.435 212.507 100.126C213.018 99.8182 213.618 99.669 214.307 99.679ZM214.307 100.773C213.89 100.773 213.513 100.877 213.179 101.086C212.847 101.291 212.584 101.57 212.388 101.921C212.196 102.269 212.1 102.655 212.1 103.08C212.1 103.504 212.193 103.89 212.378 104.238C212.567 104.583 212.824 104.858 213.149 105.063C213.477 105.265 213.85 105.366 214.267 105.366C214.582 105.366 214.876 105.305 215.147 105.183C215.419 105.057 215.656 104.886 215.858 104.67C216.064 104.452 216.225 104.205 216.341 103.93C216.457 103.651 216.515 103.361 216.515 103.06C216.515 102.662 216.418 102.289 216.226 101.941C216.037 101.593 215.775 101.311 215.441 101.096C215.109 100.88 214.731 100.773 214.307 100.773ZM223.044 99.679C223.461 99.6823 223.879 99.7618 224.296 99.9176C224.714 100.073 225.095 100.332 225.44 100.693C225.785 101.051 226.061 101.54 226.27 102.16C226.479 102.78 226.583 103.557 226.583 104.491C226.583 105.396 226.497 106.2 226.325 106.903C226.156 107.602 225.91 108.192 225.589 108.673C225.271 109.153 224.883 109.518 224.426 109.766C223.972 110.015 223.458 110.139 222.884 110.139C222.314 110.139 221.806 110.027 221.358 109.801C220.914 109.572 220.549 109.256 220.264 108.852C219.983 108.444 219.802 107.972 219.722 107.435H220.936C221.045 107.902 221.262 108.288 221.587 108.593C221.915 108.895 222.347 109.045 222.884 109.045C223.67 109.045 224.29 108.702 224.744 108.016C225.201 107.33 225.43 106.361 225.43 105.108H225.35C225.165 105.386 224.944 105.627 224.689 105.829C224.434 106.031 224.151 106.187 223.839 106.296C223.527 106.406 223.196 106.46 222.845 106.46C222.261 106.46 221.726 106.316 221.239 106.028C220.755 105.736 220.367 105.337 220.075 104.83C219.787 104.319 219.643 103.736 219.643 103.08C219.643 102.456 219.782 101.886 220.061 101.369C220.342 100.849 220.737 100.435 221.244 100.126C221.754 99.8182 222.354 99.669 223.044 99.679ZM223.044 100.773C222.626 100.773 222.25 100.877 221.915 101.086C221.584 101.291 221.32 101.57 221.124 101.921C220.932 102.269 220.836 102.655 220.836 103.08C220.836 103.504 220.929 103.89 221.115 104.238C221.303 104.583 221.56 104.858 221.885 105.063C222.213 105.265 222.586 105.366 223.004 105.366C223.319 105.366 223.612 105.305 223.884 105.183C224.155 105.057 224.392 104.886 224.595 104.67C224.8 104.452 224.961 104.205 225.077 103.93C225.193 103.651 225.251 103.361 225.251 103.06C225.251 102.662 225.155 102.289 224.963 101.941C224.774 101.593 224.512 101.311 224.177 101.096C223.846 100.88 223.468 100.773 223.044 100.773Z" fill="white"/>
<g filter="url(#filter1_b_35_1120)">
<rect x="263" y="26" width="165" height="88" rx="8" fill="white" fill-opacity="0.3"/>
<rect x="263.5" y="26.5" width="164" height="87" rx="7.5" stroke="white" stroke-opacity="0.5"/>
<path d="M288.575 50.1293H287.024C286.964 49.7978 286.853 49.5062 286.691 49.2543C286.529 49.0024 286.33 48.7886 286.094 48.6129C285.859 48.4373 285.596 48.3047 285.304 48.2152C285.016 48.1257 284.709 48.081 284.384 48.081C283.798 48.081 283.272 48.2285 282.808 48.5234C282.348 48.8184 281.983 49.2509 281.714 49.821C281.449 50.3911 281.317 51.0871 281.317 51.9091C281.317 52.7377 281.449 53.437 281.714 54.0071C281.983 54.5772 282.349 55.008 282.813 55.2997C283.277 55.5914 283.799 55.7372 284.379 55.7372C284.701 55.7372 285.006 55.6941 285.294 55.608C285.586 55.5185 285.849 55.3875 286.085 55.2152C286.32 55.0429 286.519 54.8324 286.681 54.5838C286.847 54.3319 286.961 54.0436 287.024 53.7188L288.575 53.7237C288.492 54.2242 288.332 54.6849 288.093 55.1058C287.858 55.5234 287.554 55.8847 287.183 56.1896C286.815 56.4912 286.394 56.7249 285.92 56.8906C285.446 57.0563 284.929 57.1392 284.369 57.1392C283.488 57.1392 282.702 56.9304 282.013 56.5128C281.323 56.0919 280.78 55.4903 280.382 54.7081C279.988 53.9259 279.79 52.9929 279.79 51.9091C279.79 50.822 279.989 49.889 280.387 49.1101C280.785 48.3279 281.328 47.728 282.018 47.3104C282.707 46.8894 283.491 46.679 284.369 46.679C284.91 46.679 285.413 46.7569 285.881 46.9126C286.351 47.0651 286.774 47.2905 287.148 47.5888C287.523 47.8838 287.833 48.245 288.078 48.6726C288.323 49.0968 288.489 49.5824 288.575 50.1293ZM295.132 53.8331V49.3636H296.623V57H295.161V55.6776H295.082C294.906 56.0852 294.624 56.425 294.237 56.6967C293.852 56.9652 293.373 57.0994 292.8 57.0994C292.309 57.0994 291.875 56.9917 291.497 56.7763C291.123 56.5575 290.828 56.2344 290.612 55.8068C290.4 55.3793 290.294 54.8506 290.294 54.2209V49.3636H291.781V54.0419C291.781 54.5623 291.925 54.9766 292.213 55.2848C292.502 55.593 292.876 55.7472 293.337 55.7472C293.615 55.7472 293.892 55.6776 294.167 55.5384C294.445 55.3991 294.676 55.1887 294.858 54.907C295.044 54.6252 295.135 54.2673 295.132 53.8331ZM298.62 57V49.3636H300.057V50.5767H300.137C300.276 50.1657 300.521 49.8426 300.873 49.6072C301.227 49.3686 301.628 49.2493 302.076 49.2493C302.168 49.2493 302.278 49.2526 302.404 49.2592C302.533 49.2659 302.634 49.2741 302.707 49.2841V50.706C302.647 50.6894 302.541 50.6712 302.389 50.6513C302.236 50.6281 302.084 50.6165 301.931 50.6165C301.58 50.6165 301.267 50.6911 300.992 50.8402C300.72 50.986 300.505 51.1899 300.346 51.4517C300.186 51.7102 300.107 52.0052 300.107 52.3366V57H298.62ZM303.993 57V49.3636H305.43V50.5767H305.51C305.649 50.1657 305.894 49.8426 306.246 49.6072C306.6 49.3686 307.001 49.2493 307.449 49.2493C307.541 49.2493 307.651 49.2526 307.777 49.2592C307.906 49.2659 308.007 49.2741 308.08 49.2841V50.706C308.02 50.6894 307.914 50.6712 307.762 50.6513C307.609 50.6281 307.457 50.6165 307.305 50.6165C306.953 50.6165 306.64 50.6911 306.365 50.8402C306.093 50.986 305.878 51.1899 305.719 51.4517C305.559 51.7102 305.48 52.0052 305.48 52.3366V57H303.993ZM312.384 57.1541C311.632 57.1541 310.984 56.9934 310.44 56.6719C309.9 56.3471 309.482 55.8913 309.188 55.3047C308.896 54.7147 308.75 54.0237 308.75 53.2315C308.75 52.4493 308.896 51.7599 309.188 51.1634C309.482 50.5668 309.893 50.1011 310.42 49.7663C310.951 49.4316 311.571 49.2642 312.28 49.2642C312.711 49.2642 313.128 49.3355 313.533 49.478C313.937 49.6205 314.3 49.8442 314.621 50.1491C314.943 50.4541 315.196 50.8501 315.382 51.3374C315.568 51.8213 315.661 52.4096 315.661 53.1023V53.6293H309.59V52.5156H314.204C314.204 52.1245 314.124 51.7782 313.965 51.4766C313.806 51.1716 313.582 50.9313 313.294 50.7557C313.009 50.58 312.674 50.4922 312.29 50.4922C311.872 50.4922 311.508 50.5949 311.196 50.8004C310.888 51.0026 310.649 51.2678 310.48 51.5959C310.314 51.9207 310.232 52.2737 310.232 52.6548V53.5249C310.232 54.0353 310.321 54.4695 310.5 54.8274C310.682 55.1854 310.936 55.4588 311.261 55.6477C311.585 55.8333 311.965 55.9261 312.399 55.9261C312.681 55.9261 312.938 55.8864 313.17 55.8068C313.402 55.724 313.602 55.6013 313.771 55.4389C313.94 55.2765 314.07 55.076 314.159 54.8374L315.566 55.0909C315.453 55.5052 315.251 55.8681 314.96 56.1797C314.671 56.4879 314.308 56.7282 313.871 56.9006C313.437 57.0696 312.941 57.1541 312.384 57.1541ZM318.796 52.4659V57H317.31V49.3636H318.737V50.6065H318.831C319.007 50.2022 319.282 49.8774 319.656 49.6321C320.034 49.3868 320.51 49.2642 321.083 49.2642C321.604 49.2642 322.059 49.3736 322.45 49.5923C322.842 49.8078 323.145 50.1293 323.36 50.5568C323.576 50.9844 323.683 51.513 323.683 52.1428V57H322.197V52.3217C322.197 51.7682 322.053 51.3357 321.764 51.0241C321.476 50.7093 321.08 50.5518 320.576 50.5518C320.231 50.5518 319.925 50.6264 319.656 50.7756C319.391 50.9247 319.181 51.1435 319.025 51.4318C318.873 51.7169 318.796 52.0616 318.796 52.4659ZM329.242 49.3636V50.5568H325.07V49.3636H329.242ZM326.189 47.5341H327.676V54.7578C327.676 55.0462 327.719 55.2633 327.805 55.4091C327.891 55.5516 328.002 55.6494 328.138 55.7024C328.277 55.7521 328.428 55.777 328.59 55.777C328.71 55.777 328.814 55.7687 328.904 55.7521C328.993 55.7356 329.063 55.7223 329.112 55.7124L329.381 56.9403C329.295 56.9735 329.172 57.0066 329.013 57.0398C328.854 57.0762 328.655 57.0961 328.416 57.0994C328.025 57.1061 327.661 57.0365 327.323 56.8906C326.985 56.7448 326.711 56.5194 326.502 56.2145C326.294 55.9096 326.189 55.5268 326.189 55.0661V47.5341ZM334.71 57V46.8182H338.439C339.162 46.8182 339.76 46.9375 340.234 47.1761C340.708 47.4115 341.062 47.7313 341.298 48.1357C341.533 48.5367 341.651 48.9891 341.651 49.4929C341.651 49.9171 341.573 50.2751 341.417 50.5668C341.261 50.8551 341.052 51.0871 340.791 51.2628C340.532 51.4351 340.247 51.5611 339.936 51.6406V51.7401C340.274 51.7566 340.603 51.866 340.925 52.0682C341.25 52.267 341.518 52.5504 341.73 52.9183C341.942 53.2862 342.048 53.7337 342.048 54.2607C342.048 54.781 341.926 55.2483 341.681 55.6626C341.439 56.0736 341.064 56.4001 340.557 56.642C340.05 56.8807 339.402 57 338.613 57H334.71ZM336.247 55.6825H338.464C339.2 55.6825 339.727 55.54 340.045 55.255C340.363 54.9699 340.522 54.6136 340.522 54.1861C340.522 53.8646 340.441 53.5696 340.279 53.3011C340.116 53.0327 339.884 52.8189 339.583 52.6598C339.284 52.5007 338.93 52.4212 338.519 52.4212H336.247V55.6825ZM336.247 51.223H338.305C338.65 51.223 338.959 51.1567 339.235 51.0241C339.513 50.8916 339.733 50.706 339.896 50.4673C340.061 50.2254 340.144 49.9403 340.144 49.6122C340.144 49.1913 339.997 48.8383 339.702 48.5533C339.407 48.2682 338.954 48.1257 338.345 48.1257H336.247V51.223ZM345.974 57.169C345.49 57.169 345.052 57.0795 344.661 56.9006C344.27 56.7183 343.96 56.4548 343.731 56.1101C343.506 55.7654 343.393 55.3428 343.393 54.8423C343.393 54.4115 343.476 54.0568 343.642 53.7784C343.808 53.5 344.031 53.2796 344.313 53.1172C344.595 52.9548 344.91 52.8321 345.258 52.7493C345.606 52.6664 345.96 52.6035 346.322 52.5604C346.779 52.5073 347.15 52.4643 347.435 52.4311C347.72 52.3946 347.927 52.3366 348.057 52.2571C348.186 52.1776 348.251 52.0483 348.251 51.8693V51.8345C348.251 51.4003 348.128 51.0639 347.883 50.8253C347.641 50.5866 347.279 50.4673 346.799 50.4673C346.298 50.4673 345.904 50.5784 345.616 50.8004C345.331 51.0192 345.133 51.2628 345.024 51.5312L343.627 51.2131C343.793 50.7491 344.035 50.3745 344.353 50.0895C344.674 49.8011 345.044 49.5923 345.461 49.4631C345.879 49.3305 346.318 49.2642 346.779 49.2642C347.084 49.2642 347.407 49.3007 347.748 49.3736C348.093 49.4432 348.415 49.5724 348.713 49.7614C349.015 49.9503 349.261 50.2204 349.454 50.5717C349.646 50.9197 349.742 51.3722 349.742 51.929V57H348.29V55.956H348.231C348.135 56.1482 347.99 56.3371 347.798 56.5227C347.606 56.7083 347.359 56.8625 347.057 56.9851C346.756 57.1077 346.394 57.169 345.974 57.169ZM346.297 55.9759C346.708 55.9759 347.059 55.8946 347.351 55.7322C347.646 55.5698 347.869 55.3577 348.022 55.0959C348.178 54.8307 348.256 54.5473 348.256 54.2457V53.2614C348.202 53.3144 348.1 53.3641 347.947 53.4105C347.798 53.4536 347.627 53.4917 347.435 53.5249C347.243 53.5547 347.056 53.5829 346.873 53.6094C346.691 53.6326 346.539 53.6525 346.416 53.669C346.128 53.7055 345.864 53.7668 345.626 53.853C345.39 53.9392 345.201 54.0634 345.059 54.2259C344.92 54.3849 344.85 54.5971 344.85 54.8622C344.85 55.2301 344.986 55.5085 345.258 55.6974C345.529 55.883 345.876 55.9759 346.297 55.9759ZM353.208 46.8182V57H351.722V46.8182H353.208ZM357.431 57.169C356.947 57.169 356.509 57.0795 356.118 56.9006C355.727 56.7183 355.417 56.4548 355.188 56.1101C354.963 55.7654 354.85 55.3428 354.85 54.8423C354.85 54.4115 354.933 54.0568 355.099 53.7784C355.265 53.5 355.488 53.2796 355.77 53.1172C356.052 52.9548 356.367 52.8321 356.715 52.7493C357.063 52.6664 357.417 52.6035 357.779 52.5604C358.236 52.5073 358.607 52.4643 358.892 52.4311C359.177 52.3946 359.384 52.3366 359.514 52.2571C359.643 52.1776 359.708 52.0483 359.708 51.8693V51.8345C359.708 51.4003 359.585 51.0639 359.34 50.8253C359.098 50.5866 358.736 50.4673 358.256 50.4673C357.755 50.4673 357.361 50.5784 357.073 50.8004C356.788 51.0192 356.59 51.2628 356.481 51.5312L355.084 51.2131C355.25 50.7491 355.492 50.3745 355.81 50.0895C356.131 49.8011 356.501 49.5923 356.919 49.4631C357.336 49.3305 357.775 49.2642 358.236 49.2642C358.541 49.2642 358.864 49.3007 359.205 49.3736C359.55 49.4432 359.872 49.5724 360.17 49.7614C360.472 49.9503 360.718 50.2204 360.911 50.5717C361.103 50.9197 361.199 51.3722 361.199 51.929V57H359.747V55.956H359.688C359.592 56.1482 359.447 56.3371 359.255 56.5227C359.063 56.7083 358.816 56.8625 358.514 56.9851C358.213 57.1077 357.852 57.169 357.431 57.169ZM357.754 55.9759C358.165 55.9759 358.516 55.8946 358.808 55.7322C359.103 55.5698 359.326 55.3577 359.479 55.0959C359.635 54.8307 359.713 54.5473 359.713 54.2457V53.2614C359.66 53.3144 359.557 53.3641 359.404 53.4105C359.255 53.4536 359.084 53.4917 358.892 53.5249C358.7 53.5547 358.513 53.5829 358.33 53.6094C358.148 53.6326 357.996 53.6525 357.873 53.669C357.585 53.7055 357.321 53.7668 357.083 53.853C356.847 53.9392 356.658 54.0634 356.516 54.2259C356.377 54.3849 356.307 54.5971 356.307 54.8622C356.307 55.2301 356.443 55.5085 356.715 55.6974C356.986 55.883 357.333 55.9759 357.754 55.9759ZM364.665 52.4659V57H363.179V49.3636H364.606V50.6065H364.7C364.876 50.2022 365.151 49.8774 365.526 49.6321C365.903 49.3868 366.379 49.2642 366.952 49.2642C367.473 49.2642 367.929 49.3736 368.32 49.5923C368.711 49.8078 369.014 50.1293 369.229 50.5568C369.445 50.9844 369.553 51.513 369.553 52.1428V57H368.066V52.3217C368.066 51.7682 367.922 51.3357 367.634 51.0241C367.345 50.7093 366.949 50.5518 366.445 50.5518C366.101 50.5518 365.794 50.6264 365.526 50.7756C365.26 50.9247 365.05 51.1435 364.894 51.4318C364.742 51.7169 364.665 52.0616 364.665 52.4659ZM374.763 57.1541C374.024 57.1541 373.387 56.9867 372.854 56.652C372.323 56.3139 371.916 55.8482 371.631 55.255C371.346 54.6617 371.203 53.9822 371.203 53.2166C371.203 52.4411 371.349 51.7566 371.641 51.1634C371.932 50.5668 372.343 50.1011 372.874 49.7663C373.404 49.4316 374.029 49.2642 374.748 49.2642C375.328 49.2642 375.845 49.3719 376.299 49.5874C376.753 49.7995 377.119 50.0978 377.398 50.4822C377.679 50.8667 377.847 51.3158 377.9 51.8295H376.453C376.374 51.4716 376.191 51.1634 375.906 50.9048C375.625 50.6463 375.247 50.517 374.773 50.517C374.358 50.517 373.996 50.6264 373.684 50.8452C373.376 51.0606 373.135 51.3688 372.963 51.7699C372.791 52.1676 372.705 52.6383 372.705 53.1818C372.705 53.7386 372.789 54.2192 372.958 54.6236C373.127 55.0279 373.366 55.3411 373.674 55.5632C373.986 55.7853 374.352 55.8963 374.773 55.8963C375.054 55.8963 375.31 55.8449 375.538 55.7422C375.77 55.6361 375.964 55.4853 376.12 55.2898C376.279 55.0942 376.39 54.8589 376.453 54.5838H377.9C377.847 55.0777 377.686 55.5185 377.418 55.9062C377.149 56.294 376.79 56.599 376.339 56.821C375.891 57.0431 375.366 57.1541 374.763 57.1541ZM382.781 57.1541C382.028 57.1541 381.38 56.9934 380.837 56.6719C380.297 56.3471 379.879 55.8913 379.584 55.3047C379.292 54.7147 379.146 54.0237 379.146 53.2315C379.146 52.4493 379.292 51.7599 379.584 51.1634C379.879 50.5668 380.29 50.1011 380.817 49.7663C381.347 49.4316 381.967 49.2642 382.676 49.2642C383.107 49.2642 383.525 49.3355 383.929 49.478C384.334 49.6205 384.696 49.8442 385.018 50.1491C385.339 50.4541 385.593 50.8501 385.779 51.3374C385.964 51.8213 386.057 52.4096 386.057 53.1023V53.6293H379.987V52.5156H384.6C384.6 52.1245 384.521 51.7782 384.362 51.4766C384.203 51.1716 383.979 50.9313 383.691 50.7557C383.405 50.58 383.071 50.4922 382.686 50.4922C382.269 50.4922 381.904 50.5949 381.593 50.8004C381.284 51.0026 381.046 51.2678 380.877 51.5959C380.711 51.9207 380.628 52.2737 380.628 52.6548V53.5249C380.628 54.0353 380.718 54.4695 380.896 54.8274C381.079 55.1854 381.332 55.4588 381.657 55.6477C381.982 55.8333 382.361 55.9261 382.796 55.9261C383.077 55.9261 383.334 55.8864 383.566 55.8068C383.798 55.724 383.999 55.6013 384.168 55.4389C384.337 55.2765 384.466 55.076 384.556 54.8374L385.963 55.0909C385.85 55.5052 385.648 55.8681 385.356 56.1797C385.068 56.4879 384.705 56.7282 384.267 56.9006C383.833 57.0696 383.338 57.1541 382.781 57.1541Z" fill="white"/>
<path d="M286.176 93.1818V71.3636H287.574V93.1818H286.176ZM290.207 78.3438C290.128 77.5994 289.793 77.0199 289.202 76.6051C288.616 76.1903 287.855 75.983 286.918 75.983C286.259 75.983 285.693 76.0824 285.222 76.2812C284.75 76.4801 284.389 76.75 284.139 77.0909C283.889 77.4318 283.761 77.821 283.756 78.2585C283.756 78.6222 283.838 78.9375 284.003 79.2045C284.173 79.4716 284.403 79.6989 284.693 79.8864C284.983 80.0682 285.304 80.2216 285.656 80.3466C286.009 80.4716 286.364 80.5767 286.722 80.6619L288.358 81.071C289.017 81.2244 289.651 81.4318 290.259 81.6932C290.872 81.9545 291.42 82.2841 291.903 82.6818C292.392 83.0795 292.778 83.5597 293.062 84.1222C293.347 84.6847 293.489 85.3437 293.489 86.0994C293.489 87.1222 293.227 88.0227 292.705 88.8011C292.182 89.5739 291.426 90.179 290.438 90.6165C289.455 91.0483 288.264 91.2642 286.866 91.2642C285.509 91.2642 284.33 91.054 283.33 90.6335C282.335 90.2131 281.557 89.5994 280.994 88.7926C280.438 87.9858 280.136 87.0028 280.091 85.8438H283.202C283.247 86.4517 283.435 86.9574 283.764 87.3608C284.094 87.7642 284.523 88.0653 285.051 88.2642C285.585 88.4631 286.182 88.5625 286.841 88.5625C287.528 88.5625 288.131 88.4602 288.648 88.2557C289.17 88.0455 289.58 87.7557 289.875 87.3864C290.17 87.0114 290.321 86.5739 290.327 86.0739C290.321 85.6193 290.188 85.2443 289.926 84.9489C289.665 84.6477 289.298 84.3977 288.827 84.1989C288.361 83.9943 287.815 83.8125 287.19 83.6534L285.205 83.142C283.767 82.7727 282.631 82.2131 281.795 81.4631C280.966 80.7074 280.551 79.7045 280.551 78.4545C280.551 77.4261 280.83 76.5256 281.386 75.7528C281.949 74.9801 282.713 74.3807 283.679 73.9545C284.645 73.5227 285.739 73.3068 286.96 73.3068C288.199 73.3068 289.284 73.5227 290.216 73.9545C291.153 74.3807 291.889 74.9744 292.423 75.7358C292.957 76.4915 293.233 77.3608 293.25 78.3438H290.207ZM295.822 87.7614V85.2472L303.228 73.5455H305.325V77.125H304.046L299.06 85.0256V85.1619H309.398V87.7614H295.822ZM304.148 91V86.9943L304.183 85.8693V73.5455H307.165V91H304.148ZM318.987 73.5455V91H315.825V76.6222H315.722L311.64 79.2301V76.3324L315.978 73.5455H318.987ZM326.114 88.6136L326.003 89.5511C325.923 90.267 325.781 90.9943 325.577 91.733C325.378 92.4773 325.168 93.1619 324.946 93.7869C324.724 94.4119 324.545 94.9034 324.409 95.2614H322.33C322.409 94.9148 322.517 94.4432 322.653 93.8466C322.795 93.25 322.932 92.5795 323.062 91.8352C323.193 91.0909 323.281 90.3352 323.327 89.5682L323.386 88.6136H326.114ZM335.214 91.2386C333.987 91.2386 332.896 91.0284 331.941 90.608C330.992 90.1875 330.242 89.6023 329.691 88.8523C329.14 88.1023 328.847 87.2358 328.813 86.2528H332.018C332.046 86.7244 332.202 87.1364 332.487 87.4886C332.771 87.8352 333.148 88.1051 333.62 88.2983C334.092 88.4915 334.62 88.5881 335.205 88.5881C335.83 88.5881 336.384 88.4801 336.867 88.2642C337.35 88.0426 337.728 87.7358 338.001 87.3438C338.273 86.9517 338.407 86.5 338.401 85.9886C338.407 85.4602 338.271 84.9943 337.992 84.5909C337.714 84.1875 337.31 83.8722 336.782 83.6449C336.259 83.4176 335.629 83.304 334.89 83.304H333.347V80.8665H334.89C335.498 80.8665 336.029 80.7614 336.484 80.5511C336.944 80.3409 337.305 80.0455 337.566 79.6648C337.827 79.2784 337.955 78.8324 337.95 78.3267C337.955 77.8324 337.844 77.4034 337.617 77.0398C337.396 76.6705 337.08 76.3835 336.671 76.179C336.268 75.9744 335.793 75.8722 335.248 75.8722C334.714 75.8722 334.219 75.9687 333.765 76.1619C333.31 76.3551 332.944 76.6307 332.665 76.9886C332.387 77.3409 332.239 77.7614 332.222 78.25H329.18C329.202 77.2727 329.484 76.4148 330.023 75.6761C330.569 74.9318 331.296 74.3523 332.205 73.9375C333.114 73.517 334.134 73.3068 335.265 73.3068C336.43 73.3068 337.441 73.5256 338.299 73.9631C339.163 74.3949 339.83 74.9773 340.302 75.7102C340.773 76.4432 341.009 77.2528 341.009 78.1392C341.015 79.1222 340.725 79.946 340.14 80.6108C339.56 81.2756 338.799 81.7102 337.856 81.9148V82.0511C339.083 82.2216 340.023 82.6761 340.677 83.4148C341.336 84.1477 341.663 85.0597 341.657 86.1506C341.657 87.1278 341.379 88.0028 340.822 88.7756C340.271 89.5426 339.509 90.1449 338.538 90.5824C337.572 91.0199 336.464 91.2386 335.214 91.2386ZM350.787 91.2386C349.52 91.2386 348.395 91.0256 347.412 90.5994C346.435 90.1733 345.668 89.5909 345.111 88.8523C344.56 88.108 344.287 87.2642 344.293 86.321C344.287 85.5881 344.446 84.9148 344.77 84.3011C345.094 83.6875 345.531 83.1761 346.082 82.767C346.639 82.3523 347.259 82.0881 347.94 81.9744V81.8551C347.043 81.6562 346.315 81.1989 345.759 80.483C345.207 79.7614 344.935 78.929 344.94 77.9858C344.935 77.0881 345.185 76.2869 345.69 75.5824C346.196 74.8778 346.889 74.3239 347.77 73.9205C348.651 73.5114 349.656 73.3068 350.787 73.3068C351.906 73.3068 352.903 73.5114 353.778 73.9205C354.659 74.3239 355.352 74.8778 355.858 75.5824C356.369 76.2869 356.625 77.0881 356.625 77.9858C356.625 78.929 356.344 79.7614 355.781 80.483C355.224 81.1989 354.506 81.6562 353.625 81.8551V81.9744C354.307 82.0881 354.92 82.3523 355.466 82.767C356.017 83.1761 356.455 83.6875 356.778 84.3011C357.108 84.9148 357.273 85.5881 357.273 86.321C357.273 87.2642 356.994 88.108 356.438 88.8523C355.881 89.5909 355.114 90.1733 354.136 90.5994C353.165 91.0256 352.048 91.2386 350.787 91.2386ZM350.787 88.8011C351.44 88.8011 352.009 88.6903 352.491 88.4688C352.974 88.2415 353.349 87.9233 353.616 87.5142C353.884 87.1051 354.02 86.6335 354.026 86.0994C354.02 85.5426 353.875 85.0511 353.591 84.625C353.313 84.1932 352.929 83.8551 352.44 83.6108C351.957 83.3665 351.406 83.2443 350.787 83.2443C350.162 83.2443 349.605 83.3665 349.116 83.6108C348.628 83.8551 348.241 84.1932 347.957 84.625C347.679 85.0511 347.543 85.5426 347.548 86.0994C347.543 86.6335 347.673 87.1051 347.94 87.5142C348.207 87.9176 348.582 88.233 349.065 88.4602C349.554 88.6875 350.128 88.8011 350.787 88.8011ZM350.787 80.8494C351.321 80.8494 351.793 80.7415 352.202 80.5256C352.616 80.3097 352.943 80.0085 353.182 79.6222C353.42 79.2358 353.543 78.7898 353.548 78.2841C353.543 77.7841 353.423 77.3466 353.19 76.9716C352.957 76.5909 352.634 76.2983 352.219 76.0938C351.804 75.8835 351.327 75.7784 350.787 75.7784C350.236 75.7784 349.75 75.8835 349.33 76.0938C348.915 76.2983 348.591 76.5909 348.358 76.9716C348.131 77.3466 348.02 77.7841 348.026 78.2841C348.02 78.7898 348.134 79.2358 348.366 79.6222C348.605 80.0028 348.932 80.304 349.347 80.5256C349.767 80.7415 350.247 80.8494 350.787 80.8494ZM360.075 91V88.7159L366.134 82.7756C366.714 82.1903 367.197 81.6705 367.583 81.2159C367.969 80.7614 368.259 80.321 368.452 79.8949C368.646 79.4687 368.742 79.0142 368.742 78.5312C368.742 77.9801 368.617 77.5085 368.367 77.1165C368.117 76.7188 367.773 76.4119 367.336 76.196C366.898 75.9801 366.401 75.8722 365.844 75.8722C365.271 75.8722 364.768 75.9915 364.336 76.2301C363.904 76.4631 363.569 76.7955 363.33 77.2273C363.097 77.6591 362.981 78.1733 362.981 78.7699H359.972C359.972 77.6619 360.225 76.6989 360.731 75.8807C361.237 75.0625 361.933 74.429 362.819 73.9801C363.711 73.5312 364.734 73.3068 365.887 73.3068C367.058 73.3068 368.086 73.5256 368.972 73.9631C369.859 74.4006 370.546 75 371.035 75.7614C371.529 76.5227 371.776 77.392 371.776 78.3693C371.776 79.0227 371.651 79.6648 371.401 80.2955C371.151 80.9261 370.711 81.625 370.08 82.392C369.455 83.1591 368.577 84.0881 367.447 85.179L364.438 88.2386V88.358H372.04V91H360.075ZM376.915 91.1875C376.398 91.1875 375.955 91.0057 375.586 90.642C375.217 90.2784 375.035 89.8352 375.04 89.3125C375.035 88.8011 375.217 88.3636 375.586 88C375.955 87.6364 376.398 87.4545 376.915 87.4545C377.415 87.4545 377.85 87.6364 378.219 88C378.594 88.3636 378.785 88.8011 378.79 89.3125C378.785 89.6591 378.694 89.9744 378.518 90.2585C378.347 90.5426 378.12 90.7699 377.836 90.9403C377.558 91.1051 377.251 91.1875 376.915 91.1875ZM387.49 91.2386C386.223 91.2386 385.098 91.0256 384.115 90.5994C383.138 90.1733 382.371 89.5909 381.814 88.8523C381.263 88.108 380.99 87.2642 380.996 86.321C380.99 85.5881 381.149 84.9148 381.473 84.3011C381.797 83.6875 382.234 83.1761 382.786 82.767C383.342 82.3523 383.962 82.0881 384.643 81.9744V81.8551C383.746 81.6562 383.018 81.1989 382.462 80.483C381.911 79.7614 381.638 78.929 381.643 77.9858C381.638 77.0881 381.888 76.2869 382.393 75.5824C382.899 74.8778 383.592 74.3239 384.473 73.9205C385.354 73.5114 386.359 73.3068 387.49 73.3068C388.609 73.3068 389.607 73.5114 390.482 73.9205C391.362 74.3239 392.055 74.8778 392.561 75.5824C393.072 76.2869 393.328 77.0881 393.328 77.9858C393.328 78.929 393.047 79.7614 392.484 80.483C391.928 81.1989 391.209 81.6562 390.328 81.8551V81.9744C391.01 82.0881 391.624 82.3523 392.169 82.767C392.72 83.1761 393.158 83.6875 393.482 84.3011C393.811 84.9148 393.976 85.5881 393.976 86.321C393.976 87.2642 393.697 88.108 393.141 88.8523C392.584 89.5909 391.817 90.1733 390.839 90.5994C389.868 91.0256 388.751 91.2386 387.49 91.2386ZM387.49 88.8011C388.143 88.8011 388.712 88.6903 389.195 88.4688C389.678 88.2415 390.053 87.9233 390.32 87.5142C390.587 87.1051 390.723 86.6335 390.729 86.0994C390.723 85.5426 390.578 85.0511 390.294 84.625C390.016 84.1932 389.632 83.8551 389.143 83.6108C388.661 83.3665 388.109 83.2443 387.49 83.2443C386.865 83.2443 386.308 83.3665 385.82 83.6108C385.331 83.8551 384.945 84.1932 384.661 84.625C384.382 85.0511 384.246 85.5426 384.251 86.0994C384.246 86.6335 384.376 87.1051 384.643 87.5142C384.911 87.9176 385.286 88.233 385.768 88.4602C386.257 88.6875 386.831 88.8011 387.49 88.8011ZM387.49 80.8494C388.024 80.8494 388.496 80.7415 388.905 80.5256C389.32 80.3097 389.646 80.0085 389.885 79.6222C390.124 79.2358 390.246 78.7898 390.251 78.2841C390.246 77.7841 390.126 77.3466 389.893 76.9716C389.661 76.5909 389.337 76.2983 388.922 76.0938C388.507 75.8835 388.03 75.7784 387.49 75.7784C386.939 75.7784 386.453 75.8835 386.033 76.0938C385.618 76.2983 385.294 76.5909 385.061 76.9716C384.834 77.3466 384.723 77.7841 384.729 78.2841C384.723 78.7898 384.837 79.2358 385.07 79.6222C385.308 80.0028 385.635 80.304 386.05 80.5256C386.47 80.7415 386.95 80.8494 387.49 80.8494ZM403.229 91.3324C401.826 91.3324 400.621 90.9773 399.616 90.267C398.616 89.5511 397.846 88.5199 397.306 87.1733C396.772 85.821 396.505 84.1932 396.505 82.2898C396.511 80.3864 396.781 78.767 397.315 77.4318C397.854 76.0909 398.624 75.0682 399.624 74.3636C400.63 73.6591 401.832 73.3068 403.229 73.3068C404.627 73.3068 405.829 73.6591 406.835 74.3636C407.84 75.0682 408.61 76.0909 409.144 77.4318C409.684 78.7727 409.954 80.392 409.954 82.2898C409.954 84.1989 409.684 85.8295 409.144 87.1818C408.61 88.5284 407.84 89.5568 406.835 90.267C405.835 90.9773 404.633 91.3324 403.229 91.3324ZM403.229 88.6648C404.32 88.6648 405.181 88.1278 405.812 87.054C406.448 85.9744 406.766 84.3864 406.766 82.2898C406.766 80.9034 406.621 79.7386 406.332 78.7955C406.042 77.8523 405.633 77.142 405.104 76.6648C404.576 76.1818 403.951 75.9403 403.229 75.9403C402.144 75.9403 401.286 76.4801 400.656 77.5597C400.025 78.6335 399.707 80.2102 399.701 82.2898C399.695 83.6818 399.835 84.8523 400.119 85.8011C400.408 86.75 400.817 87.4659 401.346 87.9489C401.874 88.4261 402.502 88.6648 403.229 88.6648Z" fill="white"/>
</g>
</g>
<defs>
<filter id="filter0_dd_35_1120" x="0" y="0" width="455" height="137" filterUnits="userSpaceOnUse" color-interpolation-filters="sRGB">
<feFlood flood-opacity="0" result="BackgroundImageFix"/>
<feColorMatrix in="SourceAlpha" type="matrix" values="0 0 0 0 0 0 0 0 0 0 0 0 0 0 0 0 0 0 127 0" result="hardAlpha"/>
<feOffset dy="1"/>
<feGaussianBlur stdDeviation="1"/>
<feColorMatrix type="matrix" values="0 0 0 0 0.0627451 0 0 0 0 0.0941176 0 0 0 0 0.156863 0 0 0 0.06 0"/>
<feBlend mode="normal" in2="BackgroundImageFix" result="effect1_dropShadow_35_1120"/>
<feColorMatrix in="SourceAlpha" type="matrix" values="0 0 0 0 0 0 0 0 0 0 0 0 0 0 0 0 0 0 127 0" result="hardAlpha"/>
<feOffset dy="1"/>
<feGaussianBlur stdDeviation="1.5"/>
<feColorMatrix type="matrix" values="0 0 0 0 0.0627451 0 0 0 0 0.0941176 0 0 0 0 0.156863 0 0 0 0.1 0"/>
<feBlend mode="normal" in2="effect1_dropShadow_35_1120" result="effect2_dropShadow_35_1120"/>
<feBlend mode="normal" in="SourceGraphic" in2="effect2_dropShadow_35_1120" result="shape"/>
</filter>
<filter id="filter1_b_35_1120" x="239" y="2" width="213" height="136" filterUnits="userSpaceOnUse" color-interpolation-filters="sRGB">
<feFlood flood-opacity="0" result="BackgroundImageFix"/>
<feGaussianBlur in="BackgroundImageFix" stdDeviation="12"/>
<feComposite in2="SourceAlpha" operator="in" result="effect1_backgroundBlur_35_1120"/>
<feBlend mode="normal" in="SourceGraphic" in2="effect1_backgroundBlur_35_1120" result="shape"/>
</filter>
</defs>
</svg>
