<svg width="455" height="137" viewBox="0 0 455 137" fill="none" xmlns="http://www.w3.org/2000/svg">
<g filter="url(#filter0_dd_35_1176)">
<rect x="3" y="2" width="449" height="131" rx="12" fill="#D9569D"/>
<path d="M41.098 31.5469H37.9872C37.9304 31.1444 37.8144 30.7869 37.6392 30.4744C37.464 30.1572 37.2391 29.8873 36.9645 29.6648C36.6899 29.4422 36.3726 29.2718 36.0128 29.1534C35.6577 29.035 35.2718 28.9759 34.8551 28.9759C34.1023 28.9759 33.4465 29.1629 32.8878 29.5369C32.3291 29.9062 31.8958 30.446 31.5881 31.1562C31.2803 31.8617 31.1264 32.7187 31.1264 33.7273C31.1264 34.7642 31.2803 35.6354 31.5881 36.3409C31.9006 37.0464 32.3362 37.5791 32.8949 37.9389C33.4536 38.2988 34.0999 38.4787 34.8338 38.4787C35.2457 38.4787 35.6269 38.4242 35.9773 38.3153C36.3324 38.2064 36.6473 38.0478 36.9219 37.8395C37.1965 37.6264 37.4238 37.3684 37.6037 37.0653C37.7884 36.7623 37.9162 36.4167 37.9872 36.0284L41.098 36.0426C41.0175 36.7102 40.8163 37.3542 40.4943 37.9744C40.1771 38.59 39.7486 39.1416 39.2088 39.6293C38.6738 40.1122 38.0346 40.4957 37.2912 40.7798C36.5526 41.0592 35.7169 41.1989 34.7841 41.1989C33.4867 41.1989 32.3267 40.9053 31.304 40.3182C30.286 39.7311 29.4811 38.8812 28.8892 37.7685C28.3021 36.6558 28.0085 35.3087 28.0085 33.7273C28.0085 32.1411 28.3068 30.7917 28.9034 29.679C29.5 28.5663 30.3097 27.7187 31.3324 27.1364C32.3551 26.5492 33.5057 26.2557 34.7841 26.2557C35.6269 26.2557 36.4081 26.3741 37.1278 26.6108C37.8523 26.8475 38.4938 27.1932 39.0526 27.6477C39.6113 28.0975 40.0658 28.6491 40.4162 29.3026C40.7713 29.956 40.9986 30.7041 41.098 31.5469ZM43.2464 41V30.0909H46.272V41H43.2464ZM44.7663 28.6847C44.3165 28.6847 43.9306 28.5355 43.6087 28.2372C43.2914 27.9342 43.1328 27.572 43.1328 27.1506C43.1328 26.7339 43.2914 26.3764 43.6087 26.0781C43.9306 25.7751 44.3165 25.6236 44.7663 25.6236C45.2161 25.6236 45.5997 25.7751 45.9169 26.0781C46.2389 26.3764 46.3999 26.7339 46.3999 27.1506C46.3999 27.572 46.2389 27.9342 45.9169 28.2372C45.5997 28.5355 45.2161 28.6847 44.7663 28.6847ZM54.4982 30.0909V32.3636H47.9286V30.0909H54.4982ZM49.4201 27.4773H52.4457V37.6477C52.4457 37.9271 52.4883 38.1449 52.5735 38.3011C52.6587 38.4527 52.7771 38.5592 52.9286 38.6207C53.0849 38.6823 53.2648 38.7131 53.4684 38.7131C53.6104 38.7131 53.7525 38.7012 53.8945 38.6776C54.0366 38.6491 54.1455 38.6278 54.2212 38.6136L54.6971 40.8651C54.5456 40.9124 54.3325 40.9669 54.0579 41.0284C53.7833 41.0947 53.4495 41.1349 53.0565 41.1491C52.3273 41.1776 51.6881 41.0805 51.1388 40.858C50.5943 40.6354 50.1706 40.2898 49.8675 39.821C49.5645 39.3523 49.4154 38.7604 49.4201 38.0455V27.4773ZM56.4691 41V30.0909H59.4947V41H56.4691ZM57.989 28.6847C57.5392 28.6847 57.1533 28.5355 56.8313 28.2372C56.5141 27.9342 56.3555 27.572 56.3555 27.1506C56.3555 26.7339 56.5141 26.3764 56.8313 26.0781C57.1533 25.7751 57.5392 25.6236 57.989 25.6236C58.4388 25.6236 58.8223 25.7751 59.1396 26.0781C59.4615 26.3764 59.6225 26.7339 59.6225 27.1506C59.6225 27.572 59.4615 27.9342 59.1396 28.2372C58.8223 28.5355 58.4388 28.6847 57.989 28.6847ZM61.9751 41V26.4545H65.0007V31.9233H65.093C65.2256 31.6297 65.4174 31.3314 65.6683 31.0284C65.924 30.7206 66.2554 30.465 66.6626 30.2614C67.0746 30.053 67.5859 29.9489 68.1967 29.9489C68.9922 29.9489 69.7261 30.1572 70.3984 30.5739C71.0708 30.9858 71.6082 31.6084 72.0107 32.4418C72.4131 33.2704 72.6143 34.3097 72.6143 35.5597C72.6143 36.7765 72.4179 37.804 72.0249 38.642C71.6366 39.4754 71.1063 40.1075 70.4339 40.5384C69.7663 40.9645 69.0182 41.1776 68.1896 41.1776C67.6025 41.1776 67.103 41.0805 66.6911 40.8864C66.2839 40.6922 65.95 40.4484 65.6896 40.1548C65.4292 39.8565 65.2304 39.5559 65.093 39.2528H64.9581V41H61.9751ZM64.9368 35.5455C64.9368 36.1941 65.0268 36.7599 65.2067 37.2429C65.3866 37.7259 65.647 38.1023 65.9879 38.3722C66.3288 38.6373 66.7431 38.7699 67.2308 38.7699C67.7232 38.7699 68.1399 38.6349 68.4808 38.3651C68.8217 38.0904 69.0798 37.7116 69.255 37.2287C69.4349 36.741 69.5249 36.1799 69.5249 35.5455C69.5249 34.9157 69.4373 34.3617 69.2621 33.8835C69.0869 33.4053 68.8288 33.0312 68.4879 32.7614C68.147 32.4915 67.728 32.3565 67.2308 32.3565C66.7384 32.3565 66.3217 32.4867 65.9808 32.7472C65.6446 33.0076 65.3866 33.3769 65.2067 33.8551C65.0268 34.3333 64.9368 34.8968 64.9368 35.5455ZM77.744 41.206C77.0479 41.206 76.4277 41.0852 75.8832 40.8438C75.3387 40.5975 74.9078 40.2353 74.5906 39.7571C74.2781 39.2741 74.1218 38.6728 74.1218 37.9531C74.1218 37.3471 74.2331 36.8381 74.4556 36.4261C74.6781 36.0142 74.9812 35.6828 75.3647 35.4318C75.7482 35.1809 76.1838 34.9915 76.6715 34.8636C77.1639 34.7358 77.68 34.6458 78.2198 34.5938C78.8543 34.5275 79.3656 34.4659 79.7539 34.4091C80.1422 34.3475 80.4239 34.2576 80.5991 34.1392C80.7743 34.0208 80.8619 33.8456 80.8619 33.6136V33.571C80.8619 33.1212 80.7198 32.7732 80.4357 32.527C80.1564 32.2808 79.7586 32.1577 79.2425 32.1577C78.698 32.1577 78.2648 32.2784 77.9428 32.5199C77.6209 32.7566 77.4078 33.0549 77.3036 33.4148L74.5053 33.1875C74.6474 32.5246 74.9267 31.9517 75.3434 31.4688C75.7601 30.9811 76.2975 30.607 76.9556 30.3466C77.6185 30.0814 78.3855 29.9489 79.2567 29.9489C79.8628 29.9489 80.4428 30.0199 80.9968 30.1619C81.5555 30.304 82.0503 30.5241 82.4812 30.8224C82.9168 31.1207 83.2601 31.5043 83.511 31.973C83.762 32.437 83.8874 32.9934 83.8874 33.642V41H81.0181V39.4872H80.9329C80.7577 39.8281 80.5233 40.1288 80.2298 40.3892C79.9362 40.6449 79.5835 40.8461 79.1715 40.9929C78.7596 41.1349 78.2837 41.206 77.744 41.206ZM78.6104 39.1179C79.0555 39.1179 79.4485 39.0303 79.7894 38.8551C80.1303 38.6752 80.3978 38.4337 80.592 38.1307C80.7861 37.8277 80.8832 37.4844 80.8832 37.1009V35.9432C80.7885 36.0047 80.6583 36.0616 80.4925 36.1136C80.3316 36.161 80.1493 36.206 79.9457 36.2486C79.7421 36.2865 79.5385 36.322 79.3349 36.3551C79.1313 36.3835 78.9466 36.4096 78.7809 36.4332C78.4258 36.4853 78.1156 36.5682 77.8505 36.6818C77.5853 36.7955 77.3794 36.9493 77.2326 37.1435C77.0858 37.3329 77.0124 37.5696 77.0124 37.8537C77.0124 38.2656 77.1616 38.5805 77.4599 38.7983C77.7629 39.0114 78.1464 39.1179 78.6104 39.1179ZM89.2603 34.6932V41H86.2347V30.0909H89.1183V32.0156H89.2461C89.4876 31.3812 89.8924 30.8793 90.4606 30.5099C91.0288 30.1359 91.7177 29.9489 92.5273 29.9489C93.2849 29.9489 93.9454 30.1146 94.5089 30.446C95.0723 30.7775 95.5103 31.2509 95.8228 31.8665C96.1353 32.4773 96.2915 33.2064 96.2915 34.054V41H93.266V34.5938C93.2707 33.9261 93.1003 33.4053 92.7546 33.0312C92.409 32.6525 91.9331 32.4631 91.3271 32.4631C90.9199 32.4631 90.56 32.5507 90.2475 32.7259C89.9397 32.901 89.6983 33.1567 89.5231 33.4929C89.3526 33.8243 89.265 34.2244 89.2603 34.6932ZM101.418 37.8608L101.425 34.2315H101.865L105.359 30.0909H108.832L104.138 35.5739H103.42L101.418 37.8608ZM98.6761 41V26.4545H101.702V41H98.6761ZM105.494 41L102.284 36.2486L104.301 34.1108L109.038 41H105.494Z" fill="white"/>
<path d="M27.9787 74V73.169L31.0994 69.7528C31.4657 69.3527 31.7673 69.005 32.0043 68.7095C32.2412 68.411 32.4167 68.1309 32.5305 67.8693C32.6475 67.6046 32.706 67.3277 32.706 67.0384C32.706 66.706 32.6259 66.4182 32.4659 66.1751C32.3089 65.9319 32.0935 65.7442 31.8196 65.6119C31.5457 65.4795 31.2379 65.4134 30.8963 65.4134C30.5331 65.4134 30.2161 65.4888 29.9453 65.6396C29.6776 65.7873 29.4698 65.995 29.3221 66.2628C29.1774 66.5305 29.1051 66.8445 29.1051 67.2045H28.0156C28.0156 66.6506 28.1433 66.1643 28.3988 65.7457C28.6542 65.3272 29.002 65.0009 29.4421 64.767C29.8853 64.5331 30.3823 64.4162 30.9332 64.4162C31.4872 64.4162 31.9781 64.5331 32.4059 64.767C32.8337 65.0009 33.1692 65.3164 33.4123 65.7134C33.6554 66.1104 33.777 66.5521 33.777 67.0384C33.777 67.3861 33.7139 67.7262 33.5877 68.0586C33.4646 68.3879 33.2492 68.7557 32.9414 69.1619C32.6367 69.5651 32.2135 70.0575 31.6719 70.6392L29.5483 72.9105V72.9844H33.9432V74H27.9787ZM38.9336 74.1293C38.238 74.1293 37.6456 73.94 37.1562 73.5614C36.6669 73.1798 36.293 72.6274 36.0344 71.9041C35.7759 71.1778 35.6467 70.3007 35.6467 69.2727C35.6467 68.2509 35.7759 67.3784 36.0344 66.6552C36.296 65.9289 36.6715 65.3749 37.1609 64.9933C37.6533 64.6085 38.2442 64.4162 38.9336 64.4162C39.623 64.4162 40.2124 64.6085 40.7017 64.9933C41.1941 65.3749 41.5696 65.9289 41.8281 66.6552C42.0897 67.3784 42.2205 68.2509 42.2205 69.2727C42.2205 70.3007 42.0913 71.1778 41.8327 71.9041C41.5742 72.6274 41.2003 73.1798 40.7109 73.5614C40.2216 73.94 39.6291 74.1293 38.9336 74.1293ZM38.9336 73.1136C39.623 73.1136 40.1585 72.7812 40.5401 72.1165C40.9218 71.4517 41.1126 70.5038 41.1126 69.2727C41.1126 68.4541 41.0249 67.757 40.8494 67.1815C40.6771 66.6059 40.4278 66.1674 40.1016 65.8658C39.7784 65.5642 39.3891 65.4134 38.9336 65.4134C38.2504 65.4134 37.7164 65.7504 37.3317 66.4244C36.947 67.0953 36.7546 68.0447 36.7546 69.2727C36.7546 70.0914 36.8408 70.7869 37.0131 71.3594C37.1855 71.9318 37.4332 72.3673 37.7564 72.6658C38.0826 72.9644 38.475 73.1136 38.9336 73.1136ZM43.9748 74V73.169L47.0955 69.7528C47.4618 69.3527 47.7634 69.005 48.0004 68.7095C48.2373 68.411 48.4128 68.1309 48.5266 67.8693C48.6436 67.6046 48.7021 67.3277 48.7021 67.0384C48.7021 66.706 48.622 66.4182 48.462 66.1751C48.305 65.9319 48.0896 65.7442 47.8157 65.6119C47.5418 65.4795 47.234 65.4134 46.8924 65.4134C46.5292 65.4134 46.2122 65.4888 45.9414 65.6396C45.6737 65.7873 45.4659 65.995 45.3182 66.2628C45.1735 66.5305 45.1012 66.8445 45.1012 67.2045H44.0117C44.0117 66.6506 44.1394 66.1643 44.3949 65.7457C44.6503 65.3272 44.9981 65.0009 45.4382 64.767C45.8814 64.5331 46.3784 64.4162 46.9293 64.4162C47.4833 64.4162 47.9742 64.5331 48.402 64.767C48.8298 65.0009 49.1652 65.3164 49.4084 65.7134C49.6515 66.1104 49.7731 66.5521 49.7731 67.0384C49.7731 67.3861 49.71 67.7262 49.5838 68.0586C49.4607 68.3879 49.2453 68.7557 48.9375 69.1619C48.6328 69.5651 48.2096 70.0575 47.668 70.6392L45.5444 72.9105V72.9844H49.9393V74H43.9748ZM51.4212 72.0611V71.1193L55.576 64.5455H56.2592V66.0043H55.7976L52.6584 70.9716V71.0455H58.2536V72.0611H51.4212ZM55.8714 74V71.7749V71.3363V64.5455H56.9609V74H55.8714ZM63.806 74V64.5455H64.9509V68.7557H69.9921V64.5455H71.137V74H69.9921V69.7713H64.9509V74H63.806ZM76.162 74.1477C75.5219 74.1477 74.9602 73.9954 74.477 73.6907C73.9969 73.386 73.6214 72.9598 73.3506 72.4119C73.0828 71.8641 72.949 71.224 72.949 70.4915C72.949 69.7528 73.0828 69.1081 73.3506 68.5572C73.6214 68.0063 73.9969 67.5785 74.477 67.2738C74.9602 66.9691 75.5219 66.8168 76.162 66.8168C76.8022 66.8168 77.3623 66.9691 77.8424 67.2738C78.3256 67.5785 78.7011 68.0063 78.9688 68.5572C79.2397 69.1081 79.3751 69.7528 79.3751 70.4915C79.3751 71.224 79.2397 71.8641 78.9688 72.4119C78.7011 72.9598 78.3256 73.386 77.8424 73.6907C77.3623 73.9954 76.8022 74.1477 76.162 74.1477ZM76.162 73.169C76.6483 73.169 77.0484 73.0444 77.3623 72.7951C77.6762 72.5458 77.9086 72.218 78.0594 71.8118C78.2102 71.4055 78.2856 70.9654 78.2856 70.4915C78.2856 70.0175 78.2102 69.5759 78.0594 69.1665C77.9086 68.7572 77.6762 68.4264 77.3623 68.174C77.0484 67.9216 76.6483 67.7955 76.162 67.7955C75.6758 67.7955 75.2757 67.9216 74.9617 68.174C74.6478 68.4264 74.4155 68.7572 74.2646 69.1665C74.1138 69.5759 74.0384 70.0175 74.0384 70.4915C74.0384 70.9654 74.1138 71.4055 74.2646 71.8118C74.4155 72.218 74.6478 72.5458 74.9617 72.7951C75.2757 73.0444 75.6758 73.169 76.162 73.169ZM82.1277 64.5455V74H81.0382V64.5455H82.1277ZM84.1231 74V66.9091H85.2126V74H84.1231ZM84.6771 65.7273C84.4648 65.7273 84.2816 65.6549 84.1278 65.5103C83.9769 65.3656 83.9015 65.1918 83.9015 64.9886C83.9015 64.7855 83.9769 64.6116 84.1278 64.467C84.2816 64.3223 84.4648 64.25 84.6771 64.25C84.8895 64.25 85.0711 64.3223 85.2219 64.467C85.3757 64.6116 85.4527 64.7855 85.4527 64.9886C85.4527 65.1918 85.3757 65.3656 85.2219 65.5103C85.0711 65.6549 84.8895 65.7273 84.6771 65.7273ZM89.8857 74.1477C89.2947 74.1477 88.7731 73.9985 88.3207 73.6999C87.8683 73.3983 87.5143 72.9736 87.2589 72.4258C87.0034 71.8749 86.8757 71.224 86.8757 70.473C86.8757 69.7282 87.0034 69.0819 87.2589 68.5341C87.5143 67.9863 87.8698 67.5631 88.3253 67.2646C88.7808 66.966 89.3071 66.8168 89.9041 66.8168C90.3658 66.8168 90.7305 66.8937 90.9982 67.0476C91.2691 67.1984 91.4753 67.3707 91.6168 67.5646C91.7615 67.7554 91.8738 67.9124 91.9538 68.0355H92.0462V64.5455H93.1357V74H92.0831V72.9105H91.9538C91.8738 73.0398 91.7599 73.2029 91.6122 73.3999C91.4645 73.5937 91.2537 73.7676 90.9798 73.9215C90.7058 74.0723 90.3411 74.1477 89.8857 74.1477ZM90.0334 73.169C90.4704 73.169 90.8397 73.0552 91.1413 72.8274C91.4429 72.5966 91.6722 72.2781 91.8292 71.8718C91.9862 71.4625 92.0646 70.9901 92.0646 70.4545C92.0646 69.9252 91.9877 69.462 91.8338 69.065C91.6799 68.6649 91.4522 68.354 91.1506 68.1325C90.849 67.9078 90.4766 67.7955 90.0334 67.7955C89.5717 67.7955 89.187 67.9139 88.8793 68.1509C88.5746 68.3848 88.3453 68.7034 88.1914 69.1065C88.0406 69.5066 87.9652 69.956 87.9652 70.4545C87.9652 70.9593 88.0421 71.4179 88.196 71.8303C88.353 72.2396 88.5838 72.5658 88.8885 72.8089C89.1963 73.049 89.5779 73.169 90.0334 73.169ZM97.369 74.1662C96.9196 74.1662 96.5118 74.0816 96.1456 73.9123C95.7794 73.7399 95.4885 73.4922 95.2731 73.169C95.0576 72.8428 94.9499 72.4489 94.9499 71.9872C94.9499 71.581 95.0299 71.2517 95.19 70.9993C95.35 70.7438 95.5639 70.5438 95.8317 70.3991C96.0994 70.2545 96.3949 70.1468 96.718 70.076C97.0443 70.0021 97.372 69.9437 97.7013 69.9006C98.1322 69.8452 98.4815 69.8036 98.7493 69.7759C99.0201 69.7451 99.2171 69.6944 99.3402 69.6236C99.4664 69.5528 99.5295 69.4297 99.5295 69.2543V69.2173C99.5295 68.7618 99.4048 68.4079 99.1555 68.1555C98.9093 67.9032 98.5354 67.777 98.0337 67.777C97.5136 67.777 97.1058 67.8909 96.8104 68.1186C96.5149 68.3464 96.3072 68.5895 96.1871 68.848L95.1531 68.4787C95.3377 68.0478 95.5839 67.7124 95.8917 67.4723C96.2025 67.2292 96.5411 67.0599 96.9073 66.9645C97.2766 66.866 97.6398 66.8168 97.9968 66.8168C98.2246 66.8168 98.4862 66.8445 98.7816 66.8999C99.0801 66.9522 99.3679 67.0614 99.6449 67.2276C99.925 67.3938 100.157 67.6446 100.342 67.9801C100.527 68.3156 100.619 68.7649 100.619 69.3281V74H99.5295V73.0398H99.4741C99.4002 73.1937 99.2771 73.3583 99.1048 73.5337C98.9324 73.7092 98.7031 73.8584 98.4169 73.9815C98.1307 74.1046 97.7814 74.1662 97.369 74.1662ZM97.5352 73.1875C97.966 73.1875 98.3292 73.1029 98.6246 72.9336C98.9232 72.7643 99.1478 72.5458 99.2987 72.2781C99.4525 72.0103 99.5295 71.7287 99.5295 71.4332V70.4361C99.4833 70.4915 99.3817 70.5423 99.2248 70.5884C99.0709 70.6315 98.8924 70.67 98.6893 70.7038C98.4892 70.7346 98.2938 70.7623 98.103 70.7869C97.9152 70.8085 97.7629 70.8269 97.646 70.8423C97.3628 70.8793 97.0981 70.9393 96.8519 71.0224C96.6088 71.1024 96.4118 71.224 96.261 71.3871C96.1133 71.5471 96.0394 71.7656 96.0394 72.0426C96.0394 72.4212 96.1795 72.7074 96.4595 72.9013C96.7427 73.0921 97.1012 73.1875 97.5352 73.1875ZM103.055 76.6591C102.871 76.6591 102.706 76.6437 102.561 76.6129C102.417 76.5852 102.317 76.5575 102.261 76.5298L102.538 75.5696C102.803 75.6373 103.037 75.6619 103.24 75.6435C103.443 75.625 103.623 75.5342 103.78 75.3711C103.94 75.2111 104.086 74.951 104.219 74.5909L104.422 74.0369L101.8 66.9091H102.981L104.939 72.5597H105.013L106.97 66.9091H108.152L105.142 75.0341C105.007 75.4003 104.839 75.7035 104.639 75.9435C104.439 76.1867 104.206 76.3667 103.942 76.4837C103.68 76.6006 103.385 76.6591 103.055 76.6591ZM116.219 74.1477C115.536 74.1477 114.947 73.9969 114.451 73.6953C113.959 73.3906 113.579 72.9659 113.311 72.4212C113.046 71.8733 112.914 71.2363 112.914 70.5099C112.914 69.7836 113.046 69.1435 113.311 68.5895C113.579 68.0324 113.951 67.5985 114.428 67.2876C114.908 66.9737 115.468 66.8168 116.108 66.8168C116.478 66.8168 116.842 66.8783 117.203 67.0014C117.563 67.1245 117.89 67.3246 118.186 67.6016C118.481 67.8755 118.717 68.2386 118.892 68.6911C119.068 69.1435 119.155 69.7005 119.155 70.3622V70.8239H113.689V69.8821H118.047C118.047 69.482 117.967 69.125 117.807 68.8111C117.65 68.4972 117.426 68.2494 117.133 68.0678C116.844 67.8862 116.502 67.7955 116.108 67.7955C115.674 67.7955 115.299 67.9032 114.982 68.1186C114.668 68.331 114.426 68.608 114.257 68.9496C114.088 69.2912 114.003 69.6574 114.003 70.0483V70.6761C114.003 71.2116 114.096 71.6656 114.28 72.038C114.468 72.4073 114.728 72.6889 115.06 72.8828C115.393 73.0736 115.779 73.169 116.219 73.169C116.505 73.169 116.764 73.129 116.995 73.049C117.229 72.9659 117.43 72.8428 117.6 72.6797C117.769 72.5135 117.9 72.3073 117.992 72.0611L119.044 72.3565C118.934 72.7135 118.747 73.0275 118.486 73.2983C118.224 73.5661 117.901 73.7753 117.516 73.9261C117.132 74.0739 116.699 74.1477 116.219 74.1477ZM121.435 66.9091L123.134 69.8082L124.832 66.9091H126.088L123.798 70.4545L126.088 74H124.832L123.134 71.2486L121.435 74H120.179L122.432 70.4545L120.179 66.9091H121.435ZM127.643 76.6591V66.9091H128.695V68.0355H128.824C128.905 67.9124 129.015 67.7554 129.157 67.5646C129.302 67.3707 129.508 67.1984 129.775 67.0476C130.046 66.8937 130.413 66.8168 130.874 66.8168C131.471 66.8168 131.998 66.966 132.453 67.2646C132.909 67.5631 133.264 67.9863 133.519 68.5341C133.775 69.0819 133.903 69.7282 133.903 70.473C133.903 71.224 133.775 71.8749 133.519 72.4258C133.264 72.9736 132.91 73.3983 132.458 73.6999C132.005 73.9985 131.484 74.1477 130.893 74.1477C130.437 74.1477 130.072 74.0723 129.799 73.9215C129.525 73.7676 129.314 73.5937 129.166 73.3999C129.018 73.2029 128.905 73.0398 128.824 72.9105H128.732V76.6591H127.643ZM128.714 70.4545C128.714 70.9901 128.792 71.4625 128.949 71.8718C129.106 72.2781 129.335 72.5966 129.637 72.8274C129.939 73.0552 130.308 73.169 130.745 73.169C131.2 73.169 131.581 73.049 131.885 72.8089C132.193 72.5658 132.424 72.2396 132.578 71.8303C132.735 71.4179 132.813 70.9593 132.813 70.4545C132.813 69.956 132.736 69.5066 132.582 69.1065C132.431 68.7034 132.202 68.3848 131.894 68.1509C131.59 67.9139 131.207 67.7955 130.745 67.7955C130.302 67.7955 129.929 67.9078 129.628 68.1325C129.326 68.354 129.098 68.6649 128.945 69.065C128.791 69.462 128.714 69.9252 128.714 70.4545ZM138.538 74.1477C137.854 74.1477 137.265 73.9969 136.769 73.6953C136.277 73.3906 135.897 72.9659 135.629 72.4212C135.364 71.8733 135.232 71.2363 135.232 70.5099C135.232 69.7836 135.364 69.1435 135.629 68.5895C135.897 68.0324 136.269 67.5985 136.746 67.2876C137.226 66.9737 137.787 66.8168 138.427 66.8168C138.796 66.8168 139.161 66.8783 139.521 67.0014C139.881 67.1245 140.209 67.3246 140.504 67.6016C140.8 67.8755 141.035 68.2386 141.21 68.6911C141.386 69.1435 141.474 69.7005 141.474 70.3622V70.8239H136.008V69.8821H140.366C140.366 69.482 140.286 69.125 140.126 68.8111C139.969 68.4972 139.744 68.2494 139.452 68.0678C139.162 67.8862 138.821 67.7955 138.427 67.7955C137.993 67.7955 137.617 67.9032 137.3 68.1186C136.986 68.331 136.745 68.608 136.576 68.9496C136.406 69.2912 136.322 69.6574 136.322 70.0483V70.6761C136.322 71.2116 136.414 71.6656 136.599 72.038C136.786 72.4073 137.046 72.6889 137.379 72.8828C137.711 73.0736 138.097 73.169 138.538 73.169C138.824 73.169 139.082 73.129 139.313 73.049C139.547 72.9659 139.749 72.8428 139.918 72.6797C140.087 72.5135 140.218 72.3073 140.31 72.0611L141.363 72.3565C141.252 72.7135 141.066 73.0275 140.804 73.2983C140.543 73.5661 140.219 73.7753 139.835 73.9261C139.45 74.0739 139.018 74.1477 138.538 74.1477ZM144.22 69.7344V74H143.131V66.9091H144.184V68.017H144.276C144.442 67.657 144.694 67.3677 145.033 67.1491C145.371 66.9276 145.809 66.8168 146.344 66.8168C146.824 66.8168 147.244 66.9152 147.604 67.1122C147.964 67.3061 148.244 67.6016 148.445 67.9986C148.645 68.3925 148.745 68.8911 148.745 69.4943V74H147.655V69.5682C147.655 69.0111 147.51 68.5772 147.221 68.2663C146.932 67.9524 146.535 67.7955 146.03 67.7955C145.682 67.7955 145.371 67.8709 145.098 68.0217C144.827 68.1725 144.613 68.3925 144.456 68.6818C144.299 68.9711 144.22 69.322 144.22 69.7344ZM155.758 68.4972L154.779 68.7741C154.718 68.611 154.627 68.4525 154.507 68.2987C154.39 68.1417 154.23 68.0124 154.027 67.9109C153.824 67.8093 153.564 67.7585 153.247 67.7585C152.813 67.7585 152.451 67.8585 152.162 68.0586C151.876 68.2556 151.733 68.5064 151.733 68.8111C151.733 69.0819 151.831 69.2958 152.028 69.4528C152.225 69.6097 152.533 69.7405 152.951 69.8452L154.004 70.1037C154.638 70.2576 155.11 70.493 155.421 70.81C155.732 71.1239 155.887 71.5286 155.887 72.0241C155.887 72.4304 155.77 72.7936 155.537 73.1136C155.306 73.4337 154.983 73.6861 154.567 73.8707C154.152 74.0554 153.668 74.1477 153.118 74.1477C152.394 74.1477 151.796 73.9908 151.322 73.6768C150.848 73.3629 150.548 72.9044 150.422 72.3011L151.456 72.0426C151.554 72.4242 151.74 72.7105 152.014 72.9013C152.291 73.0921 152.653 73.1875 153.099 73.1875C153.607 73.1875 154.01 73.0798 154.309 72.8643C154.61 72.6458 154.761 72.3842 154.761 72.0795C154.761 71.8333 154.675 71.6271 154.502 71.4609C154.33 71.2917 154.065 71.1655 153.708 71.0824L152.527 70.8054C151.877 70.6515 151.4 70.413 151.096 70.0898C150.794 69.7636 150.643 69.3558 150.643 68.8665C150.643 68.4664 150.755 68.1125 150.98 67.8047C151.208 67.4969 151.517 67.2553 151.908 67.0799C152.302 66.9045 152.748 66.8168 153.247 66.8168C153.949 66.8168 154.499 66.9706 154.9 67.2784C155.303 67.5862 155.589 67.9924 155.758 68.4972ZM160.5 74.1477C159.817 74.1477 159.228 73.9969 158.732 73.6953C158.24 73.3906 157.86 72.9659 157.592 72.4212C157.327 71.8733 157.195 71.2363 157.195 70.5099C157.195 69.7836 157.327 69.1435 157.592 68.5895C157.86 68.0324 158.232 67.5985 158.709 67.2876C159.189 66.9737 159.749 66.8168 160.39 66.8168C160.759 66.8168 161.124 66.8783 161.484 67.0014C161.844 67.1245 162.172 67.3246 162.467 67.6016C162.763 67.8755 162.998 68.2386 163.173 68.6911C163.349 69.1435 163.437 69.7005 163.437 70.3622V70.8239H157.971V69.8821H162.329C162.329 69.482 162.249 69.125 162.089 68.8111C161.932 68.4972 161.707 68.2494 161.415 68.0678C161.125 67.8862 160.784 67.7955 160.39 67.7955C159.956 67.7955 159.58 67.9032 159.263 68.1186C158.949 68.331 158.708 68.608 158.538 68.9496C158.369 69.2912 158.285 69.6574 158.285 70.0483V70.6761C158.285 71.2116 158.377 71.6656 158.562 72.038C158.749 72.4073 159.009 72.6889 159.342 72.8828C159.674 73.0736 160.06 73.169 160.5 73.169C160.787 73.169 161.045 73.129 161.276 73.049C161.51 72.9659 161.711 72.8428 161.881 72.6797C162.05 72.5135 162.181 72.3073 162.273 72.0611L163.326 72.3565C163.215 72.7135 163.029 73.0275 162.767 73.2983C162.506 73.5661 162.182 73.7753 161.798 73.9261C161.413 74.0739 160.981 74.1477 160.5 74.1477ZM170.117 68.4972L169.138 68.7741C169.076 68.611 168.986 68.4525 168.866 68.2987C168.749 68.1417 168.589 68.0124 168.385 67.9109C168.182 67.8093 167.922 67.7585 167.605 67.7585C167.171 67.7585 166.81 67.8585 166.52 68.0586C166.234 68.2556 166.091 68.5064 166.091 68.8111C166.091 69.0819 166.189 69.2958 166.386 69.4528C166.583 69.6097 166.891 69.7405 167.31 69.8452L168.362 70.1037C168.996 70.2576 169.469 70.493 169.78 70.81C170.09 71.1239 170.246 71.5286 170.246 72.0241C170.246 72.4304 170.129 72.7936 169.895 73.1136C169.664 73.4337 169.341 73.6861 168.926 73.8707C168.51 74.0554 168.027 74.1477 167.476 74.1477C166.753 74.1477 166.154 73.9908 165.68 73.6768C165.206 73.3629 164.906 72.9044 164.78 72.3011L165.814 72.0426C165.912 72.4242 166.099 72.7105 166.373 72.9013C166.65 73.0921 167.011 73.1875 167.457 73.1875C167.965 73.1875 168.368 73.0798 168.667 72.8643C168.969 72.6458 169.119 72.3842 169.119 72.0795C169.119 71.8333 169.033 71.6271 168.861 71.4609C168.689 71.2917 168.424 71.1655 168.067 71.0824L166.885 70.8054C166.236 70.6515 165.759 70.413 165.454 70.0898C165.152 69.7636 165.002 69.3558 165.002 68.8665C165.002 68.4664 165.114 68.1125 165.339 67.8047C165.566 67.4969 165.876 67.2553 166.266 67.0799C166.66 66.9045 167.107 66.8168 167.605 66.8168C168.307 66.8168 168.858 66.9706 169.258 67.2784C169.661 67.5862 169.947 67.9924 170.117 68.4972ZM174.545 74.91H187.545V61.91H174.545V74.91Z" fill="white"/>
<path d="M33.4034 110.159C32.6809 110.159 32.0014 110.023 31.3651 109.751C30.732 109.48 30.1735 109.103 29.6896 108.623C29.209 108.139 28.8312 107.58 28.5561 106.947C28.2843 106.314 28.1501 105.635 28.1534 104.909C28.1567 104.183 28.2943 103.504 28.5661 102.871C28.8411 102.238 29.219 101.681 29.6996 101.2C30.1802 100.716 30.737 100.339 31.37 100.067C32.0031 99.795 32.6809 99.6591 33.4034 99.6591C34.1293 99.6591 34.8087 99.795 35.4418 100.067C36.0781 100.339 36.6349 100.716 37.1122 101.2C37.5928 101.681 37.969 102.238 38.2408 102.871C38.5125 103.504 38.6501 104.183 38.6534 104.909C38.6567 105.635 38.5225 106.314 38.2507 106.947C37.9789 107.58 37.6027 108.139 37.1222 108.623C36.6416 109.103 36.0831 109.48 35.4467 109.751C34.8104 110.023 34.1293 110.159 33.4034 110.159ZM46.214 110.159C45.4914 110.159 44.812 110.023 44.1756 109.751C43.5426 109.48 42.9841 109.103 42.5002 108.623C42.0196 108.139 41.6417 107.58 41.3667 106.947C41.0949 106.314 40.9606 105.635 40.964 104.909C40.9673 104.183 41.1048 103.504 41.3766 102.871C41.6517 102.238 42.0295 101.681 42.5101 101.2C42.9907 100.716 43.5475 100.339 44.1806 100.067C44.8136 99.795 45.4914 99.6591 46.214 99.6591C46.9398 99.6591 47.6193 99.795 48.2523 100.067C48.8887 100.339 49.4455 100.716 49.9228 101.2C50.4034 101.681 50.7795 102.238 51.0513 102.871C51.3231 103.504 51.4606 104.183 51.464 104.909C51.4673 105.635 51.333 106.314 51.0613 106.947C50.7895 107.58 50.4133 108.139 49.9327 108.623C49.4521 109.103 48.8936 109.48 48.2573 109.751C47.6209 110.023 46.9398 110.159 46.214 110.159ZM59.0245 110.159C58.302 110.159 57.6225 110.023 56.9862 109.751C56.3531 109.48 55.7946 109.103 55.3107 108.623C54.8301 108.139 54.4523 107.58 54.1772 106.947C53.9054 106.314 53.7712 105.635 53.7745 104.909C53.7778 104.183 53.9154 103.504 54.1871 102.871C54.4622 102.238 54.8401 101.681 55.3207 101.2C55.8013 100.716 56.3581 100.339 56.9911 100.067C57.6242 99.795 58.302 99.6591 59.0245 99.6591C59.7504 99.6591 60.4298 99.795 61.0629 100.067C61.6992 100.339 62.256 100.716 62.7333 101.2C63.2139 101.681 63.5901 102.238 63.8619 102.871C64.1336 103.504 64.2712 104.183 64.2745 104.909C64.2778 105.635 64.1436 106.314 63.8718 106.947C63.6 107.58 63.2238 108.139 62.7433 108.623C62.2627 109.103 61.7042 109.48 61.0678 109.751C60.4315 110.023 59.7504 110.159 59.0245 110.159ZM71.835 110.159C71.1125 110.159 70.4331 110.023 69.7967 109.751C69.1636 109.48 68.6052 109.103 68.1213 108.623C67.6407 108.139 67.2628 107.58 66.9877 106.947C66.716 106.314 66.5817 105.635 66.585 104.909C66.5884 104.183 66.7259 103.504 66.9977 102.871C67.2728 102.238 67.6506 101.681 68.1312 101.2C68.6118 100.716 69.1686 100.339 69.8017 100.067C70.4347 99.795 71.1125 99.6591 71.835 99.6591C72.5609 99.6591 73.2404 99.795 73.8734 100.067C74.5098 100.339 75.0666 100.716 75.5439 101.2C76.0244 101.681 76.4006 102.238 76.6724 102.871C76.9442 103.504 77.0817 104.183 77.085 104.909C77.0884 105.635 76.9541 106.314 76.6824 106.947C76.4106 107.58 76.0344 108.139 75.5538 108.623C75.0732 109.103 74.5147 109.48 73.8784 109.751C73.242 110.023 72.5609 110.159 71.835 110.159ZM88.5831 110.159C87.8606 110.159 87.1811 110.023 86.5447 109.751C85.9117 109.48 85.3532 109.103 84.8693 108.623C84.3887 108.139 84.0109 107.58 83.7358 106.947C83.464 106.314 83.3298 105.635 83.3331 104.909C83.3364 104.183 83.474 103.504 83.7457 102.871C84.0208 102.238 84.3987 101.681 84.8793 101.2C85.3598 100.716 85.9167 100.339 86.5497 100.067C87.1828 99.795 87.8606 99.6591 88.5831 99.6591C89.3089 99.6591 89.9884 99.795 90.6214 100.067C91.2578 100.339 91.8146 100.716 92.2919 101.2C92.7725 101.681 93.1487 102.238 93.4205 102.871C93.6922 103.504 93.8298 104.183 93.8331 104.909C93.8364 105.635 93.7022 106.314 93.4304 106.947C93.1586 107.58 92.7824 108.139 92.3018 108.623C91.8213 109.103 91.2628 109.48 90.6264 109.751C89.9901 110.023 89.3089 110.159 88.5831 110.159ZM101.394 110.159C100.671 110.159 99.9917 110.023 99.3553 109.751C98.7222 109.48 98.1638 109.103 97.6799 108.623C97.1993 108.139 96.8214 107.58 96.5463 106.947C96.2746 106.314 96.1403 105.635 96.1436 104.909C96.147 104.183 96.2845 103.504 96.5563 102.871C96.8314 102.238 97.2092 101.681 97.6898 101.2C98.1704 100.716 98.7272 100.339 99.3603 100.067C99.9933 99.795 100.671 99.6591 101.394 99.6591C102.119 99.6591 102.799 99.795 103.432 100.067C104.068 100.339 104.625 100.716 105.102 101.2C105.583 101.681 105.959 102.238 106.231 102.871C106.503 103.504 106.64 104.183 106.644 104.909C106.647 105.635 106.513 106.314 106.241 106.947C105.969 107.58 105.593 108.139 105.112 108.623C104.632 109.103 104.073 109.48 103.437 109.751C102.801 110.023 102.119 110.159 101.394 110.159ZM114.204 110.159C113.482 110.159 112.802 110.023 112.166 109.751C111.533 109.48 110.974 109.103 110.49 108.623C110.01 108.139 109.632 107.58 109.357 106.947C109.085 106.314 108.951 105.635 108.954 104.909C108.958 104.183 109.095 103.504 109.367 102.871C109.642 102.238 110.02 101.681 110.5 101.2C110.981 100.716 111.538 100.339 112.171 100.067C112.804 99.795 113.482 99.6591 114.204 99.6591C114.93 99.6591 115.609 99.795 116.243 100.067C116.879 100.339 117.436 100.716 117.913 101.2C118.394 101.681 118.77 102.238 119.042 102.871C119.313 103.504 119.451 104.183 119.454 104.909C119.458 105.635 119.323 106.314 119.051 106.947C118.78 107.58 118.404 108.139 117.923 108.623C117.442 109.103 116.884 109.48 116.248 109.751C115.611 110.023 114.93 110.159 114.204 110.159ZM127.015 110.159C126.292 110.159 125.613 110.023 124.976 109.751C124.343 109.48 123.785 109.103 123.301 108.623C122.82 108.139 122.443 107.58 122.167 106.947C121.896 106.314 121.761 105.635 121.765 104.909C121.768 104.183 121.906 103.504 122.177 102.871C122.452 102.238 122.83 101.681 123.311 101.2C123.791 100.716 124.348 100.339 124.981 100.067C125.614 99.795 126.292 99.6591 127.015 99.6591C127.741 99.6591 128.42 99.795 129.053 100.067C129.689 100.339 130.246 100.716 130.724 101.2C131.204 101.681 131.58 102.238 131.852 102.871C132.124 103.504 132.261 104.183 132.265 104.909C132.268 105.635 132.134 106.314 131.862 106.947C131.59 107.58 131.214 108.139 130.733 108.623C130.253 109.103 129.694 109.48 129.058 109.751C128.422 110.023 127.741 110.159 127.015 110.159ZM143.763 110.159C143.04 110.159 142.361 110.023 141.724 109.751C141.091 109.48 140.533 109.103 140.049 108.623C139.568 108.139 139.191 107.58 138.915 106.947C138.644 106.314 138.509 105.635 138.513 104.909C138.516 104.183 138.654 103.504 138.925 102.871C139.201 102.238 139.578 101.681 140.059 101.2C140.54 100.716 141.096 100.339 141.729 100.067C142.362 99.795 143.04 99.6591 143.763 99.6591C144.489 99.6591 145.168 99.795 145.801 100.067C146.438 100.339 146.994 100.716 147.472 101.2C147.952 101.681 148.328 102.238 148.6 102.871C148.872 103.504 149.009 104.183 149.013 104.909C149.016 105.635 148.882 106.314 148.61 106.947C148.338 107.58 147.962 108.139 147.482 108.623C147.001 109.103 146.442 109.48 145.806 109.751C145.17 110.023 144.489 110.159 143.763 110.159ZM156.573 110.159C155.851 110.159 155.171 110.023 154.535 109.751C153.902 109.48 153.343 109.103 152.86 108.623C152.379 108.139 152.001 107.58 151.726 106.947C151.454 106.314 151.32 105.635 151.323 104.909C151.327 104.183 151.464 103.504 151.736 102.871C152.011 102.238 152.389 101.681 152.869 101.2C153.35 100.716 153.907 100.339 154.54 100.067C155.173 99.795 155.851 99.6591 156.573 99.6591C157.299 99.6591 157.979 99.795 158.612 100.067C159.248 100.339 159.805 100.716 160.282 101.2C160.763 101.681 161.139 102.238 161.411 102.871C161.682 103.504 161.82 104.183 161.823 104.909C161.827 105.635 161.692 106.314 161.421 106.947C161.149 107.58 160.773 108.139 160.292 108.623C159.811 109.103 159.253 109.48 158.617 109.751C157.98 110.023 157.299 110.159 156.573 110.159ZM169.384 110.159C168.661 110.159 167.982 110.023 167.346 109.751C166.712 109.48 166.154 109.103 165.67 108.623C165.19 108.139 164.812 107.58 164.537 106.947C164.265 106.314 164.131 105.635 164.134 104.909C164.137 104.183 164.275 103.504 164.547 102.871C164.822 102.238 165.199 101.681 165.68 101.2C166.161 100.716 166.717 100.339 167.35 100.067C167.984 99.795 168.661 99.6591 169.384 99.6591C170.11 99.6591 170.789 99.795 171.422 100.067C172.059 100.339 172.615 100.716 173.093 101.2C173.573 101.681 173.949 102.238 174.221 102.871C174.493 103.504 174.631 104.183 174.634 104.909C174.637 105.635 174.503 106.314 174.231 106.947C173.959 107.58 173.583 108.139 173.103 108.623C172.622 109.103 172.064 109.48 171.427 109.751C170.791 110.023 170.11 110.159 169.384 110.159ZM182.194 110.159C181.472 110.159 180.792 110.023 180.156 109.751C179.523 109.48 178.965 109.103 178.481 108.623C178 108.139 177.622 107.58 177.347 106.947C177.075 106.314 176.941 105.635 176.944 104.909C176.948 104.183 177.085 103.504 177.357 102.871C177.632 102.238 178.01 101.681 178.491 101.2C178.971 100.716 179.528 100.339 180.161 100.067C180.794 99.795 181.472 99.6591 182.194 99.6591C182.92 99.6591 183.6 99.795 184.233 100.067C184.869 100.339 185.426 100.716 185.903 101.2C186.384 101.681 186.76 102.238 187.032 102.871C187.304 103.504 187.441 104.183 187.444 104.909C187.448 105.635 187.314 106.314 187.042 106.947C186.77 107.58 186.394 108.139 185.913 108.623C185.433 109.103 184.874 109.48 184.238 109.751C183.601 110.023 182.92 110.159 182.194 110.159ZM197.173 99.8182V110H195.94V101.111H195.88L193.394 102.761V101.509L195.94 99.8182H197.173ZM203.68 99.8182V110H202.447V101.111H202.388L199.902 102.761V101.509L202.447 99.8182H203.68ZM210.188 99.8182V110H208.955V101.111H208.896L206.41 102.761V101.509L208.955 99.8182H210.188ZM216.696 99.8182V110H215.463V101.111H215.403L212.918 102.761V101.509L215.463 99.8182H216.696Z" fill="white"/>
<g filter="url(#filter1_b_35_1176)">
<rect x="263" y="26" width="165" height="88" rx="8" fill="white" fill-opacity="0.3"/>
<rect x="263.5" y="26.5" width="164" height="87" rx="7.5" stroke="white" stroke-opacity="0.5"/>
<path d="M288.575 50.1293H287.024C286.964 49.7978 286.853 49.5062 286.691 49.2543C286.529 49.0024 286.33 48.7886 286.094 48.6129C285.859 48.4373 285.596 48.3047 285.304 48.2152C285.016 48.1257 284.709 48.081 284.384 48.081C283.798 48.081 283.272 48.2285 282.808 48.5234C282.348 48.8184 281.983 49.2509 281.714 49.821C281.449 50.3911 281.317 51.0871 281.317 51.9091C281.317 52.7377 281.449 53.437 281.714 54.0071C281.983 54.5772 282.349 55.008 282.813 55.2997C283.277 55.5914 283.799 55.7372 284.379 55.7372C284.701 55.7372 285.006 55.6941 285.294 55.608C285.586 55.5185 285.849 55.3875 286.085 55.2152C286.32 55.0429 286.519 54.8324 286.681 54.5838C286.847 54.3319 286.961 54.0436 287.024 53.7188L288.575 53.7237C288.492 54.2242 288.332 54.6849 288.093 55.1058C287.858 55.5234 287.554 55.8847 287.183 56.1896C286.815 56.4912 286.394 56.7249 285.92 56.8906C285.446 57.0563 284.929 57.1392 284.369 57.1392C283.488 57.1392 282.702 56.9304 282.013 56.5128C281.323 56.0919 280.78 55.4903 280.382 54.7081C279.988 53.9259 279.79 52.9929 279.79 51.9091C279.79 50.822 279.989 49.889 280.387 49.1101C280.785 48.3279 281.328 47.728 282.018 47.3104C282.707 46.8894 283.491 46.679 284.369 46.679C284.91 46.679 285.413 46.7569 285.881 46.9126C286.351 47.0651 286.774 47.2905 287.148 47.5888C287.523 47.8838 287.833 48.245 288.078 48.6726C288.323 49.0968 288.489 49.5824 288.575 50.1293ZM295.132 53.8331V49.3636H296.623V57H295.161V55.6776H295.082C294.906 56.0852 294.624 56.425 294.237 56.6967C293.852 56.9652 293.373 57.0994 292.8 57.0994C292.309 57.0994 291.875 56.9917 291.497 56.7763C291.123 56.5575 290.828 56.2344 290.612 55.8068C290.4 55.3793 290.294 54.8506 290.294 54.2209V49.3636H291.781V54.0419C291.781 54.5623 291.925 54.9766 292.213 55.2848C292.502 55.593 292.876 55.7472 293.337 55.7472C293.615 55.7472 293.892 55.6776 294.167 55.5384C294.445 55.3991 294.676 55.1887 294.858 54.907C295.044 54.6252 295.135 54.2673 295.132 53.8331ZM298.62 57V49.3636H300.057V50.5767H300.137C300.276 50.1657 300.521 49.8426 300.873 49.6072C301.227 49.3686 301.628 49.2493 302.076 49.2493C302.168 49.2493 302.278 49.2526 302.404 49.2592C302.533 49.2659 302.634 49.2741 302.707 49.2841V50.706C302.647 50.6894 302.541 50.6712 302.389 50.6513C302.236 50.6281 302.084 50.6165 301.931 50.6165C301.58 50.6165 301.267 50.6911 300.992 50.8402C300.72 50.986 300.505 51.1899 300.346 51.4517C300.186 51.7102 300.107 52.0052 300.107 52.3366V57H298.62ZM303.993 57V49.3636H305.43V50.5767H305.51C305.649 50.1657 305.894 49.8426 306.246 49.6072C306.6 49.3686 307.001 49.2493 307.449 49.2493C307.541 49.2493 307.651 49.2526 307.777 49.2592C307.906 49.2659 308.007 49.2741 308.08 49.2841V50.706C308.02 50.6894 307.914 50.6712 307.762 50.6513C307.609 50.6281 307.457 50.6165 307.305 50.6165C306.953 50.6165 306.64 50.6911 306.365 50.8402C306.093 50.986 305.878 51.1899 305.719 51.4517C305.559 51.7102 305.48 52.0052 305.48 52.3366V57H303.993ZM312.384 57.1541C311.632 57.1541 310.984 56.9934 310.44 56.6719C309.9 56.3471 309.482 55.8913 309.188 55.3047C308.896 54.7147 308.75 54.0237 308.75 53.2315C308.75 52.4493 308.896 51.7599 309.188 51.1634C309.482 50.5668 309.893 50.1011 310.42 49.7663C310.951 49.4316 311.571 49.2642 312.28 49.2642C312.711 49.2642 313.128 49.3355 313.533 49.478C313.937 49.6205 314.3 49.8442 314.621 50.1491C314.943 50.4541 315.196 50.8501 315.382 51.3374C315.568 51.8213 315.661 52.4096 315.661 53.1023V53.6293H309.59V52.5156H314.204C314.204 52.1245 314.124 51.7782 313.965 51.4766C313.806 51.1716 313.582 50.9313 313.294 50.7557C313.009 50.58 312.674 50.4922 312.29 50.4922C311.872 50.4922 311.508 50.5949 311.196 50.8004C310.888 51.0026 310.649 51.2678 310.48 51.5959C310.314 51.9207 310.232 52.2737 310.232 52.6548V53.5249C310.232 54.0353 310.321 54.4695 310.5 54.8274C310.682 55.1854 310.936 55.4588 311.261 55.6477C311.585 55.8333 311.965 55.9261 312.399 55.9261C312.681 55.9261 312.938 55.8864 313.17 55.8068C313.402 55.724 313.602 55.6013 313.771 55.4389C313.94 55.2765 314.07 55.076 314.159 54.8374L315.566 55.0909C315.453 55.5052 315.251 55.8681 314.96 56.1797C314.671 56.4879 314.308 56.7282 313.871 56.9006C313.437 57.0696 312.941 57.1541 312.384 57.1541ZM318.796 52.4659V57H317.31V49.3636H318.737V50.6065H318.831C319.007 50.2022 319.282 49.8774 319.656 49.6321C320.034 49.3868 320.51 49.2642 321.083 49.2642C321.604 49.2642 322.059 49.3736 322.45 49.5923C322.842 49.8078 323.145 50.1293 323.36 50.5568C323.576 50.9844 323.683 51.513 323.683 52.1428V57H322.197V52.3217C322.197 51.7682 322.053 51.3357 321.764 51.0241C321.476 50.7093 321.08 50.5518 320.576 50.5518C320.231 50.5518 319.925 50.6264 319.656 50.7756C319.391 50.9247 319.181 51.1435 319.025 51.4318C318.873 51.7169 318.796 52.0616 318.796 52.4659ZM329.242 49.3636V50.5568H325.07V49.3636H329.242ZM326.189 47.5341H327.676V54.7578C327.676 55.0462 327.719 55.2633 327.805 55.4091C327.891 55.5516 328.002 55.6494 328.138 55.7024C328.277 55.7521 328.428 55.777 328.59 55.777C328.71 55.777 328.814 55.7687 328.904 55.7521C328.993 55.7356 329.063 55.7223 329.112 55.7124L329.381 56.9403C329.295 56.9735 329.172 57.0066 329.013 57.0398C328.854 57.0762 328.655 57.0961 328.416 57.0994C328.025 57.1061 327.661 57.0365 327.323 56.8906C326.985 56.7448 326.711 56.5194 326.502 56.2145C326.294 55.9096 326.189 55.5268 326.189 55.0661V47.5341ZM334.71 57V46.8182H338.439C339.162 46.8182 339.76 46.9375 340.234 47.1761C340.708 47.4115 341.062 47.7313 341.298 48.1357C341.533 48.5367 341.651 48.9891 341.651 49.4929C341.651 49.9171 341.573 50.2751 341.417 50.5668C341.261 50.8551 341.052 51.0871 340.791 51.2628C340.532 51.4351 340.247 51.5611 339.936 51.6406V51.7401C340.274 51.7566 340.603 51.866 340.925 52.0682C341.25 52.267 341.518 52.5504 341.73 52.9183C341.942 53.2862 342.048 53.7337 342.048 54.2607C342.048 54.781 341.926 55.2483 341.681 55.6626C341.439 56.0736 341.064 56.4001 340.557 56.642C340.05 56.8807 339.402 57 338.613 57H334.71ZM336.247 55.6825H338.464C339.2 55.6825 339.727 55.54 340.045 55.255C340.363 54.9699 340.522 54.6136 340.522 54.1861C340.522 53.8646 340.441 53.5696 340.279 53.3011C340.116 53.0327 339.884 52.8189 339.583 52.6598C339.284 52.5007 338.93 52.4212 338.519 52.4212H336.247V55.6825ZM336.247 51.223H338.305C338.65 51.223 338.959 51.1567 339.235 51.0241C339.513 50.8916 339.733 50.706 339.896 50.4673C340.061 50.2254 340.144 49.9403 340.144 49.6122C340.144 49.1913 339.997 48.8383 339.702 48.5533C339.407 48.2682 338.954 48.1257 338.345 48.1257H336.247V51.223ZM345.974 57.169C345.49 57.169 345.052 57.0795 344.661 56.9006C344.27 56.7183 343.96 56.4548 343.731 56.1101C343.506 55.7654 343.393 55.3428 343.393 54.8423C343.393 54.4115 343.476 54.0568 343.642 53.7784C343.808 53.5 344.031 53.2796 344.313 53.1172C344.595 52.9548 344.91 52.8321 345.258 52.7493C345.606 52.6664 345.96 52.6035 346.322 52.5604C346.779 52.5073 347.15 52.4643 347.435 52.4311C347.72 52.3946 347.927 52.3366 348.057 52.2571C348.186 52.1776 348.251 52.0483 348.251 51.8693V51.8345C348.251 51.4003 348.128 51.0639 347.883 50.8253C347.641 50.5866 347.279 50.4673 346.799 50.4673C346.298 50.4673 345.904 50.5784 345.616 50.8004C345.331 51.0192 345.133 51.2628 345.024 51.5312L343.627 51.2131C343.793 50.7491 344.035 50.3745 344.353 50.0895C344.674 49.8011 345.044 49.5923 345.461 49.4631C345.879 49.3305 346.318 49.2642 346.779 49.2642C347.084 49.2642 347.407 49.3007 347.748 49.3736C348.093 49.4432 348.415 49.5724 348.713 49.7614C349.015 49.9503 349.261 50.2204 349.454 50.5717C349.646 50.9197 349.742 51.3722 349.742 51.929V57H348.29V55.956H348.231C348.135 56.1482 347.99 56.3371 347.798 56.5227C347.606 56.7083 347.359 56.8625 347.057 56.9851C346.756 57.1077 346.394 57.169 345.974 57.169ZM346.297 55.9759C346.708 55.9759 347.059 55.8946 347.351 55.7322C347.646 55.5698 347.869 55.3577 348.022 55.0959C348.178 54.8307 348.256 54.5473 348.256 54.2457V53.2614C348.202 53.3144 348.1 53.3641 347.947 53.4105C347.798 53.4536 347.627 53.4917 347.435 53.5249C347.243 53.5547 347.056 53.5829 346.873 53.6094C346.691 53.6326 346.539 53.6525 346.416 53.669C346.128 53.7055 345.864 53.7668 345.626 53.853C345.39 53.9392 345.201 54.0634 345.059 54.2259C344.92 54.3849 344.85 54.5971 344.85 54.8622C344.85 55.2301 344.986 55.5085 345.258 55.6974C345.529 55.883 345.876 55.9759 346.297 55.9759ZM353.208 46.8182V57H351.722V46.8182H353.208ZM357.431 57.169C356.947 57.169 356.509 57.0795 356.118 56.9006C355.727 56.7183 355.417 56.4548 355.188 56.1101C354.963 55.7654 354.85 55.3428 354.85 54.8423C354.85 54.4115 354.933 54.0568 355.099 53.7784C355.265 53.5 355.488 53.2796 355.77 53.1172C356.052 52.9548 356.367 52.8321 356.715 52.7493C357.063 52.6664 357.417 52.6035 357.779 52.5604C358.236 52.5073 358.607 52.4643 358.892 52.4311C359.177 52.3946 359.384 52.3366 359.514 52.2571C359.643 52.1776 359.708 52.0483 359.708 51.8693V51.8345C359.708 51.4003 359.585 51.0639 359.34 50.8253C359.098 50.5866 358.736 50.4673 358.256 50.4673C357.755 50.4673 357.361 50.5784 357.073 50.8004C356.788 51.0192 356.59 51.2628 356.481 51.5312L355.084 51.2131C355.25 50.7491 355.492 50.3745 355.81 50.0895C356.131 49.8011 356.501 49.5923 356.919 49.4631C357.336 49.3305 357.775 49.2642 358.236 49.2642C358.541 49.2642 358.864 49.3007 359.205 49.3736C359.55 49.4432 359.872 49.5724 360.17 49.7614C360.472 49.9503 360.718 50.2204 360.911 50.5717C361.103 50.9197 361.199 51.3722 361.199 51.929V57H359.747V55.956H359.688C359.592 56.1482 359.447 56.3371 359.255 56.5227C359.063 56.7083 358.816 56.8625 358.514 56.9851C358.213 57.1077 357.852 57.169 357.431 57.169ZM357.754 55.9759C358.165 55.9759 358.516 55.8946 358.808 55.7322C359.103 55.5698 359.326 55.3577 359.479 55.0959C359.635 54.8307 359.713 54.5473 359.713 54.2457V53.2614C359.66 53.3144 359.557 53.3641 359.404 53.4105C359.255 53.4536 359.084 53.4917 358.892 53.5249C358.7 53.5547 358.513 53.5829 358.33 53.6094C358.148 53.6326 357.996 53.6525 357.873 53.669C357.585 53.7055 357.321 53.7668 357.083 53.853C356.847 53.9392 356.658 54.0634 356.516 54.2259C356.377 54.3849 356.307 54.5971 356.307 54.8622C356.307 55.2301 356.443 55.5085 356.715 55.6974C356.986 55.883 357.333 55.9759 357.754 55.9759ZM364.665 52.4659V57H363.179V49.3636H364.606V50.6065H364.7C364.876 50.2022 365.151 49.8774 365.526 49.6321C365.903 49.3868 366.379 49.2642 366.952 49.2642C367.473 49.2642 367.929 49.3736 368.32 49.5923C368.711 49.8078 369.014 50.1293 369.229 50.5568C369.445 50.9844 369.553 51.513 369.553 52.1428V57H368.066V52.3217C368.066 51.7682 367.922 51.3357 367.634 51.0241C367.345 50.7093 366.949 50.5518 366.445 50.5518C366.101 50.5518 365.794 50.6264 365.526 50.7756C365.26 50.9247 365.05 51.1435 364.894 51.4318C364.742 51.7169 364.665 52.0616 364.665 52.4659ZM374.763 57.1541C374.024 57.1541 373.387 56.9867 372.854 56.652C372.323 56.3139 371.916 55.8482 371.631 55.255C371.346 54.6617 371.203 53.9822 371.203 53.2166C371.203 52.4411 371.349 51.7566 371.641 51.1634C371.932 50.5668 372.343 50.1011 372.874 49.7663C373.404 49.4316 374.029 49.2642 374.748 49.2642C375.328 49.2642 375.845 49.3719 376.299 49.5874C376.753 49.7995 377.119 50.0978 377.398 50.4822C377.679 50.8667 377.847 51.3158 377.9 51.8295H376.453C376.374 51.4716 376.191 51.1634 375.906 50.9048C375.625 50.6463 375.247 50.517 374.773 50.517C374.358 50.517 373.996 50.6264 373.684 50.8452C373.376 51.0606 373.135 51.3688 372.963 51.7699C372.791 52.1676 372.705 52.6383 372.705 53.1818C372.705 53.7386 372.789 54.2192 372.958 54.6236C373.127 55.0279 373.366 55.3411 373.674 55.5632C373.986 55.7853 374.352 55.8963 374.773 55.8963C375.054 55.8963 375.31 55.8449 375.538 55.7422C375.77 55.6361 375.964 55.4853 376.12 55.2898C376.279 55.0942 376.39 54.8589 376.453 54.5838H377.9C377.847 55.0777 377.686 55.5185 377.418 55.9062C377.149 56.294 376.79 56.599 376.339 56.821C375.891 57.0431 375.366 57.1541 374.763 57.1541ZM382.781 57.1541C382.028 57.1541 381.38 56.9934 380.837 56.6719C380.297 56.3471 379.879 55.8913 379.584 55.3047C379.292 54.7147 379.146 54.0237 379.146 53.2315C379.146 52.4493 379.292 51.7599 379.584 51.1634C379.879 50.5668 380.29 50.1011 380.817 49.7663C381.347 49.4316 381.967 49.2642 382.676 49.2642C383.107 49.2642 383.525 49.3355 383.929 49.478C384.334 49.6205 384.696 49.8442 385.018 50.1491C385.339 50.4541 385.593 50.8501 385.779 51.3374C385.964 51.8213 386.057 52.4096 386.057 53.1023V53.6293H379.987V52.5156H384.6C384.6 52.1245 384.521 51.7782 384.362 51.4766C384.203 51.1716 383.979 50.9313 383.691 50.7557C383.405 50.58 383.071 50.4922 382.686 50.4922C382.269 50.4922 381.904 50.5949 381.593 50.8004C381.284 51.0026 381.046 51.2678 380.877 51.5959C380.711 51.9207 380.628 52.2737 380.628 52.6548V53.5249C380.628 54.0353 380.718 54.4695 380.896 54.8274C381.079 55.1854 381.332 55.4588 381.657 55.6477C381.982 55.8333 382.361 55.9261 382.796 55.9261C383.077 55.9261 383.334 55.8864 383.566 55.8068C383.798 55.724 383.999 55.6013 384.168 55.4389C384.337 55.2765 384.466 55.076 384.556 54.8374L385.963 55.0909C385.85 55.5052 385.648 55.8681 385.356 56.1797C385.068 56.4879 384.705 56.7282 384.267 56.9006C383.833 57.0696 383.338 57.1541 382.781 57.1541Z" fill="white"/>
<path d="M286.176 93.1818V71.3636H287.574V93.1818H286.176ZM290.207 78.3438C290.128 77.5994 289.793 77.0199 289.202 76.6051C288.616 76.1903 287.855 75.983 286.918 75.983C286.259 75.983 285.693 76.0824 285.222 76.2812C284.75 76.4801 284.389 76.75 284.139 77.0909C283.889 77.4318 283.761 77.821 283.756 78.2585C283.756 78.6222 283.838 78.9375 284.003 79.2045C284.173 79.4716 284.403 79.6989 284.693 79.8864C284.983 80.0682 285.304 80.2216 285.656 80.3466C286.009 80.4716 286.364 80.5767 286.722 80.6619L288.358 81.071C289.017 81.2244 289.651 81.4318 290.259 81.6932C290.872 81.9545 291.42 82.2841 291.903 82.6818C292.392 83.0795 292.778 83.5597 293.062 84.1222C293.347 84.6847 293.489 85.3437 293.489 86.0994C293.489 87.1222 293.227 88.0227 292.705 88.8011C292.182 89.5739 291.426 90.179 290.438 90.6165C289.455 91.0483 288.264 91.2642 286.866 91.2642C285.509 91.2642 284.33 91.054 283.33 90.6335C282.335 90.2131 281.557 89.5994 280.994 88.7926C280.438 87.9858 280.136 87.0028 280.091 85.8438H283.202C283.247 86.4517 283.435 86.9574 283.764 87.3608C284.094 87.7642 284.523 88.0653 285.051 88.2642C285.585 88.4631 286.182 88.5625 286.841 88.5625C287.528 88.5625 288.131 88.4602 288.648 88.2557C289.17 88.0455 289.58 87.7557 289.875 87.3864C290.17 87.0114 290.321 86.5739 290.327 86.0739C290.321 85.6193 290.188 85.2443 289.926 84.9489C289.665 84.6477 289.298 84.3977 288.827 84.1989C288.361 83.9943 287.815 83.8125 287.19 83.6534L285.205 83.142C283.767 82.7727 282.631 82.2131 281.795 81.4631C280.966 80.7074 280.551 79.7045 280.551 78.4545C280.551 77.4261 280.83 76.5256 281.386 75.7528C281.949 74.9801 282.713 74.3807 283.679 73.9545C284.645 73.5227 285.739 73.3068 286.96 73.3068C288.199 73.3068 289.284 73.5227 290.216 73.9545C291.153 74.3807 291.889 74.9744 292.423 75.7358C292.957 76.4915 293.233 77.3608 293.25 78.3438H290.207ZM303.237 73.5455V91H300.075V76.6222H299.972L295.89 79.2301V76.3324L300.228 73.5455H303.237ZM307.353 87.7614V85.2472L314.759 73.5455H316.856V77.125H315.577L310.592 85.0256V85.1619H320.93V87.7614H307.353ZM315.68 91V86.9943L315.714 85.8693V73.5455H318.697V91H315.68ZM326.817 88.6136L326.706 89.5511C326.626 90.267 326.484 90.9943 326.28 91.733C326.081 92.4773 325.871 93.1619 325.649 93.7869C325.428 94.4119 325.249 94.9034 325.112 95.2614H323.033C323.112 94.9148 323.22 94.4432 323.357 93.8466C323.499 93.25 323.635 92.5795 323.766 91.8352C323.896 91.0909 323.984 90.3352 324.03 89.5682L324.089 88.6136H326.817ZM330.239 91V88.7159L336.298 82.7756C336.878 82.1903 337.361 81.6705 337.747 81.2159C338.134 80.7614 338.423 80.321 338.616 79.8949C338.81 79.4687 338.906 79.0142 338.906 78.5312C338.906 77.9801 338.781 77.5085 338.531 77.1165C338.281 76.7188 337.938 76.4119 337.5 76.196C337.062 75.9801 336.565 75.8722 336.009 75.8722C335.435 75.8722 334.932 75.9915 334.5 76.2301C334.068 76.4631 333.733 76.7955 333.494 77.2273C333.261 77.6591 333.145 78.1733 333.145 78.7699H330.136C330.136 77.6619 330.389 76.6989 330.895 75.8807C331.401 75.0625 332.097 74.429 332.983 73.9801C333.875 73.5312 334.898 73.3068 336.051 73.3068C337.222 73.3068 338.25 73.5256 339.136 73.9631C340.023 74.4006 340.71 75 341.199 75.7614C341.693 76.5227 341.94 77.392 341.94 78.3693C341.94 79.0227 341.815 79.6648 341.565 80.2955C341.315 80.9261 340.875 81.625 340.244 82.392C339.619 83.1591 338.741 84.0881 337.611 85.179L334.602 88.2386V88.358H342.205V91H330.239ZM344.455 87.7614V85.2472L351.861 73.5455H353.957V77.125H352.679L347.693 85.0256V85.1619H358.031V87.7614H344.455ZM352.781 91V86.9943L352.815 85.8693V73.5455H355.798V91H352.781ZM366.822 91.2386C365.686 91.2386 364.669 91.0256 363.771 90.5994C362.874 90.1676 362.161 89.5767 361.632 88.8267C361.109 88.0767 360.831 87.2187 360.797 86.2528H363.865C363.922 86.9687 364.232 87.554 364.794 88.0085C365.357 88.4574 366.033 88.6818 366.822 88.6818C367.442 88.6818 367.993 88.5398 368.476 88.2557C368.959 87.9716 369.339 87.5767 369.618 87.071C369.896 86.5653 370.033 85.9886 370.027 85.3409C370.033 84.6818 369.893 84.0966 369.609 83.5852C369.325 83.0739 368.936 82.6733 368.442 82.3835C367.947 82.0881 367.379 81.9403 366.737 81.9403C366.214 81.9347 365.7 82.0312 365.195 82.2301C364.689 82.429 364.288 82.6903 363.993 83.0142L361.138 82.5455L362.05 73.5455H372.175V76.1875H364.666L364.163 80.8153H364.266C364.589 80.4347 365.047 80.1193 365.638 79.8693C366.229 79.6136 366.876 79.4858 367.581 79.4858C368.638 79.4858 369.581 79.7358 370.411 80.2358C371.24 80.7301 371.893 81.4119 372.371 82.2812C372.848 83.1506 373.087 84.1449 373.087 85.2642C373.087 86.4176 372.82 87.446 372.286 88.3494C371.757 89.2472 371.021 89.9545 370.078 90.4716C369.141 90.983 368.055 91.2386 366.822 91.2386ZM377.29 91.1875C376.773 91.1875 376.33 91.0057 375.961 90.642C375.592 90.2784 375.41 89.8352 375.415 89.3125C375.41 88.8011 375.592 88.3636 375.961 88C376.33 87.6364 376.773 87.4545 377.29 87.4545C377.79 87.4545 378.225 87.6364 378.594 88C378.969 88.3636 379.16 88.8011 379.165 89.3125C379.16 89.6591 379.069 89.9744 378.893 90.2585C378.722 90.5426 378.495 90.7699 378.211 90.9403C377.933 91.1051 377.626 91.1875 377.29 91.1875ZM388.119 73.3068C388.954 73.3125 389.766 73.4602 390.556 73.75C391.352 74.0341 392.067 74.5 392.704 75.1477C393.34 75.7898 393.846 76.6506 394.221 77.7301C394.596 78.8097 394.783 80.1449 394.783 81.7358C394.789 83.2358 394.63 84.5767 394.306 85.7585C393.988 86.9347 393.531 87.929 392.934 88.7415C392.337 89.554 391.619 90.1733 390.778 90.5994C389.937 91.0256 388.991 91.2386 387.94 91.2386C386.837 91.2386 385.86 91.0227 385.008 90.5909C384.161 90.1591 383.477 89.5682 382.954 88.8182C382.431 88.0682 382.11 87.2102 381.991 86.2443H385.102C385.261 86.9375 385.585 87.4886 386.073 87.8977C386.567 88.3011 387.19 88.5028 387.94 88.5028C389.15 88.5028 390.082 87.9773 390.735 86.9261C391.388 85.875 391.715 84.4148 391.715 82.5455H391.596C391.317 83.0455 390.957 83.4773 390.513 83.8409C390.07 84.1989 389.567 84.4744 389.005 84.6676C388.448 84.8608 387.857 84.9574 387.232 84.9574C386.21 84.9574 385.289 84.7131 384.471 84.2244C383.658 83.7358 383.013 83.0653 382.536 82.2131C382.065 81.3608 381.826 80.3864 381.82 79.2898C381.82 78.1534 382.082 77.1335 382.604 76.2301C383.133 75.321 383.869 74.6051 384.812 74.0824C385.755 73.554 386.857 73.2955 388.119 73.3068ZM388.127 75.8636C387.513 75.8636 386.96 76.0142 386.465 76.3153C385.977 76.6108 385.59 77.0142 385.306 77.5256C385.028 78.0312 384.888 78.5966 384.888 79.2216C384.894 79.8409 385.033 80.4034 385.306 80.9091C385.585 81.4148 385.962 81.8153 386.44 82.1108C386.923 82.4062 387.474 82.554 388.093 82.554C388.553 82.554 388.982 82.4659 389.38 82.2898C389.778 82.1136 390.124 81.8693 390.42 81.5568C390.721 81.2386 390.954 80.8778 391.119 80.4744C391.289 80.071 391.371 79.6449 391.366 79.196C391.366 78.5994 391.224 78.0483 390.94 77.5426C390.661 77.0369 390.278 76.6307 389.789 76.3239C389.306 76.017 388.752 75.8636 388.127 75.8636ZM403.826 91.2386C402.559 91.2386 401.434 91.0256 400.451 90.5994C399.474 90.1733 398.707 89.5909 398.15 88.8523C397.599 88.108 397.326 87.2642 397.332 86.321C397.326 85.5881 397.485 84.9148 397.809 84.3011C398.133 83.6875 398.57 83.1761 399.121 82.767C399.678 82.3523 400.298 82.0881 400.979 81.9744V81.8551C400.082 81.6562 399.354 81.1989 398.798 80.483C398.246 79.7614 397.974 78.929 397.979 77.9858C397.974 77.0881 398.224 76.2869 398.729 75.5824C399.235 74.8778 399.928 74.3239 400.809 73.9205C401.69 73.5114 402.695 73.3068 403.826 73.3068C404.945 73.3068 405.942 73.5114 406.817 73.9205C407.698 74.3239 408.391 74.8778 408.897 75.5824C409.408 76.2869 409.664 77.0881 409.664 77.9858C409.664 78.929 409.383 79.7614 408.82 80.483C408.263 81.1989 407.545 81.6562 406.664 81.8551V81.9744C407.346 82.0881 407.96 82.3523 408.505 82.767C409.056 83.1761 409.494 83.6875 409.817 84.3011C410.147 84.9148 410.312 85.5881 410.312 86.321C410.312 87.2642 410.033 88.108 409.477 88.8523C408.92 89.5909 408.153 90.1733 407.175 90.5994C406.204 91.0256 405.087 91.2386 403.826 91.2386ZM403.826 88.8011C404.479 88.8011 405.048 88.6903 405.531 88.4688C406.013 88.2415 406.388 87.9233 406.656 87.5142C406.923 87.1051 407.059 86.6335 407.065 86.0994C407.059 85.5426 406.914 85.0511 406.63 84.625C406.352 84.1932 405.968 83.8551 405.479 83.6108C404.996 83.3665 404.445 83.2443 403.826 83.2443C403.201 83.2443 402.644 83.3665 402.156 83.6108C401.667 83.8551 401.281 84.1932 400.996 84.625C400.718 85.0511 400.582 85.5426 400.587 86.0994C400.582 86.6335 400.712 87.1051 400.979 87.5142C401.246 87.9176 401.621 88.233 402.104 88.4602C402.593 88.6875 403.167 88.8011 403.826 88.8011ZM403.826 80.8494C404.36 80.8494 404.832 80.7415 405.241 80.5256C405.656 80.3097 405.982 80.0085 406.221 79.6222C406.46 79.2358 406.582 78.7898 406.587 78.2841C406.582 77.7841 406.462 77.3466 406.229 76.9716C405.996 76.5909 405.673 76.2983 405.258 76.0938C404.843 75.8835 404.366 75.7784 403.826 75.7784C403.275 75.7784 402.789 75.8835 402.369 76.0938C401.954 76.2983 401.63 76.5909 401.397 76.9716C401.17 77.3466 401.059 77.7841 401.065 78.2841C401.059 78.7898 401.173 79.2358 401.406 79.6222C401.644 80.0028 401.971 80.304 402.386 80.5256C402.806 80.7415 403.286 80.8494 403.826 80.8494Z" fill="white"/>
</g>
</g>
<defs>
<filter id="filter0_dd_35_1176" x="0" y="0" width="455" height="137" filterUnits="userSpaceOnUse" color-interpolation-filters="sRGB">
<feFlood flood-opacity="0" result="BackgroundImageFix"/>
<feColorMatrix in="SourceAlpha" type="matrix" values="0 0 0 0 0 0 0 0 0 0 0 0 0 0 0 0 0 0 127 0" result="hardAlpha"/>
<feOffset dy="1"/>
<feGaussianBlur stdDeviation="1"/>
<feColorMatrix type="matrix" values="0 0 0 0 0.0627451 0 0 0 0 0.0941176 0 0 0 0 0.156863 0 0 0 0.06 0"/>
<feBlend mode="normal" in2="BackgroundImageFix" result="effect1_dropShadow_35_1176"/>
<feColorMatrix in="SourceAlpha" type="matrix" values="0 0 0 0 0 0 0 0 0 0 0 0 0 0 0 0 0 0 127 0" result="hardAlpha"/>
<feOffset dy="1"/>
<feGaussianBlur stdDeviation="1.5"/>
<feColorMatrix type="matrix" values="0 0 0 0 0.0627451 0 0 0 0 0.0941176 0 0 0 0 0.156863 0 0 0 0.1 0"/>
<feBlend mode="normal" in2="effect1_dropShadow_35_1176" result="effect2_dropShadow_35_1176"/>
<feBlend mode="normal" in="SourceGraphic" in2="effect2_dropShadow_35_1176" result="shape"/>
</filter>
<filter id="filter1_b_35_1176" x="239" y="2" width="213" height="136" filterUnits="userSpaceOnUse" color-interpolation-filters="sRGB">
<feFlood flood-opacity="0" result="BackgroundImageFix"/>
<feGaussianBlur in="BackgroundImageFix" stdDeviation="12"/>
<feComposite in2="SourceAlpha" operator="in" result="effect1_backgroundBlur_35_1176"/>
<feBlend mode="normal" in="SourceGraphic" in2="effect1_backgroundBlur_35_1176" result="shape"/>
</filter>
</defs>
</svg>
