<svg width="65" height="65" viewBox="0 0 65 65" fill="none" xmlns="http://www.w3.org/2000/svg">
<circle cx="32.5" cy="32.5" r="32.5" fill="#D9D9D9" fill-opacity="0.04"/>
<circle cx="32.5" cy="32.5" r="32" stroke="white" stroke-opacity="0.15"/>
<path d="M24.6393 34.1433L29.5808 35.0345C30.1299 35.1335 30.4045 35.183 30.608 35.3536C30.8115 35.5242 30.9083 35.7859 31.1017 36.3092L32.8427 41.0189C33.7081 43.36 34.1408 44.5305 34.8627 44.5056C35.5847 44.4807 35.9357 43.2832 36.6378 40.8881L41.0904 25.6994C41.6418 23.8187 41.9174 22.8784 41.4162 22.4582C40.9149 22.0381 40.0372 22.4739 38.2818 23.3454L24.1049 30.3837C21.8694 31.4935 20.7516 32.0485 20.8533 32.7636C20.9549 33.4788 22.1831 33.7003 24.6393 34.1433Z" fill="white"/>
</svg>
