<svg width="29" height="29" viewBox="0 0 29 29" fill="none" xmlns="http://www.w3.org/2000/svg">
<path d="M11.5548 5.52482C12.8524 2.28985 13.5012 0.672363 14.6169 0.672363C15.7326 0.672363 16.3815 2.28985 17.6791 5.52483L17.7395 5.67546C18.4726 7.50306 18.8391 8.41686 19.5862 8.97228C20.3332 9.52771 21.3139 9.61553 23.2752 9.79118L23.6298 9.82294C26.8397 10.1104 28.4447 10.2541 28.7881 11.2753C29.1315 12.2964 27.9396 13.3808 25.5558 15.5495L24.7602 16.2734C23.5534 17.3712 22.9501 17.9202 22.6688 18.6396C22.6164 18.7738 22.5728 18.9113 22.5383 19.0513C22.3534 19.8013 22.5301 20.5976 22.8835 22.1903L22.9935 22.6861C23.6429 25.6131 23.9676 27.0766 23.4007 27.7079C23.1888 27.9438 22.9135 28.1136 22.6076 28.1971C21.789 28.4205 20.6269 27.4735 18.3026 25.5795C16.7764 24.3359 16.0133 23.714 15.1371 23.5742C14.7925 23.5191 14.4414 23.5191 14.0967 23.5742C13.2206 23.714 12.4575 24.3359 10.9313 25.5795C8.60698 27.4735 7.44484 28.4205 6.62628 28.1971C6.3204 28.1136 6.04506 27.9438 5.8332 27.7079C5.26625 27.0766 5.59096 25.6131 6.24039 22.6861L6.35038 22.1903C6.70375 20.5976 6.88044 19.8013 6.69559 19.0513C6.66111 18.9113 6.61749 18.7738 6.56504 18.6396C6.28381 17.9202 5.68044 17.3712 4.47371 16.2734L3.67811 15.5495C1.29429 13.3808 0.102374 12.2964 0.445797 11.2753C0.78922 10.2541 2.39418 10.1104 5.6041 9.82294L5.95868 9.79118C7.91998 9.61553 8.90063 9.52771 9.64768 8.97228C10.3947 8.41686 10.7613 7.50306 11.4944 5.67546L11.5548 5.52482Z" fill="#EEA22F"/>
</svg>
