<svg width="1054" height="85" viewBox="0 0 1054 85" fill="none" xmlns="http://www.w3.org/2000/svg">
<path d="M25.3778 47V41.2898L40.527 26.4389C41.9759 24.9759 43.1832 23.6761 44.1491 22.5398C45.1151 21.4034 45.8395 20.3026 46.3224 19.2372C46.8054 18.1719 47.0469 17.0355 47.0469 15.8281C47.0469 14.4503 46.7344 13.2713 46.1094 12.2912C45.4844 11.2969 44.625 10.5298 43.5312 9.99006C42.4375 9.45028 41.1946 9.1804 39.8026 9.1804C38.3679 9.1804 37.1108 9.47869 36.0312 10.0753C34.9517 10.6577 34.1136 11.4886 33.517 12.5682C32.9347 13.6477 32.6435 14.9332 32.6435 16.4247H25.1222C25.1222 13.6548 25.7543 11.2472 27.0185 9.2017C28.2827 7.15625 30.0227 5.57244 32.2386 4.45028C34.4688 3.32812 37.0256 2.76704 39.9091 2.76704C42.8352 2.76704 45.4063 3.31392 47.6222 4.40767C49.8381 5.50142 51.5568 7 52.7784 8.90341C54.0142 10.8068 54.6321 12.9801 54.6321 15.4233C54.6321 17.0568 54.3196 18.6619 53.6946 20.2386C53.0696 21.8153 51.9688 23.5625 50.392 25.4801C48.8295 27.3977 46.6349 29.7202 43.8082 32.4474L36.2869 40.0966V40.3949H55.2926V47H25.3778ZM75.4139 47.5966C72.573 47.5966 70.0304 47.0639 67.7861 45.9986C65.5418 44.919 63.7591 43.4418 62.4381 41.5668C61.1312 39.6918 60.4352 37.5469 60.35 35.1321H68.0205C68.1625 36.9219 68.9366 38.3849 70.3429 39.5213C71.7491 40.6435 73.4395 41.2045 75.4139 41.2045C76.9622 41.2045 78.3401 40.8494 79.5474 40.1392C80.7548 39.429 81.7065 38.4418 82.4026 37.1776C83.0986 35.9134 83.4395 34.4716 83.4253 32.8523C83.4395 31.2045 83.0915 29.7415 82.3812 28.4631C81.671 27.1847 80.698 26.1832 79.4622 25.4588C78.2264 24.7202 76.806 24.3509 75.2009 24.3509C73.894 24.3366 72.6085 24.5781 71.3443 25.0753C70.0801 25.5724 69.0787 26.2259 68.3401 27.0355L61.2023 25.8636L63.4821 3.36364H88.7946V9.96875H70.0233L68.7662 21.5384H69.0219C69.8315 20.5866 70.975 19.7983 72.4523 19.1733C73.9295 18.5341 75.5489 18.2145 77.3102 18.2145C79.9523 18.2145 82.3102 18.8395 84.3841 20.0895C86.458 21.3253 88.0915 23.0298 89.2847 25.2031C90.4778 27.3764 91.0744 29.8622 91.0744 32.6605C91.0744 35.544 90.4068 38.1151 89.0716 40.3736C87.7506 42.6179 85.9111 44.3864 83.5531 45.679C81.2094 46.9574 78.4963 47.5966 75.4139 47.5966ZM111.792 47.5966C109.704 47.5824 107.666 47.2202 105.677 46.5099C103.689 45.7855 101.899 44.6136 100.308 42.9943C98.717 41.3608 97.4528 39.1946 96.5153 36.4957C95.5778 33.7827 95.1162 30.4233 95.1304 26.4176C95.1304 22.6818 95.5281 19.3509 96.3236 16.4247C97.119 13.4986 98.2625 11.027 99.754 9.00994C101.245 6.97869 103.042 5.4304 105.145 4.36505C107.261 3.29971 109.626 2.76704 112.24 2.76704C114.981 2.76704 117.41 3.30682 119.527 4.38636C121.657 5.46591 123.376 6.94318 124.683 8.81818C125.99 10.679 126.799 12.7812 127.112 15.125H119.335C118.937 13.4489 118.12 12.1136 116.885 11.1193C115.663 10.1108 114.115 9.60653 112.24 9.60653C109.214 9.60653 106.885 10.9205 105.251 13.5483C103.632 16.1761 102.815 19.7841 102.801 24.3722H103.099C103.795 23.1222 104.697 22.0497 105.805 21.1548C106.913 20.2599 108.163 19.571 109.555 19.0881C110.961 18.5909 112.446 18.3423 114.008 18.3423C116.565 18.3423 118.859 18.9531 120.89 20.1747C122.936 21.3963 124.555 23.0795 125.748 25.2244C126.941 27.3551 127.531 29.7983 127.517 32.554C127.531 35.4233 126.878 38.0014 125.557 40.2884C124.236 42.5611 122.396 44.3509 120.038 45.6577C117.68 46.9645 114.932 47.6108 111.792 47.5966ZM111.75 41.2045C113.298 41.2045 114.683 40.8281 115.905 40.0753C117.126 39.3224 118.092 38.3068 118.802 37.0284C119.512 35.75 119.861 34.3153 119.846 32.7244C119.861 31.1619 119.52 29.7486 118.824 28.4844C118.142 27.2202 117.197 26.2187 115.99 25.4801C114.782 24.7415 113.405 24.3722 111.856 24.3722C110.706 24.3722 109.633 24.5923 108.639 25.0327C107.645 25.473 106.778 26.0838 106.039 26.8651C105.301 27.6321 104.718 28.527 104.292 29.5497C103.88 30.5582 103.667 31.6378 103.653 32.7884C103.667 34.3082 104.022 35.7074 104.718 36.9858C105.414 38.2642 106.373 39.2869 107.595 40.054C108.816 40.821 110.201 41.2045 111.75 41.2045ZM145.273 40.0114V10.5227H151.963V40.0114H145.273ZM133.874 28.6122V21.9219H163.363V28.6122H133.874ZM32.0341 67C31.8935 66.5696 31.7081 66.1839 31.478 65.843C31.2521 65.4979 30.9815 65.2038 30.6662 64.9609C30.3551 64.718 30.0014 64.5327 29.6051 64.4048C29.2088 64.277 28.7741 64.2131 28.3011 64.2131C27.5256 64.2131 26.8203 64.4134 26.1854 64.8139C25.5504 65.2145 25.0455 65.8047 24.6705 66.5845C24.2955 67.3643 24.108 68.321 24.108 69.4545C24.108 70.5881 24.2976 71.5447 24.6768 72.3246C25.0561 73.1044 25.5696 73.6946 26.2173 74.0952C26.8651 74.4957 27.5938 74.696 28.4034 74.696C29.1534 74.696 29.8139 74.5362 30.3849 74.2166C30.9602 73.8928 31.4077 73.4368 31.7273 72.8487C32.0511 72.2564 32.2131 71.5597 32.2131 70.7585L32.6989 70.8608H28.7614V69.4545H33.7472V70.8608C33.7472 71.9389 33.517 72.8764 33.0568 73.6733C32.6009 74.4702 31.9702 75.0881 31.1648 75.527C30.3636 75.9616 29.4432 76.179 28.4034 76.179C27.2443 76.179 26.2259 75.9062 25.348 75.3608C24.4744 74.8153 23.7926 74.0398 23.3026 73.0341C22.8168 72.0284 22.5739 70.8352 22.5739 69.4545C22.5739 68.419 22.7124 67.4879 22.9893 66.6612C23.2706 65.8303 23.6669 65.1229 24.1783 64.5391C24.6896 63.9553 25.2947 63.5078 25.9936 63.1967C26.6925 62.8857 27.4616 62.7301 28.3011 62.7301C28.9915 62.7301 29.6349 62.8345 30.2315 63.0433C30.8324 63.2479 31.3672 63.5398 31.8359 63.919C32.3089 64.294 32.7031 64.7436 33.0185 65.2678C33.3338 65.7876 33.5511 66.3651 33.6705 67H32.0341ZM37.0462 62.9091V76H35.5376V62.9091H37.0462ZM43.0778 76.2045C42.1914 76.2045 41.4137 75.9936 40.7447 75.5717C40.0799 75.1499 39.56 74.5597 39.185 73.8011C38.8143 73.0426 38.6289 72.1562 38.6289 71.142C38.6289 70.1193 38.8143 69.2266 39.185 68.4638C39.56 67.701 40.0799 67.1087 40.7447 66.6868C41.4137 66.2649 42.1914 66.054 43.0778 66.054C43.9641 66.054 44.7397 66.2649 45.4045 66.6868C46.0735 67.1087 46.5934 67.701 46.9641 68.4638C47.3391 69.2266 47.5266 70.1193 47.5266 71.142C47.5266 72.1562 47.3391 73.0426 46.9641 73.8011C46.5934 74.5597 46.0735 75.1499 45.4045 75.5717C44.7397 75.9936 43.9641 76.2045 43.0778 76.2045ZM43.0778 74.8494C43.7511 74.8494 44.305 74.6768 44.7397 74.3317C45.1743 73.9865 45.4961 73.5327 45.7049 72.9702C45.9137 72.4077 46.0181 71.7983 46.0181 71.142C46.0181 70.4858 45.9137 69.8743 45.7049 69.3075C45.4961 68.7408 45.1743 68.2827 44.7397 67.9332C44.305 67.5838 43.7511 67.4091 43.0778 67.4091C42.4045 67.4091 41.8505 67.5838 41.4158 67.9332C40.9812 68.2827 40.6594 68.7408 40.4506 69.3075C40.2418 69.8743 40.1374 70.4858 40.1374 71.142C40.1374 71.7983 40.2418 72.4077 40.4506 72.9702C40.6594 73.5327 40.9812 73.9865 41.4158 74.3317C41.8505 74.6768 42.4045 74.8494 43.0778 74.8494ZM49.3139 76V62.9091H50.8224V67.7415H50.9503C51.0611 67.571 51.2145 67.3537 51.4105 67.0895C51.6108 66.821 51.8963 66.5824 52.267 66.3736C52.642 66.1605 53.1491 66.054 53.7883 66.054C54.615 66.054 55.3437 66.2607 55.9744 66.674C56.6051 67.0874 57.0973 67.6733 57.451 68.4318C57.8047 69.1903 57.9815 70.0852 57.9815 71.1165C57.9815 72.1562 57.8047 73.0575 57.451 73.8203C57.0973 74.5788 56.6072 75.1669 55.9808 75.5845C55.3544 75.9979 54.6321 76.2045 53.8139 76.2045C53.1832 76.2045 52.6782 76.1001 52.299 75.8913C51.9197 75.6783 51.6278 75.4375 51.4233 75.169C51.2187 74.8963 51.0611 74.6705 50.9503 74.4915H50.7713V76H49.3139ZM50.7969 71.0909C50.7969 71.8324 50.9055 72.4865 51.1228 73.0533C51.3402 73.6158 51.6576 74.0568 52.0753 74.3764C52.4929 74.6918 53.0042 74.8494 53.6094 74.8494C54.24 74.8494 54.7663 74.6832 55.1882 74.3509C55.6143 74.0142 55.9339 73.5625 56.147 72.9957C56.3643 72.4247 56.473 71.7898 56.473 71.0909C56.473 70.4006 56.3665 69.7784 56.1534 69.2244C55.9446 68.6662 55.6271 68.2251 55.201 67.9013C54.7791 67.5732 54.2486 67.4091 53.6094 67.4091C52.9957 67.4091 52.4801 67.5646 52.0625 67.8757C51.6449 68.1825 51.3295 68.6129 51.1165 69.1669C50.9034 69.7166 50.7969 70.358 50.7969 71.0909ZM62.4582 76.2301C61.8361 76.2301 61.2715 76.1129 60.7644 75.8786C60.2573 75.6399 59.8546 75.2969 59.5563 74.8494C59.258 74.3977 59.1088 73.8523 59.1088 73.2131C59.1088 72.6506 59.2196 72.1946 59.4412 71.8452C59.6628 71.4915 59.959 71.2145 60.3297 71.0142C60.7004 70.8139 61.1095 70.6648 61.557 70.5668C62.0087 70.4645 62.4625 70.3835 62.9185 70.3239C63.5151 70.2472 63.9987 70.1896 64.3695 70.1513C64.7445 70.1087 65.0172 70.0384 65.1876 69.9403C65.3624 69.8423 65.4497 69.6719 65.4497 69.429V69.3778C65.4497 68.7472 65.2771 68.2571 64.932 67.9077C64.5911 67.5582 64.0733 67.3835 63.3787 67.3835C62.6585 67.3835 62.0939 67.5412 61.6848 67.8565C61.2757 68.1719 60.9881 68.5085 60.8219 68.8665L59.3901 68.3551C59.6457 67.7585 59.9867 67.294 60.4128 66.9616C60.8432 66.625 61.3119 66.3906 61.819 66.2585C62.3304 66.1222 62.8332 66.054 63.3276 66.054C63.6429 66.054 64.0051 66.0923 64.4142 66.169C64.8276 66.2415 65.226 66.3928 65.6095 66.6229C65.9973 66.853 66.319 67.2003 66.5747 67.6648C66.8304 68.1293 66.9582 68.7514 66.9582 69.5312V76H65.4497V74.6705H65.373C65.2707 74.8835 65.1003 75.1115 64.8617 75.3544C64.623 75.5973 64.3055 75.804 63.9092 75.9744C63.5129 76.1449 63.0293 76.2301 62.4582 76.2301ZM62.6884 74.875C63.2849 74.875 63.7878 74.7578 64.1969 74.5234C64.6102 74.2891 64.9213 73.9865 65.1301 73.6158C65.3432 73.245 65.4497 72.8551 65.4497 72.446V71.0653C65.3858 71.142 65.2452 71.2124 65.0278 71.2763C64.8148 71.3359 64.5676 71.3892 64.2864 71.4361C64.0094 71.4787 63.7388 71.517 63.4746 71.5511C63.2146 71.581 63.0037 71.6065 62.8418 71.6278C62.4497 71.679 62.0832 71.7621 61.7423 71.8771C61.4057 71.9879 61.133 72.1562 60.9242 72.3821C60.7196 72.6037 60.6173 72.9062 60.6173 73.2898C60.6173 73.8139 60.8112 74.2102 61.199 74.4787C61.5911 74.7429 62.0875 74.875 62.6884 74.875ZM70.5001 62.9091V76H68.9916V62.9091H70.5001ZM77.0901 76V62.9091H81.5134C82.5404 62.9091 83.3799 63.0945 84.0319 63.4652C84.6882 63.8317 85.174 64.3281 85.4893 64.9545C85.8046 65.581 85.9623 66.2798 85.9623 67.0511C85.9623 67.8224 85.8046 68.5234 85.4893 69.1541C85.1782 69.7848 84.6967 70.2876 84.0447 70.6626C83.3927 71.0334 82.5575 71.2188 81.539 71.2188H78.3686V69.8125H81.4879C82.191 69.8125 82.7556 69.6911 83.1818 69.4482C83.6079 69.2053 83.9169 68.8771 84.1086 68.4638C84.3046 68.0462 84.4026 67.5753 84.4026 67.0511C84.4026 66.527 84.3046 66.0582 84.1086 65.6449C83.9169 65.2315 83.6058 64.9077 83.1754 64.6733C82.745 64.4347 82.174 64.3153 81.4623 64.3153H78.6754V76H77.0901ZM90.4806 76.2301C89.8584 76.2301 89.2938 76.1129 88.7867 75.8786C88.2796 75.6399 87.8769 75.2969 87.5786 74.8494C87.2803 74.3977 87.1312 73.8523 87.1312 73.2131C87.1312 72.6506 87.242 72.1946 87.4635 71.8452C87.6851 71.4915 87.9813 71.2145 88.352 71.0142C88.7228 70.8139 89.1319 70.6648 89.5793 70.5668C90.031 70.4645 90.4848 70.3835 90.9408 70.3239C91.5374 70.2472 92.0211 70.1896 92.3918 70.1513C92.7668 70.1087 93.0395 70.0384 93.21 69.9403C93.3847 69.8423 93.4721 69.6719 93.4721 69.429V69.3778C93.4721 68.7472 93.2995 68.2571 92.9543 67.9077C92.6134 67.5582 92.0956 67.3835 91.401 67.3835C90.6809 67.3835 90.1162 67.5412 89.7072 67.8565C89.2981 68.1719 89.0104 68.5085 88.8442 68.8665L87.4124 68.3551C87.6681 67.7585 88.009 67.294 88.4351 66.9616C88.8655 66.625 89.3343 66.3906 89.8414 66.2585C90.3527 66.1222 90.8556 66.054 91.3499 66.054C91.6652 66.054 92.0275 66.0923 92.4366 66.169C92.8499 66.2415 93.2483 66.3928 93.6319 66.6229C94.0196 66.853 94.3414 67.2003 94.5971 67.6648C94.8527 68.1293 94.9806 68.7514 94.9806 69.5312V76H93.4721V74.6705H93.3954C93.2931 74.8835 93.1226 75.1115 92.884 75.3544C92.6454 75.5973 92.3279 75.804 91.9316 75.9744C91.5353 76.1449 91.0516 76.2301 90.4806 76.2301ZM90.7107 74.875C91.3073 74.875 91.8101 74.7578 92.2192 74.5234C92.6326 74.2891 92.9437 73.9865 93.1525 73.6158C93.3655 73.245 93.4721 72.8551 93.4721 72.446V71.0653C93.4081 71.142 93.2675 71.2124 93.0502 71.2763C92.8371 71.3359 92.59 71.3892 92.3087 71.4361C92.0317 71.4787 91.7611 71.517 91.4969 71.5511C91.237 71.581 91.026 71.6065 90.8641 71.6278C90.4721 71.679 90.1056 71.7621 89.7647 71.8771C89.428 71.9879 89.1553 72.1562 88.9465 72.3821C88.742 72.6037 88.6397 72.9062 88.6397 73.2898C88.6397 73.8139 88.8336 74.2102 89.2214 74.4787C89.6134 74.7429 90.1098 74.875 90.7107 74.875ZM97.014 76V66.1818H98.4713V67.6648H98.5736C98.7526 67.179 99.0765 66.7848 99.5452 66.4822C100.014 66.1797 100.542 66.0284 101.13 66.0284C101.241 66.0284 101.38 66.0305 101.546 66.0348C101.712 66.0391 101.838 66.0455 101.923 66.054V67.5881C101.872 67.5753 101.755 67.5561 101.571 67.5305C101.393 67.5007 101.203 67.4858 101.003 67.4858C100.525 67.4858 100.099 67.5859 99.7242 67.7862C99.3534 67.9822 99.0594 68.255 98.8421 68.6044C98.629 68.9496 98.5225 69.3437 98.5225 69.7869V76H97.014ZM107.876 66.1818V67.4602H102.788V66.1818H107.876ZM104.271 63.8295H105.78V73.1875C105.78 73.6136 105.842 73.9332 105.965 74.1463C106.093 74.3551 106.255 74.4957 106.451 74.5682C106.651 74.6364 106.862 74.6705 107.084 74.6705C107.25 74.6705 107.386 74.6619 107.493 74.6449C107.599 74.6236 107.685 74.6065 107.749 74.5938L108.055 75.9489C107.953 75.9872 107.81 76.0256 107.627 76.0639C107.444 76.1065 107.212 76.1278 106.93 76.1278C106.504 76.1278 106.087 76.0362 105.677 75.853C105.273 75.6697 104.936 75.3906 104.668 75.0156C104.403 74.6406 104.271 74.1676 104.271 73.5966V63.8295ZM110.934 70.0938V76H109.426V66.1818H110.883V67.7159H111.011C111.241 67.2173 111.59 66.8168 112.059 66.5142C112.528 66.2074 113.133 66.054 113.874 66.054C114.539 66.054 115.121 66.1903 115.619 66.4631C116.118 66.7315 116.506 67.1406 116.783 67.6903C117.06 68.2358 117.198 68.9261 117.198 69.7614V76H115.69V69.8636C115.69 69.0923 115.489 68.4915 115.089 68.0611C114.688 67.6264 114.139 67.4091 113.44 67.4091C112.958 67.4091 112.528 67.5135 112.149 67.7223C111.774 67.9311 111.477 68.2358 111.26 68.6364C111.043 69.0369 110.934 69.5227 110.934 70.0938ZM123.351 76.2045C122.405 76.2045 121.589 75.9957 120.903 75.5781C120.221 75.1562 119.695 74.5682 119.324 73.8139C118.958 73.0554 118.775 72.1733 118.775 71.1676C118.775 70.1619 118.958 69.2756 119.324 68.5085C119.695 67.7372 120.211 67.1364 120.871 66.706C121.536 66.2713 122.312 66.054 123.198 66.054C123.709 66.054 124.214 66.1392 124.713 66.3097C125.211 66.4801 125.665 66.7571 126.074 67.1406C126.483 67.5199 126.809 68.0227 127.052 68.6491C127.295 69.2756 127.417 70.0469 127.417 70.9631V71.6023H119.848V70.2983H125.883C125.883 69.7443 125.772 69.25 125.55 68.8153C125.333 68.3807 125.022 68.0376 124.617 67.7862C124.216 67.5348 123.743 67.4091 123.198 67.4091C122.597 67.4091 122.077 67.5582 121.638 67.8565C121.204 68.1506 120.869 68.5341 120.635 69.0071C120.4 69.4801 120.283 69.9872 120.283 70.5284V71.3977C120.283 72.1392 120.411 72.7678 120.667 73.2834C120.927 73.7947 121.287 74.1847 121.747 74.4531C122.207 74.7173 122.742 74.8494 123.351 74.8494C123.748 74.8494 124.106 74.794 124.425 74.6832C124.749 74.5682 125.028 74.3977 125.263 74.1719C125.497 73.9418 125.678 73.6562 125.806 73.3153L127.263 73.7244C127.11 74.2188 126.852 74.6534 126.49 75.0284C126.128 75.3991 125.68 75.6889 125.147 75.8977C124.615 76.1023 124.016 76.2045 123.351 76.2045ZM128.991 76V66.1818H130.449V67.6648H130.551C130.73 67.179 131.054 66.7848 131.523 66.4822C131.991 66.1797 132.52 66.0284 133.108 66.0284C133.219 66.0284 133.357 66.0305 133.523 66.0348C133.69 66.0391 133.815 66.0455 133.9 66.054V67.5881C133.849 67.5753 133.732 67.5561 133.549 67.5305C133.37 67.5007 133.18 67.4858 132.98 67.4858C132.503 67.4858 132.077 67.5859 131.702 67.7862C131.331 67.9822 131.037 68.255 130.82 68.6044C130.606 68.9496 130.5 69.3437 130.5 69.7869V76H128.991ZM141.923 68.3807L140.568 68.7642C140.483 68.5384 140.357 68.3189 140.191 68.1058C140.029 67.8885 139.807 67.7095 139.526 67.5689C139.245 67.4283 138.885 67.358 138.446 67.358C137.845 67.358 137.344 67.4964 136.944 67.7734C136.547 68.0462 136.349 68.3935 136.349 68.8153C136.349 69.1903 136.486 69.4865 136.758 69.7038C137.031 69.9212 137.457 70.1023 138.037 70.2472L139.494 70.6051C140.372 70.8182 141.026 71.1442 141.457 71.5831C141.887 72.0178 142.102 72.5781 142.102 73.2642C142.102 73.8267 141.94 74.3295 141.616 74.7727C141.297 75.2159 140.849 75.5653 140.274 75.821C139.699 76.0767 139.03 76.2045 138.267 76.2045C137.266 76.2045 136.437 75.9872 135.78 75.5526C135.124 75.1179 134.709 74.483 134.534 73.6477L135.966 73.2898C136.102 73.8182 136.36 74.2145 136.739 74.4787C137.123 74.7429 137.623 74.875 138.241 74.875C138.945 74.875 139.503 74.7259 139.916 74.4276C140.334 74.125 140.543 73.7628 140.543 73.3409C140.543 73 140.423 72.7145 140.185 72.4844C139.946 72.25 139.579 72.0753 139.085 71.9602L137.449 71.5767C136.55 71.3636 135.889 71.0334 135.467 70.5859C135.05 70.1342 134.841 69.5696 134.841 68.892C134.841 68.3381 134.996 67.848 135.307 67.4219C135.623 66.9957 136.051 66.6612 136.592 66.4183C137.138 66.1754 137.756 66.054 138.446 66.054C139.418 66.054 140.18 66.267 140.734 66.6932C141.293 67.1193 141.689 67.6818 141.923 68.3807Z" fill="black"/>
<line x1="1" y1="-2.18557e-08" x2="1" y2="76" stroke="black" stroke-opacity="0.25"/>
<path d="M360.038 47.5966C356.97 47.5966 354.243 47.071 351.857 46.0199C349.484 44.9687 347.609 43.5057 346.232 41.6307C344.854 39.7557 344.122 37.5895 344.037 35.1321H352.048C352.119 36.3111 352.51 37.3409 353.22 38.2216C353.93 39.0881 354.875 39.7628 356.054 40.2457C357.233 40.7287 358.554 40.9702 360.017 40.9702C361.58 40.9702 362.964 40.7003 364.172 40.1605C365.379 39.6065 366.324 38.8395 367.006 37.8594C367.688 36.8793 368.021 35.75 368.007 34.4716C368.021 33.1506 367.68 31.9858 366.984 30.9773C366.288 29.9687 365.28 29.1804 363.959 28.6122C362.652 28.044 361.075 27.7599 359.229 27.7599H355.372V21.6662H359.229C360.749 21.6662 362.077 21.4034 363.213 20.8778C364.364 20.3523 365.266 19.6136 365.919 18.6619C366.572 17.696 366.892 16.581 366.878 15.3168C366.892 14.081 366.615 13.0085 366.047 12.0994C365.493 11.1761 364.705 10.4588 363.682 9.94744C362.673 9.43608 361.487 9.1804 360.124 9.1804C358.788 9.1804 357.553 9.42187 356.416 9.90483C355.28 10.3878 354.364 11.0767 353.668 11.9716C352.972 12.8523 352.602 13.9034 352.56 15.125H344.953C345.01 12.6818 345.713 10.5369 347.062 8.69034C348.426 6.82954 350.244 5.38068 352.517 4.34375C354.79 3.29261 357.339 2.76704 360.166 2.76704C363.078 2.76704 365.607 3.31392 367.751 4.40767C369.911 5.48721 371.58 6.94318 372.759 8.77557C373.938 10.608 374.527 12.6321 374.527 14.848C374.541 17.3054 373.817 19.3651 372.354 21.027C370.905 22.6889 369.001 23.7756 366.643 24.2869V24.6278C369.712 25.054 372.063 26.1903 373.696 28.0369C375.344 29.8693 376.161 32.1491 376.146 34.8764C376.146 37.3196 375.45 39.5071 374.058 41.4389C372.68 43.3565 370.777 44.8622 368.348 45.956C365.933 47.0497 363.163 47.5966 360.038 47.5966ZM381.06 47V41.2898L396.209 26.4389C397.658 24.9759 398.865 23.6761 399.831 22.5398C400.797 21.4034 401.522 20.3026 402.004 19.2372C402.487 18.1719 402.729 17.0355 402.729 15.8281C402.729 14.4503 402.416 13.2713 401.791 12.2912C401.166 11.2969 400.307 10.5298 399.213 9.99006C398.12 9.45028 396.877 9.1804 395.485 9.1804C394.05 9.1804 392.793 9.47869 391.713 10.0753C390.634 10.6577 389.796 11.4886 389.199 12.5682C388.617 13.6477 388.325 14.9332 388.325 16.4247H380.804C380.804 13.6548 381.436 11.2472 382.7 9.2017C383.965 7.15625 385.705 5.57244 387.921 4.45028C390.151 3.32812 392.708 2.76704 395.591 2.76704C398.517 2.76704 401.088 3.31392 403.304 4.40767C405.52 5.50142 407.239 7 408.46 8.90341C409.696 10.8068 410.314 12.9801 410.314 15.4233C410.314 17.0568 410.002 18.6619 409.377 20.2386C408.752 21.8153 407.651 23.5625 406.074 25.4801C404.512 27.3977 402.317 29.7202 399.49 32.4474L391.969 40.0966V40.3949H410.975V47H381.06ZM342.622 76H340.96L345.767 62.9091H347.403L352.21 76H350.548L346.636 64.9801H346.534L342.622 76ZM343.236 70.8864H349.935V72.2926H343.236V70.8864ZM360.123 66.1818L356.492 76H354.958L351.327 66.1818H352.964L355.674 74.0057H355.776L358.486 66.1818H360.123ZM363.984 76.2301C363.362 76.2301 362.797 76.1129 362.29 75.8786C361.783 75.6399 361.38 75.2969 361.082 74.8494C360.784 74.3977 360.635 73.8523 360.635 73.2131C360.635 72.6506 360.746 72.1946 360.967 71.8452C361.189 71.4915 361.485 71.2145 361.856 71.0142C362.226 70.8139 362.635 70.6648 363.083 70.5668C363.535 70.4645 363.988 70.3835 364.444 70.3239C365.041 70.2472 365.525 70.1896 365.895 70.1513C366.27 70.1087 366.543 70.0384 366.714 69.9403C366.888 69.8423 366.976 69.6719 366.976 69.429V69.3778C366.976 68.7472 366.803 68.2571 366.458 67.9077C366.117 67.5582 365.599 67.3835 364.905 67.3835C364.184 67.3835 363.62 67.5412 363.211 67.8565C362.802 68.1719 362.514 68.5085 362.348 68.8665L360.916 68.3551C361.172 67.7585 361.513 67.294 361.939 66.9616C362.369 66.625 362.838 66.3906 363.345 66.2585C363.856 66.1222 364.359 66.054 364.854 66.054C365.169 66.054 365.531 66.0923 365.94 66.169C366.354 66.2415 366.752 66.3928 367.135 66.6229C367.523 66.853 367.845 67.2003 368.101 67.6648C368.356 68.1293 368.484 68.7514 368.484 69.5312V76H366.976V74.6705H366.899C366.797 74.8835 366.626 75.1115 366.388 75.3544C366.149 75.5973 365.831 75.804 365.435 75.9744C365.039 76.1449 364.555 76.2301 363.984 76.2301ZM364.214 74.875C364.811 74.875 365.314 74.7578 365.723 74.5234C366.136 74.2891 366.447 73.9865 366.656 73.6158C366.869 73.245 366.976 72.8551 366.976 72.446V71.0653C366.912 71.142 366.771 71.2124 366.554 71.2763C366.341 71.3359 366.094 71.3892 365.812 71.4361C365.535 71.4787 365.265 71.517 365.001 71.5511C364.741 71.581 364.53 71.6065 364.368 71.6278C363.976 71.679 363.609 71.7621 363.268 71.8771C362.932 71.9879 362.659 72.1562 362.45 72.3821C362.246 72.6037 362.143 72.9062 362.143 73.2898C362.143 73.8139 362.337 74.2102 362.725 74.4787C363.117 74.7429 363.613 74.875 364.214 74.875ZM372.026 62.9091V76H370.518V62.9091H372.026ZM374.069 76V66.1818H375.578V76H374.069ZM374.836 64.5455C374.542 64.5455 374.289 64.4453 374.075 64.245C373.867 64.0447 373.762 63.804 373.762 63.5227C373.762 63.2415 373.867 63.0007 374.075 62.8004C374.289 62.6001 374.542 62.5 374.836 62.5C375.13 62.5 375.382 62.6001 375.59 62.8004C375.803 63.0007 375.91 63.2415 375.91 63.5227C375.91 63.804 375.803 64.0447 375.59 64.245C375.382 64.4453 375.13 64.5455 374.836 64.5455ZM380.51 76.2301C379.888 76.2301 379.323 76.1129 378.816 75.8786C378.309 75.6399 377.906 75.2969 377.608 74.8494C377.309 74.3977 377.16 73.8523 377.16 73.2131C377.16 72.6506 377.271 72.1946 377.493 71.8452C377.714 71.4915 378.01 71.2145 378.381 71.0142C378.752 70.8139 379.161 70.6648 379.608 70.5668C380.06 70.4645 380.514 70.3835 380.97 70.3239C381.567 70.2472 382.05 70.1896 382.421 70.1513C382.796 70.1087 383.069 70.0384 383.239 69.9403C383.414 69.8423 383.501 69.6719 383.501 69.429V69.3778C383.501 68.7472 383.329 68.2571 382.983 67.9077C382.643 67.5582 382.125 67.3835 381.43 67.3835C380.71 67.3835 380.145 67.5412 379.736 67.8565C379.327 68.1719 379.04 68.5085 378.873 68.8665L377.442 68.3551C377.697 67.7585 378.038 67.294 378.464 66.9616C378.895 66.625 379.363 66.3906 379.871 66.2585C380.382 66.1222 380.885 66.054 381.379 66.054C381.694 66.054 382.057 66.0923 382.466 66.169C382.879 66.2415 383.277 66.3928 383.661 66.6229C384.049 66.853 384.371 67.2003 384.626 67.6648C384.882 68.1293 385.01 68.7514 385.01 69.5312V76H383.501V74.6705H383.425C383.322 74.8835 383.152 75.1115 382.913 75.3544C382.675 75.5973 382.357 75.804 381.961 75.9744C381.564 76.1449 381.081 76.2301 380.51 76.2301ZM380.74 74.875C381.336 74.875 381.839 74.7578 382.248 74.5234C382.662 74.2891 382.973 73.9865 383.182 73.6158C383.395 73.245 383.501 72.8551 383.501 72.446V71.0653C383.437 71.142 383.297 71.2124 383.079 71.2763C382.866 71.3359 382.619 71.3892 382.338 71.4361C382.061 71.4787 381.79 71.517 381.526 71.5511C381.266 71.581 381.055 71.6065 380.893 71.6278C380.501 71.679 380.135 71.7621 379.794 71.8771C379.457 71.9879 379.184 72.1562 378.976 72.3821C378.771 72.6037 378.669 72.9062 378.669 73.2898C378.669 73.8139 378.863 74.2102 379.25 74.4787C379.643 74.7429 380.139 74.875 380.74 74.875ZM387.248 76V62.9091H388.756V67.7415H388.884C388.995 67.571 389.148 67.3537 389.344 67.0895C389.545 66.821 389.83 66.5824 390.201 66.3736C390.576 66.1605 391.083 66.054 391.722 66.054C392.549 66.054 393.277 66.2607 393.908 66.674C394.539 67.0874 395.031 67.6733 395.385 68.4318C395.738 69.1903 395.915 70.0852 395.915 71.1165C395.915 72.1562 395.738 73.0575 395.385 73.8203C395.031 74.5788 394.541 75.1669 393.915 75.5845C393.288 75.9979 392.566 76.2045 391.748 76.2045C391.117 76.2045 390.612 76.1001 390.233 75.8913C389.853 75.6783 389.562 75.4375 389.357 75.169C389.152 74.8963 388.995 74.6705 388.884 74.4915H388.705V76H387.248ZM388.731 71.0909C388.731 71.8324 388.839 72.4865 389.057 73.0533C389.274 73.6158 389.591 74.0568 390.009 74.3764C390.427 74.6918 390.938 74.8494 391.543 74.8494C392.174 74.8494 392.7 74.6832 393.122 74.3509C393.548 74.0142 393.868 73.5625 394.081 72.9957C394.298 72.4247 394.407 71.7898 394.407 71.0909C394.407 70.4006 394.3 69.7784 394.087 69.2244C393.878 68.6662 393.561 68.2251 393.135 67.9013C392.713 67.5732 392.182 67.4091 391.543 67.4091C390.929 67.4091 390.414 67.5646 389.996 67.8757C389.579 68.1825 389.263 68.6129 389.05 69.1669C388.837 69.7166 388.731 70.358 388.731 71.0909ZM399.011 62.9091V76H397.503V62.9091H399.011ZM405.171 76.2045C404.225 76.2045 403.409 75.9957 402.723 75.5781C402.041 75.1562 401.515 74.5682 401.144 73.8139C400.777 73.0554 400.594 72.1733 400.594 71.1676C400.594 70.1619 400.777 69.2756 401.144 68.5085C401.515 67.7372 402.03 67.1364 402.691 66.706C403.355 66.2713 404.131 66.054 405.017 66.054C405.529 66.054 406.034 66.1392 406.532 66.3097C407.031 66.4801 407.485 66.7571 407.894 67.1406C408.303 67.5199 408.629 68.0227 408.872 68.6491C409.115 69.2756 409.236 70.0469 409.236 70.9631V71.6023H401.668V70.2983H407.702C407.702 69.7443 407.591 69.25 407.37 68.8153C407.152 68.3807 406.841 68.0376 406.436 67.7862C406.036 67.5348 405.563 67.4091 405.017 67.4091C404.416 67.4091 403.897 67.5582 403.458 67.8565C403.023 68.1506 402.689 68.5341 402.454 69.0071C402.22 69.4801 402.103 69.9872 402.103 70.5284V71.3977C402.103 72.1392 402.23 72.7678 402.486 73.2834C402.746 73.7947 403.106 74.1847 403.566 74.4531C404.027 74.7173 404.561 74.8494 405.171 74.8494C405.567 74.8494 405.925 74.794 406.245 74.6832C406.568 74.5682 406.848 74.3977 407.082 74.1719C407.316 73.9418 407.497 73.6562 407.625 73.3153L409.083 73.7244C408.929 74.2188 408.671 74.6534 408.309 75.0284C407.947 75.3991 407.5 75.6889 406.967 75.8977C406.434 76.1023 405.836 76.2045 405.171 76.2045ZM426.403 69.4545C426.403 70.8352 426.154 72.0284 425.655 73.0341C425.157 74.0398 424.473 74.8153 423.604 75.3608C422.734 75.9062 421.741 76.179 420.625 76.179C419.508 76.179 418.516 75.9062 417.646 75.3608C416.777 74.8153 416.093 74.0398 415.594 73.0341C415.096 72.0284 414.847 70.8352 414.847 69.4545C414.847 68.0739 415.096 66.8807 415.594 65.875C416.093 64.8693 416.777 64.0938 417.646 63.5483C418.516 63.0028 419.508 62.7301 420.625 62.7301C421.741 62.7301 422.734 63.0028 423.604 63.5483C424.473 64.0938 425.157 64.8693 425.655 65.875C426.154 66.8807 426.403 68.0739 426.403 69.4545ZM424.869 69.4545C424.869 68.321 424.68 67.3643 424.3 66.5845C423.925 65.8047 423.416 65.2145 422.773 64.8139C422.133 64.4134 421.418 64.2131 420.625 64.2131C419.832 64.2131 419.114 64.4134 418.471 64.8139C417.832 65.2145 417.322 65.8047 416.943 66.5845C416.568 67.3643 416.381 68.321 416.381 69.4545C416.381 70.5881 416.568 71.5447 416.943 72.3246C417.322 73.1044 417.832 73.6946 418.471 74.0952C419.114 74.4957 419.832 74.696 420.625 74.696C421.418 74.696 422.133 74.4957 422.773 74.0952C423.416 73.6946 423.925 73.1044 424.3 72.3246C424.68 71.5447 424.869 70.5881 424.869 69.4545ZM432.516 66.1818V67.4602H427.224V66.1818H432.516ZM428.809 76V64.8267C428.809 64.2642 428.941 63.7955 429.205 63.4205C429.47 63.0455 429.813 62.7642 430.234 62.5767C430.656 62.3892 431.102 62.2955 431.57 62.2955C431.941 62.2955 432.244 62.3253 432.478 62.3849C432.712 62.4446 432.887 62.5 433.002 62.5511L432.568 63.8551C432.491 63.8295 432.384 63.7976 432.248 63.7592C432.116 63.7209 431.941 63.7017 431.724 63.7017C431.225 63.7017 430.865 63.8274 430.644 64.0788C430.426 64.3303 430.318 64.6989 430.318 65.1847V76H428.809ZM438.283 66.1818V67.4602H432.99V66.1818H438.283ZM434.575 76V64.8267C434.575 64.2642 434.707 63.7955 434.972 63.4205C435.236 63.0455 435.579 62.7642 436.001 62.5767C436.423 62.3892 436.868 62.2955 437.337 62.2955C437.707 62.2955 438.01 62.3253 438.244 62.3849C438.479 62.4446 438.654 62.5 438.769 62.5511L438.334 63.8551C438.257 63.8295 438.151 63.7976 438.014 63.7592C437.882 63.7209 437.707 63.7017 437.49 63.7017C436.992 63.7017 436.631 63.8274 436.41 64.0788C436.193 64.3303 436.084 64.6989 436.084 65.1847V76H434.575ZM439.677 76V66.1818H441.185V76H439.677ZM440.444 64.5455C440.15 64.5455 439.896 64.4453 439.683 64.245C439.475 64.0447 439.37 63.804 439.37 63.5227C439.37 63.2415 439.475 63.0007 439.683 62.8004C439.896 62.6001 440.15 62.5 440.444 62.5C440.738 62.5 440.989 62.6001 441.198 62.8004C441.411 63.0007 441.518 63.2415 441.518 63.5227C441.518 63.804 441.411 64.0447 441.198 64.245C440.989 64.4453 440.738 64.5455 440.444 64.5455ZM447.217 76.2045C446.297 76.2045 445.504 75.9872 444.839 75.5526C444.174 75.1179 443.663 74.5192 443.305 73.7564C442.947 72.9936 442.768 72.1222 442.768 71.142C442.768 70.1449 442.951 69.2649 443.318 68.5021C443.689 67.7351 444.204 67.1364 444.865 66.706C445.53 66.2713 446.305 66.054 447.191 66.054C447.882 66.054 448.504 66.1818 449.058 66.4375C449.612 66.6932 450.066 67.0511 450.419 67.5114C450.773 67.9716 450.993 68.5085 451.078 69.1222H449.569C449.454 68.6747 449.199 68.2784 448.802 67.9332C448.41 67.5838 447.882 67.4091 447.217 67.4091C446.629 67.4091 446.113 67.5625 445.67 67.8693C445.231 68.1719 444.888 68.6001 444.641 69.1541C444.398 69.7038 444.277 70.3494 444.277 71.0909C444.277 71.8494 444.396 72.5099 444.635 73.0724C444.878 73.6349 445.218 74.0717 445.657 74.3828C446.101 74.6939 446.62 74.8494 447.217 74.8494C447.609 74.8494 447.965 74.7812 448.285 74.6449C448.604 74.5085 448.875 74.3125 449.096 74.0568C449.318 73.8011 449.476 73.4943 449.569 73.1364H451.078C450.993 73.7159 450.782 74.2379 450.445 74.7024C450.113 75.1626 449.672 75.5291 449.122 75.8018C448.576 76.0703 447.941 76.2045 447.217 76.2045ZM456.68 76.2045C455.734 76.2045 454.918 75.9957 454.231 75.5781C453.55 75.1562 453.023 74.5682 452.653 73.8139C452.286 73.0554 452.103 72.1733 452.103 71.1676C452.103 70.1619 452.286 69.2756 452.653 68.5085C453.023 67.7372 453.539 67.1364 454.199 66.706C454.864 66.2713 455.64 66.054 456.526 66.054C457.038 66.054 457.543 66.1392 458.041 66.3097C458.54 66.4801 458.993 66.7571 459.403 67.1406C459.812 67.5199 460.138 68.0227 460.381 68.6491C460.623 69.2756 460.745 70.0469 460.745 70.9631V71.6023H453.177V70.2983H459.211C459.211 69.7443 459.1 69.25 458.878 68.8153C458.661 68.3807 458.35 68.0376 457.945 67.7862C457.545 67.5348 457.072 67.4091 456.526 67.4091C455.925 67.4091 455.405 67.5582 454.967 67.8565C454.532 68.1506 454.197 68.5341 453.963 69.0071C453.729 69.4801 453.611 69.9872 453.611 70.5284V71.3977C453.611 72.1392 453.739 72.7678 453.995 73.2834C454.255 73.7947 454.615 74.1847 455.075 74.4531C455.535 74.7173 456.07 74.8494 456.68 74.8494C457.076 74.8494 457.434 74.794 457.753 74.6832C458.077 74.5682 458.356 74.3977 458.591 74.1719C458.825 73.9418 459.006 73.6562 459.134 73.3153L460.592 73.7244C460.438 74.2188 460.18 74.6534 459.818 75.0284C459.456 75.3991 459.008 75.6889 458.476 75.8977C457.943 76.1023 457.344 76.2045 456.68 76.2045ZM469.274 68.3807L467.919 68.7642C467.834 68.5384 467.708 68.3189 467.542 68.1058C467.38 67.8885 467.158 67.7095 466.877 67.5689C466.596 67.4283 466.236 67.358 465.797 67.358C465.196 67.358 464.695 67.4964 464.295 67.7734C463.898 68.0462 463.7 68.3935 463.7 68.8153C463.7 69.1903 463.837 69.4865 464.109 69.7038C464.382 69.9212 464.808 70.1023 465.388 70.2472L466.845 70.6051C467.723 70.8182 468.377 71.1442 468.808 71.5831C469.238 72.0178 469.453 72.5781 469.453 73.2642C469.453 73.8267 469.291 74.3295 468.967 74.7727C468.648 75.2159 468.2 75.5653 467.625 75.821C467.05 76.0767 466.381 76.2045 465.618 76.2045C464.617 76.2045 463.788 75.9872 463.131 75.5526C462.475 75.1179 462.06 74.483 461.885 73.6477L463.317 73.2898C463.453 73.8182 463.711 74.2145 464.09 74.4787C464.474 74.7429 464.974 74.875 465.592 74.875C466.296 74.875 466.854 74.7259 467.267 74.4276C467.685 74.125 467.894 73.7628 467.894 73.3409C467.894 73 467.774 72.7145 467.536 72.4844C467.297 72.25 466.93 72.0753 466.436 71.9602L464.8 71.5767C463.901 71.3636 463.24 71.0334 462.818 70.5859C462.401 70.1342 462.192 69.5696 462.192 68.892C462.192 68.3381 462.347 67.848 462.658 67.4219C462.974 66.9957 463.402 66.6612 463.943 66.4183C464.489 66.1754 465.107 66.054 465.797 66.054C466.769 66.054 467.531 66.267 468.085 66.6932C468.644 67.1193 469.04 67.6818 469.274 68.3807Z" fill="black"/>
<line x1="320" y1="-2.18557e-08" x2="320" y2="76" stroke="black" stroke-opacity="0.25"/>
<path d="M646.976 47L665.534 10.267V9.96875H643.993V3.36364H673.716V10.1179L655.179 47H646.976ZM678.193 47V41.2898L693.342 26.4389C694.791 24.9759 695.998 23.6761 696.964 22.5398C697.93 21.4034 698.654 20.3026 699.137 19.2372C699.62 18.1719 699.862 17.0355 699.862 15.8281C699.862 14.4503 699.549 13.2713 698.924 12.2912C698.299 11.2969 697.44 10.5298 696.346 9.99006C695.252 9.45028 694.009 9.1804 692.617 9.1804C691.183 9.1804 689.926 9.47869 688.846 10.0753C687.767 10.6577 686.928 11.4886 686.332 12.5682C685.75 13.6477 685.458 14.9332 685.458 16.4247H677.937C677.937 13.6548 678.569 11.2472 679.833 9.2017C681.098 7.15625 682.838 5.57244 685.053 4.45028C687.284 3.32812 689.84 2.76704 692.724 2.76704C695.65 2.76704 698.221 3.31392 700.437 4.40767C702.653 5.50142 704.372 7 705.593 8.90341C706.829 10.8068 707.447 12.9801 707.447 15.4233C707.447 17.0568 707.134 18.6619 706.509 20.2386C705.884 21.8153 704.784 23.5625 703.207 25.4801C701.644 27.3977 699.45 29.7202 696.623 32.4474L689.102 40.0966V40.3949H708.107V47H678.193ZM653.619 67H652.034C651.94 66.544 651.776 66.1435 651.542 65.7983C651.312 65.4531 651.031 65.1634 650.698 64.929C650.37 64.6903 650.006 64.5114 649.605 64.392C649.205 64.2727 648.787 64.2131 648.352 64.2131C647.56 64.2131 646.842 64.4134 646.198 64.8139C645.559 65.2145 645.05 65.8047 644.67 66.5845C644.295 67.3643 644.108 68.321 644.108 69.4545C644.108 70.5881 644.295 71.5447 644.67 72.3246C645.05 73.1044 645.559 73.6946 646.198 74.0952C646.842 74.4957 647.56 74.696 648.352 74.696C648.787 74.696 649.205 74.6364 649.605 74.517C650.006 74.3977 650.37 74.2209 650.698 73.9865C651.031 73.7479 651.312 73.456 651.542 73.1108C651.776 72.7614 651.94 72.3608 652.034 71.9091H653.619C653.5 72.5781 653.283 73.1768 652.967 73.7053C652.652 74.2337 652.26 74.6832 651.791 75.054C651.322 75.4205 650.796 75.6996 650.212 75.8913C649.633 76.0831 649.013 76.179 648.352 76.179C647.236 76.179 646.243 75.9062 645.374 75.3608C644.504 74.8153 643.82 74.0398 643.322 73.0341C642.823 72.0284 642.574 70.8352 642.574 69.4545C642.574 68.0739 642.823 66.8807 643.322 65.875C643.82 64.8693 644.504 64.0938 645.374 63.5483C646.243 63.0028 647.236 62.7301 648.352 62.7301C649.013 62.7301 649.633 62.826 650.212 63.0178C650.796 63.2095 651.322 63.4908 651.791 63.8615C652.26 64.228 652.652 64.6754 652.967 65.2038C653.283 65.728 653.5 66.3267 653.619 67ZM659.245 76.2045C658.359 76.2045 657.581 75.9936 656.912 75.5717C656.247 75.1499 655.727 74.5597 655.352 73.8011C654.982 73.0426 654.796 72.1562 654.796 71.142C654.796 70.1193 654.982 69.2266 655.352 68.4638C655.727 67.701 656.247 67.1087 656.912 66.6868C657.581 66.2649 658.359 66.054 659.245 66.054C660.131 66.054 660.907 66.2649 661.572 66.6868C662.241 67.1087 662.761 67.701 663.131 68.4638C663.506 69.2266 663.694 70.1193 663.694 71.142C663.694 72.1562 663.506 73.0426 663.131 73.8011C662.761 74.5597 662.241 75.1499 661.572 75.5717C660.907 75.9936 660.131 76.2045 659.245 76.2045ZM659.245 74.8494C659.918 74.8494 660.472 74.6768 660.907 74.3317C661.342 73.9865 661.663 73.5327 661.872 72.9702C662.081 72.4077 662.185 71.7983 662.185 71.142C662.185 70.4858 662.081 69.8743 661.872 69.3075C661.663 68.7408 661.342 68.2827 660.907 67.9332C660.472 67.5838 659.918 67.4091 659.245 67.4091C658.572 67.4091 658.018 67.5838 657.583 67.9332C657.148 68.2827 656.827 68.7408 656.618 69.3075C656.409 69.8743 656.305 70.4858 656.305 71.142C656.305 71.7983 656.409 72.4077 656.618 72.9702C656.827 73.5327 657.148 73.9865 657.583 74.3317C658.018 74.6768 658.572 74.8494 659.245 74.8494ZM671.464 71.9858V66.1818H672.973V76H671.464V74.3381H671.362C671.132 74.8366 670.774 75.2607 670.288 75.6101C669.802 75.9553 669.189 76.1278 668.447 76.1278C667.833 76.1278 667.288 75.9936 666.811 75.7251C666.333 75.4524 665.958 75.0433 665.686 74.4979C665.413 73.9482 665.277 73.2557 665.277 72.4205V66.1818H666.785V72.3182C666.785 73.0341 666.985 73.6051 667.386 74.0312C667.791 74.4574 668.306 74.6705 668.933 74.6705C669.308 74.6705 669.689 74.5746 670.077 74.3828C670.469 74.1911 670.797 73.897 671.061 73.5007C671.33 73.1044 671.464 72.5994 671.464 71.9858ZM676.524 70.0938V76H675.016V66.1818H676.473V67.7159H676.601C676.831 67.2173 677.18 66.8168 677.649 66.5142C678.118 66.2074 678.723 66.054 679.464 66.054C680.129 66.054 680.711 66.1903 681.209 66.4631C681.708 66.7315 682.096 67.1406 682.373 67.6903C682.65 68.2358 682.788 68.9261 682.788 69.7614V76H681.28V69.8636C681.28 69.0923 681.08 68.4915 680.679 68.0611C680.278 67.6264 679.729 67.4091 679.03 67.4091C678.548 67.4091 678.118 67.5135 677.739 67.7223C677.364 67.9311 677.067 68.2358 676.85 68.6364C676.633 69.0369 676.524 69.5227 676.524 70.0938ZM689.095 66.1818V67.4602H684.007V66.1818H689.095ZM685.49 63.8295H686.998V73.1875C686.998 73.6136 687.06 73.9332 687.184 74.1463C687.311 74.3551 687.473 74.4957 687.669 74.5682C687.87 74.6364 688.081 74.6705 688.302 74.6705C688.468 74.6705 688.605 74.6619 688.711 74.6449C688.818 74.6236 688.903 74.6065 688.967 74.5938L689.274 75.9489C689.171 75.9872 689.029 76.0256 688.845 76.0639C688.662 76.1065 688.43 76.1278 688.149 76.1278C687.723 76.1278 687.305 76.0362 686.896 75.853C686.491 75.6697 686.154 75.3906 685.886 75.0156C685.622 74.6406 685.49 74.1676 685.49 73.5966V63.8295ZM690.644 76V66.1818H692.101V67.6648H692.204C692.383 67.179 692.706 66.7848 693.175 66.4822C693.644 66.1797 694.172 66.0284 694.76 66.0284C694.871 66.0284 695.01 66.0305 695.176 66.0348C695.342 66.0391 695.468 66.0455 695.553 66.054V67.5881C695.502 67.5753 695.385 67.5561 695.201 67.5305C695.023 67.5007 694.833 67.4858 694.633 67.4858C694.155 67.4858 693.729 67.5859 693.354 67.7862C692.983 67.9822 692.689 68.255 692.472 68.6044C692.259 68.9496 692.152 69.3437 692.152 69.7869V76H690.644ZM696.621 76V66.1818H698.13V76H696.621ZM697.388 64.5455C697.094 64.5455 696.841 64.4453 696.628 64.245C696.419 64.0447 696.314 63.804 696.314 63.5227C696.314 63.2415 696.419 63.0007 696.628 62.8004C696.841 62.6001 697.094 62.5 697.388 62.5C697.682 62.5 697.934 62.6001 698.143 62.8004C698.356 63.0007 698.462 63.2415 698.462 63.5227C698.462 63.804 698.356 64.0447 698.143 64.245C697.934 64.4453 697.682 64.5455 697.388 64.5455ZM704.289 76.2045C703.343 76.2045 702.527 75.9957 701.841 75.5781C701.159 75.1562 700.633 74.5682 700.262 73.8139C699.896 73.0554 699.712 72.1733 699.712 71.1676C699.712 70.1619 699.896 69.2756 700.262 68.5085C700.633 67.7372 701.149 67.1364 701.809 66.706C702.474 66.2713 703.249 66.054 704.136 66.054C704.647 66.054 705.152 66.1392 705.651 66.3097C706.149 66.4801 706.603 66.7571 707.012 67.1406C707.421 67.5199 707.747 68.0227 707.99 68.6491C708.233 69.2756 708.355 70.0469 708.355 70.9631V71.6023H700.786V70.2983H706.82C706.82 69.7443 706.71 69.25 706.488 68.8153C706.271 68.3807 705.96 68.0376 705.555 67.7862C705.154 67.5348 704.681 67.4091 704.136 67.4091C703.535 67.4091 703.015 67.5582 702.576 67.8565C702.141 68.1506 701.807 68.5341 701.573 69.0071C701.338 69.4801 701.221 69.9872 701.221 70.5284V71.3977C701.221 72.1392 701.349 72.7678 701.605 73.2834C701.864 73.7947 702.225 74.1847 702.685 74.4531C703.145 74.7173 703.68 74.8494 704.289 74.8494C704.685 74.8494 705.043 74.794 705.363 74.6832C705.687 74.5682 705.966 74.3977 706.2 74.1719C706.435 73.9418 706.616 73.6562 706.744 73.3153L708.201 73.7244C708.048 74.2188 707.79 74.6534 707.428 75.0284C707.065 75.3991 706.618 75.6889 706.085 75.8977C705.553 76.1023 704.954 76.2045 704.289 76.2045ZM716.884 68.3807L715.529 68.7642C715.443 68.5384 715.318 68.3189 715.152 68.1058C714.99 67.8885 714.768 67.7095 714.487 67.5689C714.206 67.4283 713.845 67.358 713.407 67.358C712.806 67.358 712.305 67.4964 711.904 67.7734C711.508 68.0462 711.31 68.3935 711.31 68.8153C711.31 69.1903 711.446 69.4865 711.719 69.7038C711.992 69.9212 712.418 70.1023 712.997 70.2472L714.455 70.6051C715.333 70.8182 715.987 71.1442 716.417 71.5831C716.848 72.0178 717.063 72.5781 717.063 73.2642C717.063 73.8267 716.901 74.3295 716.577 74.7727C716.257 75.2159 715.81 75.5653 715.235 75.821C714.659 76.0767 713.99 76.2045 713.228 76.2045C712.226 76.2045 711.397 75.9872 710.741 75.5526C710.085 75.1179 709.669 74.483 709.495 73.6477L710.926 73.2898C711.063 73.8182 711.321 74.2145 711.7 74.4787C712.083 74.7429 712.584 74.875 713.202 74.875C713.905 74.875 714.463 74.7259 714.877 74.4276C715.294 74.125 715.503 73.7628 715.503 73.3409C715.503 73 715.384 72.7145 715.145 72.4844C714.907 72.25 714.54 72.0753 714.046 71.9602L712.409 71.5767C711.51 71.3636 710.85 71.0334 710.428 70.5859C710.01 70.1342 709.801 69.5696 709.801 68.892C709.801 68.3381 709.957 67.848 710.268 67.4219C710.583 66.9957 711.012 66.6612 711.553 66.4183C712.098 66.1754 712.716 66.054 713.407 66.054C714.378 66.054 715.141 66.267 715.695 66.6932C716.253 67.1193 716.649 67.6818 716.884 68.3807Z" fill="black"/>
<line x1="621" y1="-2.18557e-08" x2="621" y2="76" stroke="black" stroke-opacity="0.25"/>
<path d="M909.038 47.5966C905.97 47.5966 903.243 47.071 900.857 46.0199C898.484 44.9687 896.609 43.5057 895.232 41.6307C893.854 39.7557 893.122 37.5895 893.037 35.1321H901.048C901.119 36.3111 901.51 37.3409 902.22 38.2216C902.93 39.0881 903.875 39.7628 905.054 40.2457C906.233 40.7287 907.554 40.9702 909.017 40.9702C910.58 40.9702 911.964 40.7003 913.172 40.1605C914.379 39.6065 915.324 38.8395 916.006 37.8594C916.688 36.8793 917.021 35.75 917.007 34.4716C917.021 33.1506 916.68 31.9858 915.984 30.9773C915.288 29.9687 914.28 29.1804 912.959 28.6122C911.652 28.044 910.075 27.7599 908.229 27.7599H904.372V21.6662H908.229C909.749 21.6662 911.077 21.4034 912.213 20.8778C913.364 20.3523 914.266 19.6136 914.919 18.6619C915.572 17.696 915.892 16.581 915.878 15.3168C915.892 14.081 915.615 13.0085 915.047 12.0994C914.493 11.1761 913.705 10.4588 912.682 9.94744C911.673 9.43608 910.487 9.1804 909.124 9.1804C907.788 9.1804 906.553 9.42187 905.416 9.90483C904.28 10.3878 903.364 11.0767 902.668 11.9716C901.972 12.8523 901.602 13.9034 901.56 15.125H893.953C894.01 12.6818 894.713 10.5369 896.062 8.69034C897.426 6.82954 899.244 5.38068 901.517 4.34375C903.79 3.29261 906.339 2.76704 909.166 2.76704C912.078 2.76704 914.607 3.31392 916.751 4.40767C918.911 5.48721 920.58 6.94318 921.759 8.77557C922.938 10.608 923.527 12.6321 923.527 14.848C923.541 17.3054 922.817 19.3651 921.354 21.027C919.905 22.6889 918.001 23.7756 915.643 24.2869V24.6278C918.712 25.054 921.063 26.1903 922.696 28.0369C924.344 29.8693 925.161 32.1491 925.146 34.8764C925.146 37.3196 924.45 39.5071 923.058 41.4389C921.68 43.3565 919.777 44.8622 917.348 45.956C914.933 47.0497 912.163 47.5966 909.038 47.5966ZM930.06 47V41.2898L945.209 26.4389C946.658 24.9759 947.865 23.6761 948.831 22.5398C949.797 21.4034 950.522 20.3026 951.004 19.2372C951.487 18.1719 951.729 17.0355 951.729 15.8281C951.729 14.4503 951.416 13.2713 950.791 12.2912C950.166 11.2969 949.307 10.5298 948.213 9.99006C947.12 9.45028 945.877 9.1804 944.485 9.1804C943.05 9.1804 941.793 9.47869 940.713 10.0753C939.634 10.6577 938.796 11.4886 938.199 12.5682C937.617 13.6477 937.325 14.9332 937.325 16.4247H929.804C929.804 13.6548 930.436 11.2472 931.7 9.2017C932.965 7.15625 934.705 5.57244 936.921 4.45028C939.151 3.32812 941.708 2.76704 944.591 2.76704C947.517 2.76704 950.088 3.31392 952.304 4.40767C954.52 5.50142 956.239 7 957.46 8.90341C958.696 10.8068 959.314 12.9801 959.314 15.4233C959.314 17.0568 959.002 18.6619 958.377 20.2386C957.752 21.8153 956.651 23.5625 955.074 25.4801C953.512 27.3977 951.317 29.7202 948.49 32.4474L940.969 40.0966V40.3949H959.975V47H930.06ZM965.352 3.36364H975.025L987.979 34.983H988.491L1001.45 3.36364H1011.12V47H1003.53V17.0213H1003.13L991.069 46.8722H985.401L973.342 16.9574H972.937V47H965.352V3.36364ZM1029.86 40.0114V10.5227H1036.55V40.0114H1029.86ZM1018.46 28.6122V21.9219H1047.94V28.6122H1018.46ZM900.034 67C899.893 66.5696 899.708 66.1839 899.478 65.843C899.252 65.4979 898.982 65.2038 898.666 64.9609C898.355 64.718 898.001 64.5327 897.605 64.4048C897.209 64.277 896.774 64.2131 896.301 64.2131C895.526 64.2131 894.82 64.4134 894.185 64.8139C893.55 65.2145 893.045 65.8047 892.67 66.5845C892.295 67.3643 892.108 68.321 892.108 69.4545C892.108 70.5881 892.298 71.5447 892.677 72.3246C893.056 73.1044 893.57 73.6946 894.217 74.0952C894.865 74.4957 895.594 74.696 896.403 74.696C897.153 74.696 897.814 74.5362 898.385 74.2166C898.96 73.8928 899.408 73.4368 899.727 72.8487C900.051 72.2564 900.213 71.5597 900.213 70.7585L900.699 70.8608H896.761V69.4545H901.747V70.8608C901.747 71.9389 901.517 72.8764 901.057 73.6733C900.601 74.4702 899.97 75.0881 899.165 75.527C898.364 75.9616 897.443 76.179 896.403 76.179C895.244 76.179 894.226 75.9062 893.348 75.3608C892.474 74.8153 891.793 74.0398 891.303 73.0341C890.817 72.0284 890.574 70.8352 890.574 69.4545C890.574 68.419 890.712 67.4879 890.989 66.6612C891.271 65.8303 891.667 65.1229 892.178 64.5391C892.69 63.9553 893.295 63.5078 893.994 63.1967C894.692 62.8857 895.462 62.7301 896.301 62.7301C896.991 62.7301 897.635 62.8345 898.232 63.0433C898.832 63.2479 899.367 63.5398 899.836 63.919C900.309 64.294 900.703 64.7436 901.018 65.2678C901.334 65.7876 901.551 66.3651 901.67 67H900.034ZM905.046 62.9091V76H903.538V62.9091H905.046ZM911.078 76.2045C910.191 76.2045 909.414 75.9936 908.745 75.5717C908.08 75.1499 907.56 74.5597 907.185 73.8011C906.814 73.0426 906.629 72.1562 906.629 71.142C906.629 70.1193 906.814 69.2266 907.185 68.4638C907.56 67.701 908.08 67.1087 908.745 66.6868C909.414 66.2649 910.191 66.054 911.078 66.054C911.964 66.054 912.74 66.2649 913.404 66.6868C914.073 67.1087 914.593 67.701 914.964 68.4638C915.339 69.2266 915.527 70.1193 915.527 71.142C915.527 72.1562 915.339 73.0426 914.964 73.8011C914.593 74.5597 914.073 75.1499 913.404 75.5717C912.74 75.9936 911.964 76.2045 911.078 76.2045ZM911.078 74.8494C911.751 74.8494 912.305 74.6768 912.74 74.3317C913.174 73.9865 913.496 73.5327 913.705 72.9702C913.914 72.4077 914.018 71.7983 914.018 71.142C914.018 70.4858 913.914 69.8743 913.705 69.3075C913.496 68.7408 913.174 68.2827 912.74 67.9332C912.305 67.5838 911.751 67.4091 911.078 67.4091C910.404 67.4091 909.85 67.5838 909.416 67.9332C908.981 68.2827 908.659 68.7408 908.451 69.3075C908.242 69.8743 908.137 70.4858 908.137 71.142C908.137 71.7983 908.242 72.4077 908.451 72.9702C908.659 73.5327 908.981 73.9865 909.416 74.3317C909.85 74.6768 910.404 74.8494 911.078 74.8494ZM917.314 76V62.9091H918.822V67.7415H918.95C919.061 67.571 919.214 67.3537 919.41 67.0895C919.611 66.821 919.896 66.5824 920.267 66.3736C920.642 66.1605 921.149 66.054 921.788 66.054C922.615 66.054 923.344 66.2607 923.974 66.674C924.605 67.0874 925.097 67.6733 925.451 68.4318C925.805 69.1903 925.982 70.0852 925.982 71.1165C925.982 72.1562 925.805 73.0575 925.451 73.8203C925.097 74.5788 924.607 75.1669 923.981 75.5845C923.354 75.9979 922.632 76.2045 921.814 76.2045C921.183 76.2045 920.678 76.1001 920.299 75.8913C919.92 75.6783 919.628 75.4375 919.423 75.169C919.219 74.8963 919.061 74.6705 918.95 74.4915H918.771V76H917.314ZM918.797 71.0909C918.797 71.8324 918.906 72.4865 919.123 73.0533C919.34 73.6158 919.658 74.0568 920.075 74.3764C920.493 74.6918 921.004 74.8494 921.609 74.8494C922.24 74.8494 922.766 74.6832 923.188 74.3509C923.614 74.0142 923.934 73.5625 924.147 72.9957C924.364 72.4247 924.473 71.7898 924.473 71.0909C924.473 70.4006 924.366 69.7784 924.153 69.2244C923.945 68.6662 923.627 68.2251 923.201 67.9013C922.779 67.5732 922.249 67.4091 921.609 67.4091C920.996 67.4091 920.48 67.5646 920.062 67.8757C919.645 68.1825 919.33 68.6129 919.116 69.1669C918.903 69.7166 918.797 70.358 918.797 71.0909ZM930.458 76.2301C929.836 76.2301 929.271 76.1129 928.764 75.8786C928.257 75.6399 927.855 75.2969 927.556 74.8494C927.258 74.3977 927.109 73.8523 927.109 73.2131C927.109 72.6506 927.22 72.1946 927.441 71.8452C927.663 71.4915 927.959 71.2145 928.33 71.0142C928.7 70.8139 929.11 70.6648 929.557 70.5668C930.009 70.4645 930.463 70.3835 930.918 70.3239C931.515 70.2472 931.999 70.1896 932.369 70.1513C932.744 70.1087 933.017 70.0384 933.188 69.9403C933.362 69.8423 933.45 69.6719 933.45 69.429V69.3778C933.45 68.7472 933.277 68.2571 932.932 67.9077C932.591 67.5582 932.073 67.3835 931.379 67.3835C930.659 67.3835 930.094 67.5412 929.685 67.8565C929.276 68.1719 928.988 68.5085 928.822 68.8665L927.39 68.3551C927.646 67.7585 927.987 67.294 928.413 66.9616C928.843 66.625 929.312 66.3906 929.819 66.2585C930.33 66.1222 930.833 66.054 931.328 66.054C931.643 66.054 932.005 66.0923 932.414 66.169C932.828 66.2415 933.226 66.3928 933.61 66.6229C933.997 66.853 934.319 67.2003 934.575 67.6648C934.83 68.1293 934.958 68.7514 934.958 69.5312V76H933.45V74.6705H933.373C933.271 74.8835 933.1 75.1115 932.862 75.3544C932.623 75.5973 932.306 75.804 931.909 75.9744C931.513 76.1449 931.029 76.2301 930.458 76.2301ZM930.688 74.875C931.285 74.875 931.788 74.7578 932.197 74.5234C932.61 74.2891 932.921 73.9865 933.13 73.6158C933.343 73.245 933.45 72.8551 933.45 72.446V71.0653C933.386 71.142 933.245 71.2124 933.028 71.2763C932.815 71.3359 932.568 71.3892 932.286 71.4361C932.009 71.4787 931.739 71.517 931.475 71.5511C931.215 71.581 931.004 71.6065 930.842 71.6278C930.45 71.679 930.083 71.7621 929.742 71.8771C929.406 71.9879 929.133 72.1562 928.924 72.3821C928.72 72.6037 928.617 72.9062 928.617 73.2898C928.617 73.8139 928.811 74.2102 929.199 74.4787C929.591 74.7429 930.088 74.875 930.688 74.875ZM938.5 62.9091V76H936.992V62.9091H938.5ZM947.468 76L943.888 62.9091H945.499L948.235 73.571H948.363L951.15 62.9091H952.94L955.727 73.571H955.854L958.59 62.9091H960.201L956.621 76H954.985L952.096 65.5682H951.994L949.104 76H947.468ZM964.326 76.2045C963.44 76.2045 962.662 75.9936 961.993 75.5717C961.328 75.1499 960.808 74.5597 960.433 73.8011C960.063 73.0426 959.877 72.1562 959.877 71.142C959.877 70.1193 960.063 69.2266 960.433 68.4638C960.808 67.701 961.328 67.1087 961.993 66.6868C962.662 66.2649 963.44 66.054 964.326 66.054C965.212 66.054 965.988 66.2649 966.653 66.6868C967.322 67.1087 967.842 67.701 968.212 68.4638C968.587 69.2266 968.775 70.1193 968.775 71.142C968.775 72.1562 968.587 73.0426 968.212 73.8011C967.842 74.5597 967.322 75.1499 966.653 75.5717C965.988 75.9936 965.212 76.2045 964.326 76.2045ZM964.326 74.8494C964.999 74.8494 965.553 74.6768 965.988 74.3317C966.423 73.9865 966.744 73.5327 966.953 72.9702C967.162 72.4077 967.266 71.7983 967.266 71.142C967.266 70.4858 967.162 69.8743 966.953 69.3075C966.744 68.7408 966.423 68.2827 965.988 67.9332C965.553 67.5838 964.999 67.4091 964.326 67.4091C963.653 67.4091 963.099 67.5838 962.664 67.9332C962.23 68.2827 961.908 68.7408 961.699 69.3075C961.49 69.8743 961.386 70.4858 961.386 71.142C961.386 71.7983 961.49 72.4077 961.699 72.9702C961.908 73.5327 962.23 73.9865 962.664 74.3317C963.099 74.6768 963.653 74.8494 964.326 74.8494ZM970.358 76V66.1818H971.815V67.6648H971.917C972.096 67.179 972.42 66.7848 972.889 66.4822C973.358 66.1797 973.886 66.0284 974.474 66.0284C974.585 66.0284 974.723 66.0305 974.89 66.0348C975.056 66.0391 975.182 66.0455 975.267 66.054V67.5881C975.216 67.5753 975.098 67.5561 974.915 67.5305C974.736 67.5007 974.547 67.4858 974.346 67.4858C973.869 67.4858 973.443 67.5859 973.068 67.7862C972.697 67.9822 972.403 68.255 972.186 68.6044C971.973 68.9496 971.866 69.3437 971.866 69.7869V76H970.358ZM977.844 62.9091V76H976.335V62.9091H977.844ZM983.594 76.2045C982.776 76.2045 982.053 75.9979 981.427 75.5845C980.801 75.1669 980.31 74.5788 979.957 73.8203C979.603 73.0575 979.426 72.1562 979.426 71.1165C979.426 70.0852 979.603 69.1903 979.957 68.4318C980.31 67.6733 980.803 67.0874 981.433 66.674C982.064 66.2607 982.793 66.054 983.619 66.054C984.259 66.054 984.764 66.1605 985.134 66.3736C985.509 66.5824 985.795 66.821 985.991 67.0895C986.191 67.3537 986.347 67.571 986.457 67.7415H986.585V62.9091H988.094V76H986.636V74.4915H986.457C986.347 74.6705 986.189 74.8963 985.984 75.169C985.78 75.4375 985.488 75.6783 985.109 75.8913C984.73 76.1001 984.225 76.2045 983.594 76.2045ZM983.798 74.8494C984.404 74.8494 984.915 74.6918 985.332 74.3764C985.75 74.0568 986.068 73.6158 986.285 73.0533C986.502 72.4865 986.611 71.8324 986.611 71.0909C986.611 70.358 986.504 69.7166 986.291 69.1669C986.078 68.6129 985.763 68.1825 985.345 67.8757C984.928 67.5646 984.412 67.4091 983.798 67.4091C983.159 67.4091 982.627 67.5732 982.2 67.9013C981.779 68.2251 981.461 68.6662 981.248 69.2244C981.039 69.7784 980.935 70.4006 980.935 71.0909C980.935 71.7898 981.041 72.4247 981.254 72.9957C981.472 73.5625 981.791 74.0142 982.213 74.3509C982.639 74.6832 983.168 74.8494 983.798 74.8494ZM992.571 76L989.579 66.1818H991.164L993.286 73.6989H993.389L995.485 66.1818H997.096L999.167 73.6733H999.269L1001.39 66.1818H1002.98L999.985 76H998.502L996.355 68.4574H996.201L994.054 76H992.571ZM1004.25 76V66.1818H1005.76V76H1004.25ZM1005.02 64.5455C1004.72 64.5455 1004.47 64.4453 1004.26 64.245C1004.05 64.0447 1003.94 63.804 1003.94 63.5227C1003.94 63.2415 1004.05 63.0007 1004.26 62.8004C1004.47 62.6001 1004.72 62.5 1005.02 62.5C1005.31 62.5 1005.56 62.6001 1005.77 62.8004C1005.99 63.0007 1006.09 63.2415 1006.09 63.5227C1006.09 63.804 1005.99 64.0447 1005.77 64.245C1005.56 64.4453 1005.31 64.5455 1005.02 64.5455ZM1011.51 76.2045C1010.69 76.2045 1009.97 75.9979 1009.34 75.5845C1008.72 75.1669 1008.23 74.5788 1007.87 73.8203C1007.52 73.0575 1007.34 72.1562 1007.34 71.1165C1007.34 70.0852 1007.52 69.1903 1007.87 68.4318C1008.23 67.6733 1008.72 67.0874 1009.35 66.674C1009.98 66.2607 1010.71 66.054 1011.54 66.054C1012.17 66.054 1012.68 66.1605 1013.05 66.3736C1013.43 66.5824 1013.71 66.821 1013.91 67.0895C1014.11 67.3537 1014.26 67.571 1014.37 67.7415H1014.5V62.9091H1016.01V76H1014.55V74.4915H1014.37C1014.26 74.6705 1014.11 74.8963 1013.9 75.169C1013.7 75.4375 1013.4 75.6783 1013.02 75.8913C1012.65 76.1001 1012.14 76.2045 1011.51 76.2045ZM1011.71 74.8494C1012.32 74.8494 1012.83 74.6918 1013.25 74.3764C1013.67 74.0568 1013.98 73.6158 1014.2 73.0533C1014.42 72.4865 1014.53 71.8324 1014.53 71.0909C1014.53 70.358 1014.42 69.7166 1014.21 69.1669C1013.99 68.6129 1013.68 68.1825 1013.26 67.8757C1012.84 67.5646 1012.33 67.4091 1011.71 67.4091C1011.08 67.4091 1010.54 67.5732 1010.12 67.9013C1009.69 68.2251 1009.38 68.6662 1009.16 69.2244C1008.96 69.7784 1008.85 70.4006 1008.85 71.0909C1008.85 71.7898 1008.96 72.4247 1009.17 72.9957C1009.39 73.5625 1009.71 74.0142 1010.13 74.3509C1010.56 74.6832 1011.08 74.8494 1011.71 74.8494ZM1022.38 76.2045C1021.43 76.2045 1020.62 75.9957 1019.93 75.5781C1019.25 75.1562 1018.72 74.5682 1018.35 73.8139C1017.99 73.0554 1017.8 72.1733 1017.8 71.1676C1017.8 70.1619 1017.99 69.2756 1018.35 68.5085C1018.72 67.7372 1019.24 67.1364 1019.9 66.706C1020.56 66.2713 1021.34 66.054 1022.23 66.054C1022.74 66.054 1023.24 66.1392 1023.74 66.3097C1024.24 66.4801 1024.69 66.7571 1025.1 67.1406C1025.51 67.5199 1025.84 68.0227 1026.08 68.6491C1026.32 69.2756 1026.44 70.0469 1026.44 70.9631V71.6023H1018.88V70.2983H1024.91C1024.91 69.7443 1024.8 69.25 1024.58 68.8153C1024.36 68.3807 1024.05 68.0376 1023.64 67.7862C1023.24 67.5348 1022.77 67.4091 1022.23 67.4091C1021.62 67.4091 1021.1 67.5582 1020.67 67.8565C1020.23 68.1506 1019.9 68.5341 1019.66 69.0071C1019.43 69.4801 1019.31 69.9872 1019.31 70.5284V71.3977C1019.31 72.1392 1019.44 72.7678 1019.69 73.2834C1019.95 73.7947 1020.31 74.1847 1020.77 74.4531C1021.23 74.7173 1021.77 74.8494 1022.38 74.8494C1022.78 74.8494 1023.13 74.794 1023.45 74.6832C1023.78 74.5682 1024.06 74.3977 1024.29 74.1719C1024.52 73.9418 1024.71 73.6562 1024.83 73.3153L1026.29 73.7244C1026.14 74.2188 1025.88 74.6534 1025.52 75.0284C1025.16 75.3991 1024.71 75.6889 1024.17 75.8977C1023.64 76.1023 1023.04 76.2045 1022.38 76.2045Z" fill="black"/>
<line x1="869" y1="-2.18557e-08" x2="869" y2="76" stroke="black" stroke-opacity="0.25"/>
</svg>
