<svg width="65" height="65" viewBox="0 0 65 65" fill="none" xmlns="http://www.w3.org/2000/svg">
<circle cx="32.5" cy="32.5" r="32.5" fill="#D9D9D9" fill-opacity="0.04"/>
<circle cx="32.5" cy="32.5" r="32" stroke="white" stroke-opacity="0.15"/>
<circle cx="32" cy="33" r="12" stroke="white" stroke-width="2"/>
<path d="M36 33C36 36.4992 35.4527 39.622 34.6022 41.8334C34.1756 42.9425 33.6922 43.7713 33.2064 44.3056C32.7208 44.8396 32.3117 45 32 45C31.6883 45 31.2792 44.8396 30.7936 44.3056C30.3078 43.7713 29.8244 42.9425 29.3978 41.8334C28.5473 39.622 28 36.4992 28 33C28 29.5008 28.5473 26.378 29.3978 24.1666C29.8244 23.0575 30.3078 22.2287 30.7936 21.6944C31.2792 21.1604 31.6883 21 32 21C32.3117 21 32.7208 21.1604 33.2064 21.6944C33.6922 22.2287 34.1756 23.0575 34.6022 24.1666C35.4527 26.378 36 29.5008 36 33Z" stroke="white" stroke-width="2"/>
<path d="M20 33H44" stroke="white" stroke-width="2" stroke-linecap="round"/>
</svg>
