<svg width="65" height="65" viewBox="0 0 65 65" fill="none" xmlns="http://www.w3.org/2000/svg">
<circle cx="32.5" cy="32.5" r="32.5" fill="#D9D9D9" fill-opacity="0.04"/>
<circle cx="32.5" cy="32.5" r="32" stroke="white" stroke-opacity="0.15"/>
<path d="M32.5 21L33.1854 20.2718L32.5 19.6268L31.8146 20.2718L32.5 21ZM31.5 45C31.5 45.5523 31.9477 46 32.5 46C33.0523 46 33.5 45.5523 33.5 45L31.5 45ZM41.6854 28.2718L33.1854 20.2718L31.8146 21.7282L40.3146 29.7282L41.6854 28.2718ZM31.8146 20.2718L23.3146 28.2718L24.6854 29.7282L33.1854 21.7282L31.8146 20.2718ZM31.5 21L31.5 45L33.5 45L33.5 21L31.5 21Z" fill="white"/>
</svg>
