<svg width="29" height="29" viewBox="0 0 29 29" fill="none" xmlns="http://www.w3.org/2000/svg">
<path d="M11.298 5.52482C12.5956 2.28985 13.2444 0.672363 14.3601 0.672363C15.4758 0.672363 16.1246 2.28985 17.4222 5.52483L17.4827 5.67546C18.2158 7.50306 18.5823 8.41686 19.3294 8.97228C20.0764 9.5277 21.0571 9.61553 23.0184 9.79118L23.3729 9.82294C26.5829 10.1104 28.1878 10.2541 28.5312 11.2753C28.8747 12.2964 27.6828 13.3808 25.2989 15.5495L24.5033 16.2734C23.2966 17.3712 22.6932 17.9202 22.412 18.6396C22.3595 18.7738 22.3159 18.9113 22.2815 19.0513C22.0966 19.8013 22.2733 20.5976 22.6267 22.1903L22.7367 22.6861C23.3861 25.6131 23.7108 27.0766 23.1438 27.7079C22.932 27.9438 22.6566 28.1136 22.3508 28.1971C21.5322 28.4205 20.3701 27.4735 18.0458 25.5795C16.5196 24.3359 15.7564 23.714 14.8803 23.5742C14.5357 23.5191 14.1845 23.5191 13.8399 23.5742C12.9638 23.714 12.2006 24.3359 10.6744 25.5795C8.35015 27.4735 7.188 28.4205 6.36944 28.1971C6.06357 28.1136 5.78822 27.9438 5.57637 27.7079C5.00941 27.0766 5.33413 25.6131 5.98355 22.6861L6.09355 22.1903C6.44692 20.5976 6.6236 19.8013 6.43875 19.0513C6.40427 18.9113 6.36066 18.7738 6.3082 18.6396C6.02698 17.9202 5.42361 17.3712 4.21687 16.2734L3.42128 15.5495C1.03745 13.3808 -0.154461 12.2964 0.188962 11.2753C0.532385 10.2541 2.13735 10.1104 5.34727 9.82294L5.70184 9.79118C7.66314 9.61553 8.6438 9.5277 9.39084 8.97228C10.1379 8.41686 10.5044 7.50306 11.2375 5.67546L11.298 5.52482Z" fill="#E2E2E2"/>
</svg>
