<svg width="99" height="22" viewBox="0 0 99 22" fill="none" xmlns="http://www.w3.org/2000/svg">
<rect x="0.5" y="0.5" width="98" height="21" rx="10.5" stroke="#0FA8FF"/>
<path d="M27.2383 7V15H25.7891V7H27.2383ZM31.6312 9V10.0937H28.182V9H31.6312ZM29.0336 7.5625H30.4476V13.1953C30.4476 13.3854 30.4763 13.5313 30.5336 13.6328C30.5935 13.7318 30.6716 13.7995 30.7679 13.8359C30.8643 13.8724 30.9711 13.8906 31.0882 13.8906C31.1768 13.8906 31.2575 13.8841 31.3304 13.8711C31.406 13.8581 31.4632 13.8464 31.5023 13.8359L31.7406 14.9414C31.6651 14.9674 31.557 14.9961 31.4164 15.0273C31.2783 15.0586 31.1091 15.0768 30.9086 15.082C30.5544 15.0924 30.2354 15.0391 29.9515 14.9219C29.6677 14.8021 29.4424 14.6172 29.2757 14.3672C29.1117 14.1172 29.031 13.8047 29.0336 13.4297V7.5625ZM34.1823 7V7.79687C34.1823 8.02604 34.1381 8.26432 34.0495 8.51172C33.9636 8.75651 33.8451 8.99089 33.6941 9.21484C33.543 9.4362 33.3711 9.6263 33.1784 9.78516L32.5222 9.35937C32.6654 9.14323 32.7904 8.91016 32.8972 8.66016C33.004 8.40755 33.0573 8.1224 33.0573 7.80469V7H34.1823ZM39.1837 10.5859L37.8946 10.7266C37.8582 10.5964 37.7943 10.474 37.7032 10.3594C37.6147 10.2448 37.4949 10.1523 37.3438 10.082C37.1928 10.0117 37.0079 9.97656 36.7891 9.97656C36.4949 9.97656 36.2475 10.0404 36.047 10.168C35.849 10.2956 35.7514 10.4609 35.754 10.6641C35.7514 10.8385 35.8152 10.9805 35.9454 11.0898C36.0782 11.1992 36.297 11.2891 36.6016 11.3594L37.6251 11.5781C38.1928 11.7005 38.6147 11.8945 38.8907 12.1602C39.1693 12.4258 39.31 12.7734 39.3126 13.2031C39.31 13.5807 39.1993 13.9141 38.9805 14.2031C38.7644 14.4896 38.4636 14.7135 38.0782 14.875C37.6928 15.0365 37.2501 15.1172 36.7501 15.1172C36.0157 15.1172 35.4246 14.9635 34.9766 14.6562C34.5287 14.3464 34.2618 13.9154 34.1759 13.3633L35.5548 13.2305C35.6173 13.5013 35.7501 13.7057 35.9532 13.8437C36.1563 13.9818 36.4207 14.0508 36.7462 14.0508C37.0821 14.0508 37.3516 13.9818 37.5548 13.8437C37.7605 13.7057 37.8634 13.5352 37.8634 13.332C37.8634 13.1602 37.797 13.0182 37.6641 12.9062C37.5339 12.7943 37.3308 12.7083 37.0548 12.6484L36.0313 12.4336C35.4558 12.3138 35.03 12.112 34.754 11.8281C34.4779 11.5417 34.3412 11.1797 34.3438 10.7422C34.3412 10.3724 34.4415 10.0521 34.6446 9.78125C34.8503 9.50781 35.1355 9.29687 35.5001 9.14844C35.8673 8.9974 36.2904 8.92188 36.7696 8.92188C37.4727 8.92188 38.0261 9.07161 38.4298 9.37109C38.836 9.67057 39.0873 10.0755 39.1837 10.5859ZM45.9832 9V10.0937H42.534V9H45.9832ZM43.3855 7.5625H44.7996V13.1953C44.7996 13.3854 44.8283 13.5313 44.8855 13.6328C44.9454 13.7318 45.0236 13.7995 45.1199 13.8359C45.2163 13.8724 45.323 13.8906 45.4402 13.8906C45.5288 13.8906 45.6095 13.8841 45.6824 13.8711C45.7579 13.8581 45.8152 13.8464 45.8543 13.8359L46.0926 14.9414C46.0171 14.9674 45.909 14.9961 45.7684 15.0273C45.6303 15.0586 45.4611 15.0768 45.2605 15.082C44.9064 15.0924 44.5874 15.0391 44.3035 14.9219C44.0197 14.8021 43.7944 14.6172 43.6277 14.3672C43.4637 14.1172 43.3829 13.8047 43.3855 13.4297V7.5625ZM49.6086 15.1172C49.0226 15.1172 48.5148 14.9883 48.0851 14.7305C47.6554 14.4727 47.3221 14.112 47.0851 13.6484C46.8507 13.1849 46.7336 12.6432 46.7336 12.0234C46.7336 11.4036 46.8507 10.8607 47.0851 10.3945C47.3221 9.92839 47.6554 9.56641 48.0851 9.30859C48.5148 9.05078 49.0226 8.92188 49.6086 8.92188C50.1945 8.92188 50.7023 9.05078 51.132 9.30859C51.5617 9.56641 51.8937 9.92839 52.1281 10.3945C52.3651 10.8607 52.4836 11.4036 52.4836 12.0234C52.4836 12.6432 52.3651 13.1849 52.1281 13.6484C51.8937 14.112 51.5617 14.4727 51.132 14.7305C50.7023 14.9883 50.1945 15.1172 49.6086 15.1172ZM49.6164 13.9844C49.9341 13.9844 50.1997 13.8971 50.4132 13.7227C50.6268 13.5456 50.7856 13.3086 50.8898 13.0117C50.9966 12.7148 51.05 12.3841 51.05 12.0195C51.05 11.6523 50.9966 11.3203 50.8898 11.0234C50.7856 10.724 50.6268 10.4857 50.4132 10.3086C50.1997 10.1315 49.9341 10.043 49.6164 10.043C49.2908 10.043 49.02 10.1315 48.8039 10.3086C48.5903 10.4857 48.4302 10.724 48.3234 11.0234C48.2192 11.3203 48.1671 11.6523 48.1671 12.0195C48.1671 12.3841 48.2192 12.7148 48.3234 13.0117C48.4302 13.3086 48.5903 13.5456 48.8039 13.7227C49.02 13.8971 49.2908 13.9844 49.6164 13.9844ZM56.1909 15.1172C55.605 15.1172 55.0972 14.9883 54.6675 14.7305C54.2378 14.4727 53.9045 14.112 53.6675 13.6484C53.4331 13.1849 53.3159 12.6432 53.3159 12.0234C53.3159 11.4036 53.4331 10.8607 53.6675 10.3945C53.9045 9.92839 54.2378 9.56641 54.6675 9.30859C55.0972 9.05078 55.605 8.92188 56.1909 8.92188C56.7769 8.92188 57.2847 9.05078 57.7144 9.30859C58.1441 9.56641 58.4761 9.92839 58.7105 10.3945C58.9474 10.8607 59.0659 11.4036 59.0659 12.0234C59.0659 12.6432 58.9474 13.1849 58.7105 13.6484C58.4761 14.112 58.1441 14.4727 57.7144 14.7305C57.2847 14.9883 56.7769 15.1172 56.1909 15.1172ZM56.1987 13.9844C56.5165 13.9844 56.7821 13.8971 56.9956 13.7227C57.2092 13.5456 57.368 13.3086 57.4722 13.0117C57.579 12.7148 57.6323 12.3841 57.6323 12.0195C57.6323 11.6523 57.579 11.3203 57.4722 11.0234C57.368 10.724 57.2092 10.4857 56.9956 10.3086C56.7821 10.1315 56.5165 10.043 56.1987 10.043C55.8732 10.043 55.6024 10.1315 55.3862 10.3086C55.1727 10.4857 55.0126 10.724 54.9058 11.0234C54.8016 11.3203 54.7495 11.6523 54.7495 12.0195C54.7495 12.3841 54.8016 12.7148 54.9058 13.0117C55.0126 13.3086 55.1727 13.5456 55.3862 13.7227C55.6024 13.8971 55.8732 13.9844 56.1987 13.9844ZM65.4309 15.1172C64.8293 15.1172 64.3098 14.9922 63.8723 14.7422C63.4374 14.4896 63.1028 14.1328 62.8684 13.6719C62.634 13.2083 62.5168 12.6628 62.5168 12.0352C62.5168 11.418 62.634 10.8763 62.8684 10.4102C63.1054 9.94141 63.4361 9.57682 63.8606 9.31641C64.2851 9.05339 64.7838 8.92188 65.3567 8.92188C65.7265 8.92188 66.0754 8.98177 66.4036 9.10156C66.7343 9.21875 67.0259 9.40104 67.2786 9.64844C67.5338 9.89583 67.7343 10.2109 67.8801 10.5937C68.0259 10.974 68.0989 11.4271 68.0989 11.9531V12.3867H63.1809V11.4336H66.7434C66.7408 11.1628 66.6822 10.9219 66.5676 10.7109C66.453 10.4974 66.2929 10.3294 66.0871 10.207C65.884 10.0846 65.647 10.0234 65.3762 10.0234C65.0871 10.0234 64.8332 10.0937 64.6145 10.2344C64.3957 10.3724 64.2252 10.5547 64.1028 10.7812C63.983 11.0052 63.9218 11.2513 63.9192 11.5195V12.3516C63.9192 12.7005 63.983 13 64.1106 13.25C64.2382 13.4974 64.4166 13.6875 64.6457 13.8203C64.8749 13.9505 65.1431 14.0156 65.4504 14.0156C65.6562 14.0156 65.8424 13.987 66.009 13.9297C66.1757 13.8698 66.3202 13.7826 66.4426 13.668C66.565 13.5534 66.6575 13.4115 66.72 13.2422L68.0403 13.3906C67.9569 13.7396 67.7981 14.0443 67.5637 14.3047C67.3319 14.5625 67.0351 14.763 66.6731 14.9062C66.3111 15.0469 65.897 15.1172 65.4309 15.1172ZM70.9117 15.1211C70.5315 15.1211 70.1891 15.0534 69.8844 14.918C69.5823 14.7799 69.3427 14.5768 69.1656 14.3086C68.9911 14.0404 68.9039 13.7096 68.9039 13.3164C68.9039 12.9779 68.9664 12.6979 69.0914 12.4766C69.2164 12.2552 69.387 12.0781 69.6031 11.9453C69.8193 11.8125 70.0628 11.7122 70.3336 11.6445C70.607 11.5742 70.8896 11.5234 71.1813 11.4922C71.5328 11.4557 71.818 11.4232 72.0367 11.3945C72.2555 11.3633 72.4143 11.3164 72.5133 11.2539C72.6148 11.1888 72.6656 11.0885 72.6656 10.9531V10.9297C72.6656 10.6354 72.5784 10.4076 72.4039 10.2461C72.2294 10.0846 71.9781 10.0039 71.65 10.0039C71.3036 10.0039 71.0289 10.0794 70.8258 10.2305C70.6253 10.3815 70.4898 10.5599 70.4195 10.7656L69.0992 10.5781C69.2034 10.2135 69.3753 9.90885 69.6148 9.66406C69.8544 9.41667 70.1474 9.23177 70.4938 9.10937C70.8401 8.98438 71.2229 8.92188 71.6422 8.92188C71.9313 8.92188 72.219 8.95573 72.5055 9.02344C72.7919 9.09115 73.0536 9.20312 73.2906 9.35937C73.5276 9.51302 73.7177 9.72266 73.8609 9.98828C74.0068 10.2539 74.0797 10.5859 74.0797 10.9844V15H72.7203V14.1758H72.6734C72.5875 14.3424 72.4664 14.4987 72.3102 14.6445C72.1565 14.7878 71.9625 14.9036 71.7281 14.9922C71.4964 15.0781 71.2242 15.1211 70.9117 15.1211ZM71.2789 14.082C71.5628 14.082 71.8089 14.026 72.0172 13.9141C72.2255 13.7995 72.3857 13.6484 72.4977 13.4609C72.6122 13.2734 72.6695 13.069 72.6695 12.8477V12.1406C72.6253 12.1771 72.5497 12.2109 72.443 12.2422C72.3388 12.2734 72.2216 12.3008 72.0914 12.3242C71.9612 12.3477 71.8323 12.3685 71.7047 12.3867C71.5771 12.4049 71.4664 12.4206 71.3727 12.4336C71.1617 12.4622 70.9729 12.5091 70.8063 12.5742C70.6396 12.6393 70.5081 12.7305 70.4117 12.8477C70.3154 12.9622 70.2672 13.1107 70.2672 13.293C70.2672 13.5534 70.3622 13.75 70.5523 13.8828C70.7424 14.0156 70.9846 14.082 71.2789 14.082ZM80.1338 10.5859L78.8447 10.7266C78.8082 10.5964 78.7444 10.474 78.6533 10.3594C78.5647 10.2448 78.4449 10.1523 78.2939 10.082C78.1429 10.0117 77.958 9.97656 77.7392 9.97656C77.4449 9.97656 77.1976 10.0404 76.997 10.168C76.7991 10.2956 76.7015 10.4609 76.7041 10.6641C76.7015 10.8385 76.7653 10.9805 76.8955 11.0898C77.0283 11.1992 77.247 11.2891 77.5517 11.3594L78.5752 11.5781C79.1429 11.7005 79.5647 11.8945 79.8408 12.1602C80.1194 12.4258 80.2601 12.7734 80.2627 13.2031C80.2601 13.5807 80.1494 13.9141 79.9306 14.2031C79.7145 14.4896 79.4137 14.7135 79.0283 14.875C78.6429 15.0365 78.2002 15.1172 77.7002 15.1172C76.9658 15.1172 76.3746 14.9635 75.9267 14.6562C75.4788 14.3464 75.2119 13.9154 75.1259 13.3633L76.5048 13.2305C76.5673 13.5013 76.7002 13.7057 76.9033 13.8437C77.1064 13.9818 77.3707 14.0508 77.6963 14.0508C78.0322 14.0508 78.3017 13.9818 78.5048 13.8437C78.7106 13.7057 78.8134 13.5352 78.8134 13.332C78.8134 13.1602 78.747 13.0182 78.6142 12.9062C78.484 12.7943 78.2809 12.7083 78.0048 12.6484L76.9814 12.4336C76.4059 12.3138 75.9801 12.112 75.7041 11.8281C75.428 11.5417 75.2913 11.1797 75.2939 10.7422C75.2913 10.3724 75.3916 10.0521 75.5947 9.78125C75.8004 9.50781 76.0856 9.29687 76.4502 9.14844C76.8173 8.9974 77.2405 8.92188 77.7197 8.92188C78.4228 8.92188 78.9762 9.07161 79.3798 9.37109C79.7861 9.67057 80.0374 10.0755 80.1338 10.5859ZM82.1976 17.25C82.0049 17.25 81.8265 17.2344 81.6624 17.2031C81.501 17.1745 81.3721 17.1406 81.2757 17.1016L81.6038 16C81.8096 16.0599 81.9932 16.0885 82.1546 16.0859C82.3161 16.0833 82.458 16.0326 82.5804 15.9336C82.7054 15.8372 82.8109 15.6758 82.8968 15.4492L83.0179 15.125L80.8421 9H82.3421L83.7249 13.5312H83.7874L85.1741 9H86.678L84.2757 15.7266C84.1637 16.0443 84.0153 16.3164 83.8304 16.543C83.6455 16.7721 83.4189 16.9466 83.1507 17.0664C82.8851 17.1888 82.5674 17.25 82.1976 17.25ZM89.277 7L89.1481 12.6484H87.8903L87.7653 7H89.277ZM88.5192 15.0859C88.2822 15.0859 88.0791 15.0026 87.9098 14.8359C87.7432 14.6693 87.6598 14.4661 87.6598 14.2266C87.6598 13.9922 87.7432 13.7917 87.9098 13.625C88.0791 13.4583 88.2822 13.375 88.5192 13.375C88.751 13.375 88.9515 13.4583 89.1208 13.625C89.2927 13.7917 89.3786 13.9922 89.3786 14.2266C89.3786 14.3854 89.3382 14.5299 89.2575 14.6602C89.1794 14.7904 89.0752 14.8945 88.945 14.9727C88.8174 15.0482 88.6755 15.0859 88.5192 15.0859Z" fill="#0FA8FF"/>
<path d="M10.3333 12.3333L13 14.3333L19 7" stroke="#0FA8FF"/>
</svg>
