<svg width="175" height="32" viewBox="0 0 175 32" fill="none" xmlns="http://www.w3.org/2000/svg">
<path d="M22.4304 31H0.893466V26.3615H22.4304V31ZM16.3452 18.9339H0.789062V14.4148H16.3452V18.9339ZM9.27557 9.299L9.75284 22.081C9.8125 23.4034 9.59375 24.5469 9.09659 25.5114C8.60938 26.4659 7.74929 27.2514 6.51634 27.8679L2.57884 26.3615C3.06605 26.2919 3.43892 26.0384 3.69744 25.6009C3.95597 25.1634 4.12997 24.6463 4.21946 24.0497C4.30895 23.4432 4.34375 22.8665 4.32386 22.3196L3.87642 9.299C3.80682 7.28054 4.18963 5.58523 5.02486 4.21307C5.87003 2.83096 7.01847 1.7919 8.47017 1.09588C9.92188 0.389914 11.5277 0.0369307 13.2876 0.0369307C14.799 0.0369307 16.1513 0.265624 17.3445 0.723011C18.5476 1.1804 19.5568 1.81676 20.3722 2.6321C21.1974 3.44744 21.799 4.39205 22.1768 5.46591C22.5646 6.53977 22.6889 7.69815 22.5497 8.94105L17.3743 8.50852C17.4439 7.60369 17.2947 6.86292 16.9268 6.28622C16.5689 5.69957 16.0717 5.27202 15.4354 5.00355C14.8089 4.72514 14.1378 4.58594 13.4219 4.58594C12.6861 4.58594 12 4.75497 11.3636 5.09304C10.7372 5.43111 10.2301 5.94815 9.84233 6.64418C9.46449 7.3402 9.27557 8.22514 9.27557 9.299ZM40.783 0.454545V31H35.2496V5.83878H35.0707L27.9265 10.4027V5.33168L35.5181 0.454545H40.783ZM60.9627 0.454545V31H55.4293V5.83878H55.2504L48.1062 10.4027V5.33168L55.6978 0.454545H60.9627ZM81.1424 0.454545V31H75.609V5.83878H75.43L68.2859 10.4027V5.33168L75.8775 0.454545H81.1424ZM88.8981 31V27.0028L99.5025 16.6072C100.517 15.5831 101.362 14.6733 102.038 13.8778C102.714 13.0824 103.221 12.3118 103.559 11.5661C103.897 10.8203 104.066 10.0249 104.066 9.17969C104.066 8.2152 103.848 7.38991 103.41 6.70383C102.973 6.00781 102.371 5.47088 101.605 5.09304C100.84 4.7152 99.9698 4.52628 98.9954 4.52628C97.9911 4.52628 97.1112 4.73508 96.3555 5.1527C95.5998 5.56037 95.0131 6.14204 94.5955 6.89773C94.1879 7.65341 93.984 8.55327 93.984 9.5973H88.7191C88.7191 7.65838 89.1616 5.97301 90.0465 4.54119C90.9315 3.10937 92.1495 2.00071 93.7006 1.2152C95.2617 0.429687 97.0515 0.0369307 99.07 0.0369307C101.118 0.0369307 102.918 0.419743 104.469 1.18537C106.02 1.95099 107.223 3 108.078 4.33239C108.944 5.66477 109.376 7.18608 109.376 8.89631C109.376 10.0398 109.157 11.1634 108.72 12.267C108.282 13.3707 107.512 14.5937 106.408 15.9361C105.314 17.2784 103.778 18.9041 101.799 20.8132L96.5344 26.1676V26.3764H109.838V31H88.8981ZM118.37 31.3281C117.465 31.3281 116.689 31.0099 116.043 30.3736C115.397 29.7372 115.078 28.9616 115.088 28.0469C115.078 27.152 115.397 26.3864 116.043 25.75C116.689 25.1136 117.465 24.7955 118.37 24.7955C119.245 24.7955 120.005 25.1136 120.652 25.75C121.308 26.3864 121.641 27.152 121.651 28.0469C121.641 28.6534 121.482 29.2053 121.174 29.7024C120.875 30.1996 120.478 30.5973 119.98 30.8956C119.493 31.1839 118.956 31.3281 118.37 31.3281ZM137.103 31.4176C134.955 31.4176 133.046 31.0497 131.375 30.3139C129.715 29.5781 128.402 28.554 127.438 27.2415C126.473 25.929 125.961 24.4126 125.902 22.6925H131.51C131.559 23.5178 131.833 24.2386 132.33 24.8551C132.827 25.4616 133.488 25.9339 134.314 26.272C135.139 26.6101 136.064 26.7791 137.088 26.7791C138.181 26.7791 139.151 26.5902 139.996 26.2124C140.841 25.8246 141.502 25.2876 141.98 24.6016C142.457 23.9155 142.691 23.125 142.681 22.2301C142.691 21.3054 142.452 20.4901 141.965 19.7841C141.478 19.0781 140.772 18.5263 139.847 18.1286C138.932 17.7308 137.828 17.532 136.536 17.532H133.836V13.2663H136.536C137.6 13.2663 138.529 13.0824 139.325 12.7145C140.13 12.3466 140.762 11.8295 141.219 11.1634C141.676 10.4872 141.9 9.70668 141.89 8.82173C141.9 7.95668 141.706 7.20597 141.309 6.5696C140.921 5.92329 140.369 5.42116 139.653 5.06321C138.947 4.70525 138.117 4.52628 137.162 4.52628C136.228 4.52628 135.363 4.69531 134.567 5.03338C133.772 5.37145 133.13 5.85369 132.643 6.48011C132.156 7.09659 131.897 7.83239 131.868 8.6875H126.543C126.583 6.97727 127.075 5.47585 128.02 4.18324C128.974 2.88068 130.247 1.86648 131.838 1.14062C133.429 0.404829 135.213 0.0369307 137.192 0.0369307C139.23 0.0369307 141 0.419743 142.502 1.18537C144.013 1.94105 145.181 2.96023 146.007 4.2429C146.832 5.52557 147.245 6.94247 147.245 8.49361C147.255 10.2138 146.748 11.6555 145.723 12.8189C144.709 13.9822 143.377 14.7429 141.726 15.1009V15.3395C143.874 15.6378 145.52 16.4332 146.663 17.7259C147.816 19.0085 148.388 20.6044 148.378 22.5135C148.378 24.2237 147.891 25.755 146.917 27.1072C145.952 28.4496 144.62 29.5036 142.919 30.2692C141.229 31.0348 139.29 31.4176 137.103 31.4176ZM153.498 31V27.0028L164.102 16.6072C165.116 15.5831 165.961 14.6733 166.638 13.8778C167.314 13.0824 167.821 12.3118 168.159 11.5661C168.497 10.8203 168.666 10.0249 168.666 9.17969C168.666 8.2152 168.447 7.38991 168.01 6.70383C167.572 6.00781 166.971 5.47088 166.205 5.09304C165.439 4.7152 164.569 4.52628 163.595 4.52628C162.591 4.52628 161.711 4.73508 160.955 5.1527C160.199 5.56037 159.613 6.14204 159.195 6.89773C158.787 7.65341 158.584 8.55327 158.584 9.5973H153.319C153.319 7.65838 153.761 5.97301 154.646 4.54119C155.531 3.10937 156.749 2.00071 158.3 1.2152C159.861 0.429687 161.651 0.0369307 163.67 0.0369307C165.718 0.0369307 167.518 0.419743 169.069 1.18537C170.62 1.95099 171.823 3 172.678 4.33239C173.543 5.66477 173.976 7.18608 173.976 8.89631C173.976 10.0398 173.757 11.1634 173.319 12.267C172.882 13.3707 172.111 14.5937 171.008 15.9361C169.914 17.2784 168.378 18.9041 166.399 20.8132L161.134 26.1676V26.3764H174.438V31H153.498Z" fill="white"/>
</svg>
