<svg width="166" height="32" viewBox="0 0 166 32" fill="none" xmlns="http://www.w3.org/2000/svg">
<path d="M22.4304 31H0.893466V26.3615H22.4304V31ZM16.3452 18.9339H0.789062V14.4148H16.3452V18.9339ZM9.27557 9.299L9.75284 22.081C9.8125 23.4034 9.59375 24.5469 9.09659 25.5114C8.60938 26.4659 7.74929 27.2514 6.51634 27.8679L2.57884 26.3615C3.06605 26.2919 3.43892 26.0384 3.69744 25.6009C3.95597 25.1634 4.12997 24.6463 4.21946 24.0497C4.30895 23.4432 4.34375 22.8665 4.32386 22.3196L3.87642 9.299C3.80682 7.28054 4.18963 5.58523 5.02486 4.21307C5.87003 2.83096 7.01847 1.7919 8.47017 1.09588C9.92188 0.389914 11.5277 0.0369307 13.2876 0.0369307C14.799 0.0369307 16.1513 0.265624 17.3445 0.723011C18.5476 1.1804 19.5568 1.81676 20.3722 2.6321C21.1974 3.44744 21.799 4.39205 22.1768 5.46591C22.5646 6.53977 22.6889 7.69815 22.5497 8.94105L17.3743 8.50852C17.4439 7.60369 17.2947 6.86292 16.9268 6.28622C16.5689 5.69957 16.0717 5.27202 15.4354 5.00355C14.8089 4.72514 14.1378 4.58594 13.4219 4.58594C12.6861 4.58594 12 4.75497 11.3636 5.09304C10.7372 5.43111 10.2301 5.94815 9.84233 6.64418C9.46449 7.3402 9.27557 8.22514 9.27557 9.299ZM29.4776 31L42.4684 5.28693V5.07812H27.3896V0.454545H48.1957V5.18253L35.2198 31H29.4776ZM49.9966 25.3324V20.9325L62.9576 0.454545H66.6266V6.71875H64.3894L55.6642 20.5447V20.7834H73.7559V25.3324H49.9966ZM64.5684 31V23.9901L64.628 22.0213V0.454545H69.8482V31H64.5684ZM89.4835 31.4176C87.3358 31.4176 85.4267 31.0497 83.7562 30.3139C82.0957 29.5781 80.7832 28.554 79.8187 27.2415C78.8542 25.929 78.3422 24.4126 78.2825 22.6925H83.8904C83.9402 23.5178 84.2136 24.2386 84.7108 24.8551C85.2079 25.4616 85.8691 25.9339 86.6944 26.272C87.5197 26.6101 88.4444 26.7791 89.4686 26.7791C90.5623 26.7791 91.5318 26.5902 92.377 26.2124C93.2221 25.8246 93.8833 25.2876 94.3606 24.6016C94.8379 23.9155 95.0716 23.125 95.0616 22.2301C95.0716 21.3054 94.8329 20.4901 94.3457 19.7841C93.8585 19.0781 93.1525 18.5263 92.2278 18.1286C91.313 17.7308 90.2093 17.532 88.9167 17.532H86.2172V13.2663H88.9167C89.9806 13.2663 90.9103 13.0824 91.7058 12.7145C92.5112 12.3466 93.1426 11.8295 93.6 11.1634C94.0574 10.4872 94.2811 9.70668 94.2711 8.82173C94.2811 7.95668 94.0872 7.20597 93.6895 6.5696C93.3017 5.92329 92.7498 5.42116 92.0339 5.06321C91.3279 4.70525 90.4977 4.52628 89.5431 4.52628C88.6085 4.52628 87.7434 4.69531 86.948 5.03338C86.1525 5.37145 85.5112 5.85369 85.024 6.48011C84.5368 7.09659 84.2782 7.83239 84.2484 8.6875H78.9238C78.9636 6.97727 79.4558 5.47585 80.4004 4.18324C81.3549 2.88068 82.6277 1.86648 84.2186 1.14062C85.8095 0.404829 87.5943 0.0369307 89.573 0.0369307C91.6113 0.0369307 93.3812 0.419743 94.8826 1.18537C96.394 1.94105 97.5623 2.96023 98.3876 4.2429C99.2129 5.52557 99.6255 6.94247 99.6255 8.49361C99.6355 10.2138 99.1284 11.6555 98.1042 12.8189C97.09 13.9822 95.7576 14.7429 94.1071 15.1009V15.3395C96.2548 15.6378 97.9004 16.4332 99.0439 17.7259C100.197 19.0085 100.769 20.6044 100.759 22.5135C100.759 24.2237 100.272 25.755 99.2974 27.1072C98.3329 28.4496 97.0005 29.5036 95.3002 30.2692C93.6099 31.0348 91.671 31.4176 89.4835 31.4176ZM108.362 31.3281C107.457 31.3281 106.681 31.0099 106.035 30.3736C105.389 29.7372 105.071 28.9616 105.081 28.0469C105.071 27.152 105.389 26.3864 106.035 25.75C106.681 25.1136 107.457 24.7955 108.362 24.7955C109.237 24.7955 109.998 25.1136 110.644 25.75C111.3 26.3864 111.633 27.152 111.643 28.0469C111.633 28.6534 111.474 29.2053 111.166 29.7024C110.868 30.1996 110.47 30.5973 109.973 30.8956C109.485 31.1839 108.949 31.3281 108.362 31.3281ZM127.095 31.4176C124.947 31.4176 123.038 31.0497 121.368 30.3139C119.707 29.5781 118.395 28.554 117.43 27.2415C116.466 25.929 115.953 24.4126 115.894 22.6925H121.502C121.551 23.5178 121.825 24.2386 122.322 24.8551C122.819 25.4616 123.48 25.9339 124.306 26.272C125.131 26.6101 126.056 26.7791 127.08 26.7791C128.174 26.7791 129.143 26.5902 129.988 26.2124C130.833 25.8246 131.495 25.2876 131.972 24.6016C132.449 23.9155 132.683 23.125 132.673 22.2301C132.683 21.3054 132.444 20.4901 131.957 19.7841C131.47 19.0781 130.764 18.5263 129.839 18.1286C128.924 17.7308 127.821 17.532 126.528 17.532H123.828V13.2663H126.528C127.592 13.2663 128.522 13.0824 129.317 12.7145C130.123 12.3466 130.754 11.8295 131.211 11.1634C131.669 10.4872 131.892 9.70668 131.882 8.82173C131.892 7.95668 131.699 7.20597 131.301 6.5696C130.913 5.92329 130.361 5.42116 129.645 5.06321C128.939 4.70525 128.109 4.52628 127.154 4.52628C126.22 4.52628 125.355 4.69531 124.559 5.03338C123.764 5.37145 123.123 5.85369 122.635 6.48011C122.148 7.09659 121.89 7.83239 121.86 8.6875H116.535C116.575 6.97727 117.067 5.47585 118.012 4.18324C118.966 2.88068 120.239 1.86648 121.83 1.14062C123.421 0.404829 125.206 0.0369307 127.184 0.0369307C129.223 0.0369307 130.993 0.419743 132.494 1.18537C134.005 1.94105 135.174 2.96023 135.999 4.2429C136.824 5.52557 137.237 6.94247 137.237 8.49361C137.247 10.2138 136.74 11.6555 135.716 12.8189C134.701 13.9822 133.369 14.7429 131.718 15.1009V15.3395C133.866 15.6378 135.512 16.4332 136.655 17.7259C137.809 19.0085 138.38 20.6044 138.37 22.5135C138.37 24.2237 137.883 25.755 136.909 27.1072C135.944 28.4496 134.612 29.5036 132.912 30.2692C131.221 31.0348 129.282 31.4176 127.095 31.4176ZM154.452 31.4176C152.305 31.4176 150.395 31.0497 148.725 30.3139C147.064 29.5781 145.752 28.554 144.787 27.2415C143.823 25.929 143.311 24.4126 143.251 22.6925H148.859C148.909 23.5178 149.182 24.2386 149.68 24.8551C150.177 25.4616 150.838 25.9339 151.663 26.272C152.488 26.6101 153.413 26.7791 154.437 26.7791C155.531 26.7791 156.501 26.5902 157.346 26.2124C158.191 25.8246 158.852 25.2876 159.329 24.6016C159.807 23.9155 160.04 23.125 160.03 22.2301C160.04 21.3054 159.802 20.4901 159.314 19.7841C158.827 19.0781 158.121 18.5263 157.197 18.1286C156.282 17.7308 155.178 17.532 153.885 17.532H151.186V13.2663H153.885C154.949 13.2663 155.879 13.0824 156.675 12.7145C157.48 12.3466 158.111 11.8295 158.569 11.1634C159.026 10.4872 159.25 9.70668 159.24 8.82173C159.25 7.95668 159.056 7.20597 158.658 6.5696C158.27 5.92329 157.719 5.42116 157.003 5.06321C156.297 4.70525 155.466 4.52628 154.512 4.52628C153.577 4.52628 152.712 4.69531 151.917 5.03338C151.121 5.37145 150.48 5.85369 149.993 6.48011C149.506 7.09659 149.247 7.83239 149.217 8.6875H143.893C143.932 6.97727 144.425 5.47585 145.369 4.18324C146.324 2.88068 147.596 1.86648 149.187 1.14062C150.778 0.404829 152.563 0.0369307 154.542 0.0369307C156.58 0.0369307 158.35 0.419743 159.851 1.18537C161.363 1.94105 162.531 2.96023 163.356 4.2429C164.182 5.52557 164.594 6.94247 164.594 8.49361C164.604 10.2138 164.097 11.6555 163.073 12.8189C162.059 13.9822 160.726 14.7429 159.076 15.1009V15.3395C161.224 15.6378 162.869 16.4332 164.013 17.7259C165.166 19.0085 165.738 20.6044 165.728 22.5135C165.728 24.2237 165.241 25.755 164.266 27.1072C163.302 28.4496 161.969 29.5036 160.269 30.2692C158.579 31.0348 156.64 31.4176 154.452 31.4176Z" fill="white"/>
</svg>
