<svg width="103" height="22" viewBox="0 0 103 22" fill="none" xmlns="http://www.w3.org/2000/svg">
<rect x="0.5" y="0.5" width="102" height="21" rx="10.5" stroke="#EEA22F"/>
<path d="M34.9375 11C34.9375 11.862 34.776 12.6003 34.4531 13.2148C34.1328 13.8268 33.6953 14.2956 33.1406 14.6211C32.5885 14.9466 31.9622 15.1094 31.2617 15.1094C30.5612 15.1094 29.9336 14.9466 29.3789 14.6211C28.8268 14.293 28.3893 13.8229 28.0664 13.2109C27.7461 12.5964 27.5859 11.8594 27.5859 11C27.5859 10.138 27.7461 9.40104 28.0664 8.78906C28.3893 8.17448 28.8268 7.70443 29.3789 7.37891C29.9336 7.05339 30.5612 6.89062 31.2617 6.89062C31.9622 6.89062 32.5885 7.05339 33.1406 7.37891C33.6953 7.70443 34.1328 8.17448 34.4531 8.78906C34.776 9.40104 34.9375 10.138 34.9375 11ZM33.4805 11C33.4805 10.3932 33.3854 9.88151 33.1953 9.46484C33.0078 9.04557 32.7474 8.72917 32.4141 8.51563C32.0807 8.29948 31.6966 8.19141 31.2617 8.19141C30.8268 8.19141 30.4427 8.29948 30.1094 8.51563C29.776 8.72917 29.5143 9.04557 29.3242 9.46484C29.1367 9.88151 29.043 10.3932 29.043 11C29.043 11.6068 29.1367 12.1198 29.3242 12.5391C29.5143 12.9557 29.776 13.2721 30.1094 13.4883C30.4427 13.7018 30.8268 13.8086 31.2617 13.8086C31.6966 13.8086 32.0807 13.7018 32.4141 13.4883C32.7474 13.2721 33.0078 12.9557 33.1953 12.5391C33.3854 12.1198 33.4805 11.6068 33.4805 11ZM36.1351 15V9H37.5062V10H37.5687C37.6781 9.65365 37.8656 9.38672 38.1312 9.19922C38.3994 9.00911 38.7054 8.91406 39.0492 8.91406C39.1273 8.91406 39.2145 8.91797 39.3109 8.92578C39.4099 8.93099 39.4919 8.9401 39.557 8.95312V10.2539C39.4971 10.2331 39.402 10.2148 39.2718 10.1992C39.1442 10.181 39.0205 10.1719 38.9007 10.1719C38.6429 10.1719 38.4112 10.2279 38.2054 10.3398C38.0023 10.4492 37.8421 10.6016 37.725 10.7969C37.6078 10.9922 37.5492 11.2174 37.5492 11.4727V15H36.1351ZM42.7487 17.375C42.2409 17.375 41.8047 17.306 41.4402 17.168C41.0756 17.0326 40.7826 16.8503 40.5612 16.6211C40.3399 16.3919 40.1862 16.138 40.1003 15.8594L41.3737 15.5508C41.431 15.668 41.5144 15.7839 41.6237 15.8984C41.7331 16.0156 41.8803 16.112 42.0652 16.1875C42.2527 16.2656 42.4883 16.3047 42.7722 16.3047C43.1732 16.3047 43.5053 16.207 43.7683 16.0117C44.0313 15.819 44.1628 15.5013 44.1628 15.0586V13.9219H44.0925C44.0196 14.0677 43.9128 14.2174 43.7722 14.3711C43.6342 14.5247 43.4506 14.6536 43.2214 14.7578C42.9948 14.862 42.7097 14.9141 42.3659 14.9141C41.905 14.9141 41.487 14.806 41.112 14.5898C40.7396 14.3711 40.4428 14.0456 40.2214 13.6133C40.0027 13.1784 39.8933 12.6341 39.8933 11.9805C39.8933 11.3216 40.0027 10.7656 40.2214 10.3125C40.4428 9.85677 40.7409 9.51172 41.1159 9.27734C41.4909 9.04036 41.9089 8.92188 42.3698 8.92188C42.7214 8.92188 43.0105 8.98177 43.237 9.10156C43.4662 9.21875 43.6485 9.36068 43.7839 9.52734C43.9193 9.69141 44.0222 9.84635 44.0925 9.99219H44.1706V9H45.5652V15.0977C45.5652 15.6107 45.4428 16.0352 45.198 16.3711C44.9532 16.707 44.6185 16.9583 44.1941 17.125C43.7696 17.2917 43.2878 17.375 42.7487 17.375ZM42.7605 13.8047C43.0599 13.8047 43.3152 13.7318 43.5261 13.5859C43.737 13.4401 43.8972 13.2305 44.0066 12.957C44.1159 12.6836 44.1706 12.3555 44.1706 11.9727C44.1706 11.5951 44.1159 11.2643 44.0066 10.9805C43.8998 10.6966 43.7409 10.4766 43.53 10.3203C43.3217 10.1615 43.0652 10.082 42.7605 10.082C42.4454 10.082 42.1823 10.1641 41.9714 10.3281C41.7605 10.4922 41.6016 10.7174 41.4948 11.0039C41.3881 11.2878 41.3347 11.6107 41.3347 11.9727C41.3347 12.3398 41.3881 12.6615 41.4948 12.9375C41.6042 13.2109 41.7644 13.4245 41.9753 13.5781C42.1889 13.7292 42.4506 13.8047 42.7605 13.8047ZM48.6309 15.1211C48.2507 15.1211 47.9083 15.0534 47.6036 14.918C47.3015 14.7799 47.0619 14.5768 46.8848 14.3086C46.7104 14.0404 46.6231 13.7096 46.6231 13.3164C46.6231 12.9779 46.6856 12.6979 46.8106 12.4766C46.9356 12.2552 47.1062 12.0781 47.3223 11.9453C47.5385 11.8125 47.782 11.7122 48.0528 11.6445C48.3263 11.5742 48.6088 11.5234 48.9005 11.4922C49.252 11.4557 49.5372 11.4232 49.7559 11.3945C49.9747 11.3633 50.1335 11.3164 50.2325 11.2539C50.3341 11.1888 50.3848 11.0885 50.3848 10.9531V10.9297C50.3848 10.6354 50.2976 10.4076 50.1231 10.2461C49.9486 10.0846 49.6973 10.0039 49.3692 10.0039C49.0229 10.0039 48.7481 10.0794 48.545 10.2305C48.3445 10.3815 48.2091 10.5599 48.1388 10.7656L46.8184 10.5781C46.9226 10.2135 47.0945 9.90885 47.3341 9.66406C47.5736 9.41667 47.8666 9.23177 48.213 9.10937C48.5593 8.98438 48.9421 8.92188 49.3614 8.92188C49.6505 8.92188 49.9382 8.95573 50.2247 9.02344C50.5111 9.09115 50.7729 9.20312 51.0098 9.35937C51.2468 9.51302 51.4369 9.72266 51.5802 9.98828C51.726 10.2539 51.7989 10.5859 51.7989 10.9844V15H50.4395V14.1758H50.3927C50.3067 14.3424 50.1856 14.4987 50.0294 14.6445C49.8757 14.7878 49.6817 14.9036 49.4473 14.9922C49.2156 15.0781 48.9434 15.1211 48.6309 15.1211ZM48.9981 14.082C49.282 14.082 49.5281 14.026 49.7364 13.9141C49.9447 13.7995 50.1049 13.6484 50.2169 13.4609C50.3315 13.2734 50.3888 13.069 50.3888 12.8477V12.1406C50.3445 12.1771 50.269 12.2109 50.1622 12.2422C50.058 12.2734 49.9408 12.3008 49.8106 12.3242C49.6804 12.3477 49.5515 12.3685 49.4239 12.3867C49.2963 12.4049 49.1856 12.4206 49.0919 12.4336C48.8809 12.4622 48.6921 12.5091 48.5255 12.5742C48.3588 12.6393 48.2273 12.7305 48.1309 12.8477C48.0346 12.9622 47.9864 13.1107 47.9864 13.293C47.9864 13.5534 48.0815 13.75 48.2716 13.8828C48.4617 14.0156 48.7039 14.082 48.9981 14.082ZM54.5248 11.4844V15H53.1108V9H54.4623V10.0195H54.5327C54.6707 9.68359 54.8907 9.41667 55.1928 9.21875C55.4975 9.02083 55.8738 8.92188 56.3217 8.92188C56.7358 8.92188 57.0965 9.01042 57.4037 9.1875C57.7136 9.36458 57.9532 9.62109 58.1225 9.95703C58.2944 10.293 58.379 10.7005 58.3764 11.1797V15H56.9623V11.3984C56.9623 10.9974 56.8582 10.6836 56.6498 10.457C56.4441 10.2305 56.159 10.1172 55.7944 10.1172C55.547 10.1172 55.3269 10.1719 55.1342 10.2812C54.9441 10.388 54.7944 10.543 54.685 10.7461C54.5782 10.9492 54.5248 11.1953 54.5248 11.4844ZM59.7039 15V9H61.118V15H59.7039ZM60.4148 8.14844C60.1909 8.14844 59.9982 8.07422 59.8367 7.92578C59.6753 7.77474 59.5945 7.59375 59.5945 7.38281C59.5945 7.16927 59.6753 6.98828 59.8367 6.83984C59.9982 6.6888 60.1909 6.61328 60.4148 6.61328C60.6414 6.61328 60.8341 6.6888 60.993 6.83984C61.1544 6.98828 61.2352 7.16927 61.2352 7.38281C61.2352 7.59375 61.1544 7.77474 60.993 7.92578C60.8341 8.07422 60.6414 8.14844 60.4148 8.14844ZM67.2043 10.5859L65.9152 10.7266C65.8787 10.5964 65.8149 10.474 65.7238 10.3594C65.6352 10.2448 65.5155 10.1523 65.3644 10.082C65.2134 10.0117 65.0285 9.97656 64.8097 9.97656C64.5155 9.97656 64.2681 10.0404 64.0675 10.168C63.8696 10.2956 63.772 10.4609 63.7746 10.6641C63.772 10.8385 63.8358 10.9805 63.966 11.0898C64.0988 11.1992 64.3175 11.2891 64.6222 11.3594L65.6457 11.5781C66.2134 11.7005 66.6352 11.8945 66.9113 12.1602C67.1899 12.4258 67.3306 12.7734 67.3332 13.2031C67.3306 13.5807 67.2199 13.9141 67.0011 14.2031C66.785 14.4896 66.4842 14.7135 66.0988 14.875C65.7134 15.0365 65.2707 15.1172 64.7707 15.1172C64.0363 15.1172 63.4451 14.9635 62.9972 14.6562C62.5493 14.3464 62.2824 13.9154 62.1964 13.3633L63.5754 13.2305C63.6379 13.5013 63.7707 13.7057 63.9738 13.8437C64.1769 13.9818 64.4412 14.0508 64.7668 14.0508C65.1027 14.0508 65.3722 13.9818 65.5754 13.8437C65.7811 13.7057 65.8839 13.5352 65.8839 13.332C65.8839 13.1602 65.8175 13.0182 65.6847 12.9062C65.5545 12.7943 65.3514 12.7083 65.0754 12.6484L64.0519 12.4336C63.4764 12.3138 63.0506 12.112 62.7746 11.8281C62.4985 11.5417 62.3618 11.1797 62.3644 10.7422C62.3618 10.3724 62.4621 10.0521 62.6652 9.78125C62.8709 9.50781 63.1561 9.29687 63.5207 9.14844C63.8879 8.9974 64.311 8.92188 64.7902 8.92188C65.4933 8.92188 66.0467 9.07161 66.4504 9.37109C66.8566 9.67057 67.1079 10.0755 67.2043 10.5859ZM70.1157 15.1211C69.7355 15.1211 69.3931 15.0534 69.0884 14.918C68.7863 14.7799 68.5467 14.5768 68.3696 14.3086C68.1952 14.0404 68.1079 13.7096 68.1079 13.3164C68.1079 12.9779 68.1704 12.6979 68.2954 12.4766C68.4204 12.2552 68.591 12.0781 68.8071 11.9453C69.0233 11.8125 69.2668 11.7122 69.5376 11.6445C69.8111 11.5742 70.0936 11.5234 70.3853 11.4922C70.7368 11.4557 71.022 11.4232 71.2407 11.3945C71.4595 11.3633 71.6183 11.3164 71.7173 11.2539C71.8189 11.1888 71.8696 11.0885 71.8696 10.9531V10.9297C71.8696 10.6354 71.7824 10.4076 71.6079 10.2461C71.4335 10.0846 71.1821 10.0039 70.854 10.0039C70.5077 10.0039 70.2329 10.0794 70.0298 10.2305C69.8293 10.3815 69.6939 10.5599 69.6236 10.7656L68.3032 10.5781C68.4074 10.2135 68.5793 9.90885 68.8189 9.66406C69.0585 9.41667 69.3514 9.23177 69.6978 9.10937C70.0441 8.98438 70.4269 8.92188 70.8462 8.92188C71.1353 8.92188 71.423 8.95573 71.7095 9.02344C71.996 9.09115 72.2577 9.20312 72.4946 9.35937C72.7316 9.51302 72.9217 9.72266 73.065 9.98828C73.2108 10.2539 73.2837 10.5859 73.2837 10.9844V15H71.9243V14.1758H71.8775C71.7915 14.3424 71.6704 14.4987 71.5142 14.6445C71.3605 14.7878 71.1665 14.9036 70.9321 14.9922C70.7004 15.0781 70.4282 15.1211 70.1157 15.1211ZM70.4829 14.082C70.7668 14.082 71.0129 14.026 71.2212 13.9141C71.4295 13.7995 71.5897 13.6484 71.7017 13.4609C71.8163 13.2734 71.8736 13.069 71.8736 12.8477V12.1406C71.8293 12.1771 71.7538 12.2109 71.647 12.2422C71.5428 12.2734 71.4256 12.3008 71.2954 12.3242C71.1652 12.3477 71.0363 12.3685 70.9087 12.3867C70.7811 12.4049 70.6704 12.4206 70.5767 12.4336C70.3657 12.4622 70.1769 12.5091 70.0103 12.5742C69.8436 12.6393 69.7121 12.7305 69.6157 12.8477C69.5194 12.9622 69.4712 13.1107 69.4712 13.293C69.4712 13.5534 69.5663 13.75 69.7564 13.8828C69.9465 14.0156 70.1887 14.082 70.4829 14.082ZM77.5917 9V10.0937H74.1425V9H77.5917ZM74.994 7.5625H76.4081V13.1953C76.4081 13.3854 76.4367 13.5313 76.494 13.6328C76.5539 13.7318 76.632 13.7995 76.7284 13.8359C76.8248 13.8724 76.9315 13.8906 77.0487 13.8906C77.1373 13.8906 77.218 13.8841 77.2909 13.8711C77.3664 13.8581 77.4237 13.8464 77.4628 13.8359L77.7011 14.9414C77.6255 14.9674 77.5175 14.9961 77.3768 15.0273C77.2388 15.0586 77.0695 15.0768 76.869 15.082C76.5149 15.0924 76.1958 15.0391 75.912 14.9219C75.6281 14.8021 75.4029 14.6172 75.2362 14.3672C75.0721 14.1172 74.9914 13.8047 74.994 13.4297V7.5625ZM78.6643 15V9H80.0784V15H78.6643ZM79.3752 8.14844C79.1513 8.14844 78.9586 8.07422 78.7971 7.92578C78.6356 7.77474 78.5549 7.59375 78.5549 7.38281C78.5549 7.16927 78.6356 6.98828 78.7971 6.83984C78.9586 6.6888 79.1513 6.61328 79.3752 6.61328C79.6018 6.61328 79.7945 6.6888 79.9534 6.83984C80.1148 6.98828 80.1955 7.16927 80.1955 7.38281C80.1955 7.59375 80.1148 7.77474 79.9534 7.92578C79.7945 8.07422 79.6018 8.14844 79.3752 8.14844ZM84.0397 15.1172C83.4537 15.1172 82.9459 14.9883 82.5162 14.7305C82.0865 14.4727 81.7532 14.112 81.5162 13.6484C81.2818 13.1849 81.1646 12.6432 81.1646 12.0234C81.1646 11.4036 81.2818 10.8607 81.5162 10.3945C81.7532 9.92839 82.0865 9.56641 82.5162 9.30859C82.9459 9.05078 83.4537 8.92188 84.0397 8.92188C84.6256 8.92188 85.1334 9.05078 85.5631 9.30859C85.9928 9.56641 86.3248 9.92839 86.5592 10.3945C86.7962 10.8607 86.9147 11.4036 86.9147 12.0234C86.9147 12.6432 86.7962 13.1849 86.5592 13.6484C86.3248 14.112 85.9928 14.4727 85.5631 14.7305C85.1334 14.9883 84.6256 15.1172 84.0397 15.1172ZM84.0475 13.9844C84.3652 13.9844 84.6308 13.8971 84.8443 13.7227C85.0579 13.5456 85.2167 13.3086 85.3209 13.0117C85.4277 12.7148 85.4811 12.3841 85.4811 12.0195C85.4811 11.6523 85.4277 11.3203 85.3209 11.0234C85.2167 10.724 85.0579 10.4857 84.8443 10.3086C84.6308 10.1315 84.3652 10.043 84.0475 10.043C83.7219 10.043 83.4511 10.1315 83.235 10.3086C83.0214 10.4857 82.8613 10.724 82.7545 11.0234C82.6503 11.3203 82.5982 11.6523 82.5982 12.0195C82.5982 12.3841 82.6503 12.7148 82.7545 13.0117C82.8613 13.3086 83.0214 13.5456 83.235 13.7227C83.4511 13.8971 83.7219 13.9844 84.0475 13.9844ZM89.4189 11.4844V15H88.0048V9H89.3564V10.0195H89.4267C89.5647 9.68359 89.7848 9.41667 90.0869 9.21875C90.3916 9.02083 90.7679 8.92188 91.2158 8.92188C91.6298 8.92188 91.9905 9.01042 92.2978 9.1875C92.6077 9.36458 92.8473 9.62109 93.0166 9.95703C93.1884 10.293 93.2731 10.7005 93.2705 11.1797V15H91.8564V11.3984C91.8564 10.9974 91.7522 10.6836 91.5439 10.457C91.3382 10.2305 91.053 10.1172 90.6884 10.1172C90.441 10.1172 90.221 10.1719 90.0283 10.2812C89.8382 10.388 89.6884 10.543 89.5791 10.7461C89.4723 10.9492 89.4189 11.1953 89.4189 11.4844Z" fill="#EEA22F"/>
<path d="M12 8.39951C12 7.55943 12 7.13939 12.1635 6.81853C12.3073 6.53628 12.5368 6.30681 12.819 6.163C13.1399 5.99951 13.5599 5.99951 14.4 5.99951H14.9724C15.3481 5.99951 15.5359 5.99951 15.7065 6.0513C15.8574 6.09715 15.9978 6.17231 16.1197 6.27249C16.2574 6.38565 16.3616 6.54196 16.57 6.85459L16.7634 7.1447C16.9717 7.45733 17.0759 7.61364 17.2136 7.7268C17.3355 7.82698 17.4759 7.90214 17.6269 7.94799C17.7974 7.99978 17.9853 7.99978 18.361 7.99978H19.6C20.4401 7.99978 20.8601 7.99978 21.181 8.16327C21.4632 8.30708 21.6927 8.53655 21.8365 8.81879C22 9.13966 22 9.5597 22 10.3998V12.9331C22 13.7732 22 14.1932 21.8365 14.5141C21.6927 14.7963 21.4632 15.0258 21.181 15.1696C20.8601 15.3331 20.4401 15.3331 19.6 15.3331H14.4C13.5599 15.3331 13.1399 15.3331 12.819 15.1696C12.5368 15.0258 12.3073 14.7963 12.1635 14.5141C12 14.1932 12 13.7732 12 12.9331V8.39951Z" stroke="#EEA22F"/>
</svg>
