<svg width="65" height="65" viewBox="0 0 65 65" fill="none" xmlns="http://www.w3.org/2000/svg">
<circle cx="32.5" cy="32.5" r="32.5" fill="#D9D9D9" fill-opacity="0.04"/>
<circle cx="32.5" cy="32.5" r="32" stroke="white" stroke-opacity="0.15"/>
<path fill-rule="evenodd" clip-rule="evenodd" d="M33.8126 26.0207L36.3748 23.4585C37.4715 22.3618 38.0198 21.8134 38.6867 21.7221C38.8668 21.6974 39.0494 21.6974 39.2295 21.7221C39.8964 21.8134 40.4447 22.3618 41.5414 23.4585C42.6382 24.5552 43.1865 25.1036 43.2778 25.7705C43.3025 25.9505 43.3025 26.1332 43.2778 26.3132C43.1865 26.9801 42.6382 27.5285 41.5414 28.6252L39.0079 31.1588C36.856 29.9191 35.0681 28.1447 33.8126 26.0207ZM32.3583 27.475L23.0228 36.8105C22.5978 37.2355 22.3852 37.4481 22.2455 37.7092C22.1058 37.9703 22.0468 38.265 21.9289 38.8544L21.0219 43.3897C20.9553 43.7224 20.9221 43.8887 21.0167 43.9833C21.1113 44.0779 21.2776 44.0446 21.6102 43.9781L21.6102 43.9781L21.6102 43.9781L26.1455 43.071L26.1455 43.071C26.735 42.9531 27.0297 42.8942 27.2908 42.7545C27.5519 42.6147 27.7644 42.4022 28.1895 41.9771L37.5498 32.6168C35.4487 31.3129 33.6753 29.5518 32.3583 27.475Z" fill="white"/>
</svg>
