<svg width="99" height="22" viewBox="0 0 99 22" fill="none" xmlns="http://www.w3.org/2000/svg">
<rect x="0.5" y="0.5" width="98" height="21" rx="10.5" stroke="#FF7171"/>
<path d="M30.1367 9.19922C30.1003 8.85807 29.9466 8.59245 29.6758 8.40234C29.4076 8.21224 29.0586 8.11719 28.6289 8.11719C28.3268 8.11719 28.0677 8.16276 27.8516 8.25391C27.6354 8.34505 27.4701 8.46875 27.3555 8.625C27.2409 8.78125 27.1823 8.95964 27.1797 9.16016C27.1797 9.32682 27.2174 9.47135 27.293 9.59375C27.3711 9.71615 27.4766 9.82031 27.6094 9.90625C27.7422 9.98958 27.8893 10.0599 28.0508 10.1172C28.2122 10.1745 28.375 10.2227 28.5391 10.2617L29.2891 10.4492C29.5911 10.5195 29.8815 10.6146 30.1602 10.7344C30.4414 10.8542 30.6927 11.0052 30.9141 11.1875C31.138 11.3698 31.3151 11.5898 31.4453 11.8477C31.5755 12.1055 31.6406 12.4076 31.6406 12.7539C31.6406 13.2227 31.5208 13.6354 31.2813 13.9922C31.0417 14.3464 30.6953 14.6237 30.2422 14.8242C29.7917 15.0221 29.2461 15.1211 28.6055 15.1211C27.9831 15.1211 27.4427 15.0247 26.9844 14.832C26.5286 14.6393 26.1719 14.3581 25.9141 13.9883C25.6589 13.6185 25.5208 13.168 25.5 12.6367H26.9258C26.9466 12.9154 27.0326 13.1471 27.1836 13.332C27.3346 13.5169 27.5313 13.6549 27.7734 13.7461C28.0182 13.8372 28.2917 13.8828 28.5938 13.8828C28.9089 13.8828 29.1849 13.8359 29.4219 13.7422C29.6615 13.6458 29.849 13.513 29.9844 13.3437C30.1198 13.1719 30.1888 12.9714 30.1914 12.7422C30.1888 12.5339 30.1276 12.362 30.0078 12.2266C29.888 12.0885 29.7201 11.974 29.5039 11.8828C29.2904 11.7891 29.0404 11.7057 28.7539 11.6328L27.8438 11.3984C27.1849 11.2292 26.6641 10.9727 26.2813 10.6289C25.901 10.2826 25.7109 9.82292 25.7109 9.25C25.7109 8.77865 25.8385 8.36589 26.0938 8.01172C26.3516 7.65755 26.7018 7.38281 27.1445 7.1875C27.5872 6.98958 28.0885 6.89062 28.6484 6.89062C29.2161 6.89062 29.7135 6.98958 30.1406 7.1875C30.5703 7.38281 30.9076 7.65495 31.1523 8.00391C31.3971 8.35026 31.5234 8.7487 31.5312 9.19922H30.1367ZM35.4164 15.1172C34.8148 15.1172 34.2953 14.9922 33.8578 14.7422C33.4229 14.4896 33.0882 14.1328 32.8539 13.6719C32.6195 13.2083 32.5023 12.6628 32.5023 12.0352C32.5023 11.418 32.6195 10.8763 32.8539 10.4102C33.0908 9.94141 33.4216 9.57682 33.8461 9.31641C34.2705 9.05339 34.7692 8.92188 35.3421 8.92188C35.7119 8.92188 36.0609 8.98177 36.389 9.10156C36.7198 9.21875 37.0114 9.40104 37.264 9.64844C37.5192 9.89583 37.7198 10.2109 37.8656 10.5937C38.0114 10.974 38.0843 11.4271 38.0843 11.9531V12.3867H33.1664V11.4336H36.7289C36.7263 11.1628 36.6677 10.9219 36.5531 10.7109C36.4385 10.4974 36.2783 10.3294 36.0726 10.207C35.8695 10.0846 35.6325 10.0234 35.3617 10.0234C35.0726 10.0234 34.8187 10.0937 34.6 10.2344C34.3812 10.3724 34.2106 10.5547 34.0882 10.7812C33.9685 11.0052 33.9073 11.2513 33.9046 11.5195V12.3516C33.9046 12.7005 33.9685 13 34.0961 13.25C34.2237 13.4974 34.402 13.6875 34.6312 13.8203C34.8604 13.9505 35.1286 14.0156 35.4359 14.0156C35.6416 14.0156 35.8278 13.987 35.9945 13.9297C36.1612 13.8698 36.3057 13.7826 36.4281 13.668C36.5505 13.5534 36.6429 13.4115 36.7054 13.2422L38.0257 13.3906C37.9424 13.7396 37.7836 14.0443 37.5492 14.3047C37.3174 14.5625 37.0205 14.763 36.6586 14.9062C36.2966 15.0469 35.8825 15.1172 35.4164 15.1172ZM41.7878 15.1172C41.1889 15.1172 40.6745 14.9857 40.2448 14.7227C39.8178 14.4596 39.4883 14.0964 39.2566 13.6328C39.0274 13.1667 38.9128 12.6302 38.9128 12.0234C38.9128 11.4141 39.03 10.8763 39.2644 10.4102C39.4987 9.94141 39.8295 9.57682 40.2566 9.31641C40.6862 9.05339 41.1941 8.92188 41.78 8.92188C42.267 8.92188 42.698 9.01172 43.073 9.19141C43.4506 9.36849 43.7514 9.61979 43.9753 9.94531C44.1993 10.2682 44.3269 10.6458 44.3581 11.0781H43.0066C42.9519 10.7891 42.8217 10.5482 42.6159 10.3555C42.4128 10.1602 42.1407 10.0625 41.7995 10.0625C41.5105 10.0625 41.2566 10.1406 41.0378 10.2969C40.8191 10.4505 40.6485 10.6719 40.5261 10.9609C40.4063 11.25 40.3464 11.5964 40.3464 12C40.3464 12.4089 40.4063 12.7604 40.5261 13.0547C40.6459 13.3464 40.8139 13.5716 41.03 13.7305C41.2487 13.8867 41.5053 13.9648 41.7995 13.9648C42.0079 13.9648 42.1941 13.9258 42.3581 13.8477C42.5248 13.7669 42.6641 13.651 42.7761 13.5C42.8881 13.349 42.9649 13.1654 43.0066 12.9492H44.3581C44.3243 13.3737 44.1993 13.75 43.9831 14.0781C43.767 14.4036 43.4727 14.6589 43.1003 14.8437C42.7279 15.026 42.2904 15.1172 41.7878 15.1172ZM49.2335 12.4766V9H50.6475V15H49.2764V13.9336H49.2139C49.0785 14.2695 48.8559 14.5443 48.546 14.7578C48.2387 14.9714 47.8598 15.0781 47.4093 15.0781C47.016 15.0781 46.6684 14.9909 46.3663 14.8164C46.0668 14.6393 45.8324 14.3828 45.6632 14.0469C45.4939 13.7083 45.4093 13.2995 45.4093 12.8203V9H46.8233V12.6016C46.8233 12.9818 46.9275 13.2839 47.1358 13.5078C47.3442 13.7318 47.6176 13.8437 47.9561 13.8437C48.1645 13.8437 48.3663 13.793 48.5616 13.6914C48.7569 13.5898 48.9171 13.4388 49.0421 13.2383C49.1697 13.0352 49.2335 12.7812 49.2335 12.4766ZM51.9916 15V9H53.3627V10H53.4252C53.5346 9.65365 53.7221 9.38672 53.9877 9.19922C54.256 9.00911 54.562 8.91406 54.9057 8.91406C54.9838 8.91406 55.0711 8.91797 55.1674 8.92578C55.2664 8.93099 55.3484 8.9401 55.4135 8.95312V10.2539C55.3536 10.2331 55.2586 10.2148 55.1284 10.1992C55.0008 10.181 54.8771 10.1719 54.7573 10.1719C54.4995 10.1719 54.2677 10.2279 54.062 10.3398C53.8588 10.4492 53.6987 10.6016 53.5815 10.7969C53.4643 10.9922 53.4057 11.2174 53.4057 11.4727V15H51.9916ZM58.6521 15.1172C58.0506 15.1172 57.5311 14.9922 57.0936 14.7422C56.6587 14.4896 56.324 14.1328 56.0896 13.6719C55.8553 13.2083 55.7381 12.6628 55.7381 12.0352C55.7381 11.418 55.8553 10.8763 56.0896 10.4102C56.3266 9.94141 56.6574 9.57682 57.0818 9.31641C57.5063 9.05339 58.005 8.92188 58.5779 8.92188C58.9477 8.92188 59.2967 8.98177 59.6248 9.10156C59.9555 9.21875 60.2472 9.40104 60.4998 9.64844C60.755 9.89583 60.9555 10.2109 61.1014 10.5937C61.2472 10.974 61.3201 11.4271 61.3201 11.9531V12.3867H56.4021V11.4336H59.9646C59.962 11.1628 59.9035 10.9219 59.7889 10.7109C59.6743 10.4974 59.5141 10.3294 59.3084 10.207C59.1053 10.0846 58.8683 10.0234 58.5975 10.0234C58.3084 10.0234 58.0545 10.0937 57.8357 10.2344C57.617 10.3724 57.4464 10.5547 57.324 10.7812C57.2042 11.0052 57.143 11.2513 57.1404 11.5195V12.3516C57.1404 12.7005 57.2042 13 57.3318 13.25C57.4594 13.4974 57.6378 13.6875 57.867 13.8203C58.0962 13.9505 58.3644 14.0156 58.6717 14.0156C58.8774 14.0156 59.0636 13.987 59.2303 13.9297C59.3969 13.8698 59.5415 13.7826 59.6639 13.668C59.7863 13.5534 59.8787 13.4115 59.9412 13.2422L61.2615 13.3906C61.1782 13.7396 61.0193 14.0443 60.785 14.3047C60.5532 14.5625 60.2563 14.763 59.8943 14.9062C59.5324 15.0469 59.1183 15.1172 58.6521 15.1172ZM66.1148 15H64.5679L67.3843 7H69.1734L71.9937 15H70.4468L68.3101 8.64062H68.2476L66.1148 15ZM66.1655 11.8633H70.3843V13.0273H66.1655V11.8633ZM76.6991 12.4766V9H78.1132V15H76.7421V13.9336H76.6796C76.5442 14.2695 76.3215 14.5443 76.0116 14.7578C75.7043 14.9714 75.3254 15.0781 74.8749 15.0781C74.4817 15.0781 74.134 14.9909 73.8319 14.8164C73.5324 14.6393 73.2981 14.3828 73.1288 14.0469C72.9595 13.7083 72.8749 13.2995 72.8749 12.8203V9H74.2889V12.6016C74.2889 12.9818 74.3931 13.2839 74.6014 13.5078C74.8098 13.7318 75.0832 13.8437 75.4218 13.8437C75.6301 13.8437 75.8319 13.793 76.0272 13.6914C76.2225 13.5898 76.3827 13.4388 76.5077 13.2383C76.6353 13.0352 76.6991 12.7812 76.6991 12.4766ZM82.4534 9V10.0937H79.0041V9H82.4534ZM79.8557 7.5625H81.2698V13.1953C81.2698 13.3854 81.2984 13.5313 81.3557 13.6328C81.4156 13.7318 81.4937 13.7995 81.5901 13.8359C81.6864 13.8724 81.7932 13.8906 81.9104 13.8906C81.9989 13.8906 82.0797 13.8841 82.1526 13.8711C82.2281 13.8581 82.2854 13.8464 82.3245 13.8359L82.5627 14.9414C82.4872 14.9674 82.3791 14.9961 82.2385 15.0273C82.1005 15.0586 81.9312 15.0768 81.7307 15.082C81.3765 15.0924 81.0575 15.0391 80.7737 14.9219C80.4898 14.8021 80.2646 14.6172 80.0979 14.3672C79.9338 14.1172 79.8531 13.8047 79.8557 13.4297V7.5625ZM85.0689 11.4844V15H83.6549V7H85.0377V10.0195H85.108C85.2486 9.68099 85.4661 9.41406 85.7604 9.21875C86.0572 9.02083 86.4348 8.92188 86.8932 8.92188C87.3098 8.92188 87.6731 9.00911 87.983 9.18359C88.2929 9.35807 88.5325 9.61328 88.7018 9.94922C88.8736 10.2852 88.9596 10.6953 88.9596 11.1797V15H87.5455V11.3984C87.5455 10.9948 87.4413 10.681 87.233 10.457C87.0273 10.2305 86.7382 10.1172 86.3658 10.1172C86.1158 10.1172 85.8919 10.1719 85.6939 10.2812C85.4986 10.388 85.345 10.543 85.233 10.7461C85.1236 10.9492 85.0689 11.1953 85.0689 11.4844Z" fill="#FF7171"/>
<path d="M10.625 12.1084C10.625 11.5817 10.625 11.3183 10.6743 11.1004C10.8445 10.3484 11.4317 9.76121 12.1836 9.59106C12.4015 9.54175 12.6649 9.54175 13.1917 9.54175H16.8083C17.3351 9.54175 17.5985 9.54175 17.8164 9.59106C18.5683 9.76121 19.1555 10.3484 19.3257 11.1004C19.375 11.3183 19.375 11.5817 19.375 12.1084V12.1084C19.375 12.8985 19.375 13.2936 19.301 13.6205C19.0458 14.7484 18.165 15.6292 17.0371 15.8844C16.7102 15.9584 16.3151 15.9584 15.525 15.9584H14.475C13.6849 15.9584 13.2898 15.9584 12.9629 15.8844C11.835 15.6292 10.9542 14.7484 10.699 13.6205C10.625 13.2936 10.625 12.8985 10.625 12.1084V12.1084Z" stroke="#FF7171"/>
<path d="M17.625 9.54175V8.66675C17.625 7.217 16.4497 6.04175 15 6.04175V6.04175C13.5503 6.04175 12.375 7.217 12.375 8.66675V9.54175" stroke="#FF7171" stroke-linecap="round"/>
</svg>
