<svg width="114" height="22" viewBox="0 0 114 22" fill="none" xmlns="http://www.w3.org/2000/svg">
<rect x="0.5" y="0.5" width="113" height="21" rx="10.5" stroke="#8937F2"/>
<path d="M32.1367 9.19922C32.1003 8.85807 31.9466 8.59245 31.6758 8.40234C31.4076 8.21224 31.0586 8.11719 30.6289 8.11719C30.3268 8.11719 30.0677 8.16276 29.8516 8.25391C29.6354 8.34505 29.4701 8.46875 29.3555 8.625C29.2409 8.78125 29.1823 8.95964 29.1797 9.16016C29.1797 9.32682 29.2174 9.47135 29.293 9.59375C29.3711 9.71615 29.4766 9.82031 29.6094 9.90625C29.7422 9.98958 29.8893 10.0599 30.0508 10.1172C30.2122 10.1745 30.375 10.2227 30.5391 10.2617L31.2891 10.4492C31.5911 10.5195 31.8815 10.6146 32.1602 10.7344C32.4414 10.8542 32.6927 11.0052 32.9141 11.1875C33.138 11.3698 33.3151 11.5898 33.4453 11.8477C33.5755 12.1055 33.6406 12.4076 33.6406 12.7539C33.6406 13.2227 33.5208 13.6354 33.2813 13.9922C33.0417 14.3464 32.6953 14.6237 32.2422 14.8242C31.7917 15.0221 31.2461 15.1211 30.6055 15.1211C29.9831 15.1211 29.4427 15.0247 28.9844 14.832C28.5286 14.6393 28.1719 14.3581 27.9141 13.9883C27.6589 13.6185 27.5208 13.168 27.5 12.6367H28.9258C28.9466 12.9154 29.0326 13.1471 29.1836 13.332C29.3346 13.5169 29.5313 13.6549 29.7734 13.7461C30.0182 13.8372 30.2917 13.8828 30.5938 13.8828C30.9089 13.8828 31.1849 13.8359 31.4219 13.7422C31.6615 13.6458 31.849 13.513 31.9844 13.3437C32.1198 13.1719 32.1888 12.9714 32.1914 12.7422C32.1888 12.5339 32.1276 12.362 32.0078 12.2266C31.888 12.0885 31.7201 11.974 31.5039 11.8828C31.2904 11.7891 31.0404 11.7057 30.7539 11.6328L29.8438 11.3984C29.1849 11.2292 28.6641 10.9727 28.2813 10.6289C27.901 10.2826 27.7109 9.82292 27.7109 9.25C27.7109 8.77865 27.8385 8.36589 28.0938 8.01172C28.3516 7.65755 28.7018 7.38281 29.1445 7.1875C29.5872 6.98958 30.0885 6.89062 30.6484 6.89062C31.2161 6.89062 31.7135 6.98958 32.1406 7.1875C32.5703 7.38281 32.9076 7.65495 33.1523 8.00391C33.3971 8.35026 33.5234 8.7487 33.5312 9.19922H32.1367ZM34.7601 15V9H36.1742V15H34.7601ZM35.4711 8.14844C35.2471 8.14844 35.0544 8.07422 34.8929 7.92578C34.7315 7.77474 34.6507 7.59375 34.6507 7.38281C34.6507 7.16927 34.7315 6.98828 34.8929 6.83984C35.0544 6.6888 35.2471 6.61328 35.4711 6.61328C35.6976 6.61328 35.8903 6.6888 36.0492 6.83984C36.2106 6.98828 36.2914 7.16927 36.2914 7.38281C36.2914 7.59375 36.2106 7.77474 36.0492 7.92578C35.8903 8.07422 35.6976 8.14844 35.4711 8.14844ZM37.5183 15V9H38.8698V10.0195H38.9402C39.0652 9.67578 39.2722 9.40755 39.5612 9.21484C39.8503 9.01953 40.1954 8.92188 40.5964 8.92188C41.0027 8.92188 41.3451 9.02083 41.6238 9.21875C41.905 9.41406 42.1029 9.68099 42.2175 10.0195H42.28C42.4128 9.6862 42.6368 9.42057 42.9519 9.22266C43.2696 9.02214 43.6459 8.92188 44.0808 8.92188C44.6329 8.92188 45.0834 9.09635 45.4323 9.44531C45.7813 9.79427 45.9558 10.3034 45.9558 10.9727V15H44.5378V11.1914C44.5378 10.819 44.4389 10.5469 44.2409 10.375C44.043 10.2005 43.8008 10.1133 43.5144 10.1133C43.1732 10.1133 42.9063 10.2201 42.7136 10.4336C42.5235 10.6445 42.4284 10.9193 42.4284 11.2578V15H41.0417V11.1328C41.0417 10.8229 40.948 10.5755 40.7605 10.3906C40.5756 10.2057 40.3334 10.1133 40.0339 10.1133C39.8308 10.1133 39.6459 10.1654 39.4792 10.2695C39.3126 10.3711 39.1797 10.5156 39.0808 10.7031C38.9818 10.888 38.9323 11.1042 38.9323 11.3516V15H37.5183ZM47.2804 17.25V9H48.671V9.99219H48.753C48.8259 9.84635 48.9288 9.69141 49.0616 9.52734C49.1944 9.36068 49.3741 9.21875 49.6007 9.10156C49.8272 8.98177 50.1163 8.92188 50.4679 8.92188C50.9314 8.92188 51.3494 9.04036 51.7218 9.27734C52.0968 9.51172 52.3936 9.85937 52.6124 10.3203C52.8337 10.7786 52.9444 11.3411 52.9444 12.0078C52.9444 12.6667 52.8363 13.2266 52.6202 13.6875C52.404 14.1484 52.1098 14.5 51.7374 14.7422C51.365 14.9844 50.9431 15.1055 50.4718 15.1055C50.128 15.1055 49.8429 15.0482 49.6163 14.9336C49.3897 14.819 49.2074 14.681 49.0694 14.5195C48.934 14.3555 48.8285 14.2005 48.753 14.0547H48.6944V17.25H47.2804ZM48.6671 12C48.6671 12.388 48.7218 12.7279 48.8311 13.0195C48.9431 13.3112 49.1033 13.5391 49.3116 13.7031C49.5225 13.8646 49.7777 13.9453 50.0772 13.9453C50.3897 13.9453 50.6514 13.862 50.8624 13.6953C51.0733 13.526 51.2322 13.2956 51.3389 13.0039C51.4483 12.7096 51.503 12.375 51.503 12C51.503 11.6276 51.4496 11.2969 51.3429 11.0078C51.2361 10.7187 51.0772 10.4922 50.8663 10.3281C50.6554 10.1641 50.3923 10.082 50.0772 10.082C49.7751 10.082 49.5186 10.1615 49.3077 10.3203C49.0968 10.4792 48.9366 10.7018 48.8272 10.9883C48.7205 11.2747 48.6671 11.612 48.6671 12ZM55.4594 7V15H54.0454V7H55.4594ZM59.4598 15.1172C58.8582 15.1172 58.3387 14.9922 57.9012 14.7422C57.4663 14.4896 57.1316 14.1328 56.8973 13.6719C56.6629 13.2083 56.5457 12.6628 56.5457 12.0352C56.5457 11.418 56.6629 10.8763 56.8973 10.4102C57.1342 9.94141 57.465 9.57682 57.8895 9.31641C58.3139 9.05339 58.8126 8.92188 59.3855 8.92188C59.7553 8.92188 60.1043 8.98177 60.4324 9.10156C60.7632 9.21875 61.0548 9.40104 61.3074 9.64844C61.5626 9.89583 61.7632 10.2109 61.909 10.5937C62.0548 10.974 62.1277 11.4271 62.1277 11.9531V12.3867H57.2098V11.4336H60.7723C60.7697 11.1628 60.7111 10.9219 60.5965 10.7109C60.4819 10.4974 60.3217 10.3294 60.116 10.207C59.9129 10.0846 59.6759 10.0234 59.4051 10.0234C59.116 10.0234 58.8621 10.0937 58.6434 10.2344C58.4246 10.3724 58.254 10.5547 58.1316 10.7812C58.0118 11.0052 57.9507 11.2513 57.948 11.5195V12.3516C57.948 12.7005 58.0118 13 58.1395 13.25C58.2671 13.4974 58.4454 13.6875 58.6746 13.8203C58.9038 13.9505 59.172 14.0156 59.4793 14.0156C59.685 14.0156 59.8712 13.987 60.0379 13.9297C60.2046 13.8698 60.3491 13.7826 60.4715 13.668C60.5939 13.5534 60.6863 13.4115 60.7488 13.2422L62.0691 13.3906C61.9858 13.7396 61.827 14.0443 61.5926 14.3047C61.3608 14.5625 61.0639 14.763 60.702 14.9062C60.34 15.0469 59.9259 15.1172 59.4598 15.1172ZM68.2232 15.1172C67.6763 15.1172 67.2062 15.0182 66.813 14.8203C66.4198 14.6224 66.1164 14.3555 65.9029 14.0195C65.6919 13.681 65.5864 13.2995 65.5864 12.875C65.5864 12.5547 65.6515 12.2708 65.7818 12.0234C65.9146 11.776 66.0969 11.5469 66.3286 11.3359C66.563 11.125 66.8338 10.9154 67.1411 10.707L68.5591 9.74219C68.7674 9.60677 68.925 9.46354 69.0318 9.3125C69.1411 9.16146 69.1958 8.98437 69.1958 8.78125C69.1958 8.60937 69.1229 8.44661 68.9771 8.29297C68.8338 8.13932 68.6359 8.0625 68.3833 8.0625C68.214 8.0625 68.0643 8.10286 67.9341 8.18359C67.8065 8.26172 67.7062 8.36458 67.6333 8.49219C67.563 8.61979 67.5279 8.75521 67.5279 8.89844C67.5279 9.07292 67.576 9.25 67.6724 9.42969C67.7713 9.60937 67.8989 9.79557 68.0552 9.98828C68.214 10.181 68.3833 10.3854 68.563 10.6016L72.3169 15H70.7857L67.6685 11.4297C67.4367 11.1589 67.2127 10.8919 66.9966 10.6289C66.7831 10.3659 66.6073 10.0924 66.4693 9.80859C66.3338 9.52214 66.2661 9.21224 66.2661 8.87891C66.2661 8.5013 66.3534 8.16406 66.5279 7.86719C66.7023 7.56771 66.9458 7.33203 67.2583 7.16016C67.5734 6.98828 67.9419 6.90234 68.3638 6.90234C68.7857 6.90234 69.1476 6.98568 69.4497 7.15234C69.7518 7.31901 69.9849 7.54036 70.1489 7.81641C70.313 8.09245 70.395 8.39323 70.395 8.71875C70.395 9.09635 70.3013 9.4349 70.1138 9.73437C69.9263 10.0312 69.6659 10.3008 69.3325 10.543L67.7154 11.7266C67.4497 11.9193 67.2596 12.1146 67.145 12.3125C67.0305 12.5078 66.9732 12.6745 66.9732 12.8125C66.9732 13.0234 67.0265 13.2148 67.1333 13.3867C67.2401 13.5586 67.3898 13.6966 67.5825 13.8008C67.7779 13.9023 68.0057 13.9531 68.2661 13.9531C68.5526 13.9531 68.8351 13.8893 69.1138 13.7617C69.3924 13.6315 69.6463 13.4466 69.8755 13.207C70.1047 12.9674 70.287 12.681 70.4224 12.3477C70.5578 12.0117 70.6255 11.6393 70.6255 11.2305H71.8404C71.8404 11.7357 71.7844 12.1758 71.6724 12.5508C71.5604 12.9232 71.4159 13.2383 71.2388 13.4961C71.0617 13.7513 70.8742 13.9557 70.6763 14.1094C70.6138 14.1536 70.5539 14.1979 70.4966 14.2422C70.4393 14.2865 70.3794 14.3307 70.3169 14.375C70.0357 14.6302 69.7062 14.8177 69.3286 14.9375C68.9536 15.0573 68.5851 15.1172 68.2232 15.1172ZM78.678 12.3125H79.9905L80.7678 13.3203L81.3225 13.9766L82.6545 15.6875H81.2483L80.342 14.5391L79.9553 13.9922L78.678 12.3125ZM82.8459 11C82.8459 11.862 82.6845 12.6003 82.3616 13.2148C82.0412 13.8268 81.6037 14.2956 81.0491 14.6211C80.497 14.9466 79.8707 15.1094 79.1702 15.1094C78.4696 15.1094 77.842 14.9466 77.2873 14.6211C76.7353 14.293 76.2978 13.8229 75.9748 13.2109C75.6545 12.5964 75.4944 11.8594 75.4944 11C75.4944 10.138 75.6545 9.40104 75.9748 8.78906C76.2978 8.17448 76.7353 7.70443 77.2873 7.37891C77.842 7.05339 78.4696 6.89062 79.1702 6.89062C79.8707 6.89062 80.497 7.05339 81.0491 7.37891C81.6037 7.70443 82.0412 8.17448 82.3616 8.78906C82.6845 9.40104 82.8459 10.138 82.8459 11ZM81.3889 11C81.3889 10.3932 81.2939 9.88151 81.1037 9.46484C80.9162 9.04557 80.6558 8.72917 80.3225 8.51563C79.9892 8.29948 79.6051 8.19141 79.1702 8.19141C78.7353 8.19141 78.3511 8.29948 78.0178 8.51563C77.6845 8.72917 77.4228 9.04557 77.2327 9.46484C77.0452 9.88151 76.9514 10.3932 76.9514 11C76.9514 11.6068 77.0452 12.1198 77.2327 12.5391C77.4228 12.9557 77.6845 13.2721 78.0178 13.4883C78.3511 13.7018 78.7353 13.8086 79.1702 13.8086C79.6051 13.8086 79.9892 13.7018 80.3225 13.4883C80.6558 13.2721 80.9162 12.9557 81.1037 12.5391C81.2939 12.1198 81.3889 11.6068 81.3889 11ZM87.8785 12.4766V9H89.2926V15H87.9215V13.9336H87.859C87.7236 14.2695 87.5009 14.5443 87.191 14.7578C86.8837 14.9714 86.5048 15.0781 86.0543 15.0781C85.6611 15.0781 85.3134 14.9909 85.0113 14.8164C84.7119 14.6393 84.4775 14.3828 84.3082 14.0469C84.1389 13.7083 84.0543 13.2995 84.0543 12.8203V9H85.4684V12.6016C85.4684 12.9818 85.5725 13.2839 85.7809 13.5078C85.9892 13.7318 86.2626 13.8437 86.6012 13.8437C86.8095 13.8437 87.0113 13.793 87.2066 13.6914C87.402 13.5898 87.5621 13.4388 87.6871 13.2383C87.8147 13.0352 87.8785 12.7812 87.8785 12.4766ZM90.6367 15V9H92.0507V15H90.6367ZM91.3476 8.14844C91.1237 8.14844 90.931 8.07422 90.7695 7.92578C90.608 7.77474 90.5273 7.59375 90.5273 7.38281C90.5273 7.16927 90.608 6.98828 90.7695 6.83984C90.931 6.6888 91.1237 6.61328 91.3476 6.61328C91.5742 6.61328 91.7669 6.6888 91.9257 6.83984C92.0872 6.98828 92.1679 7.16927 92.1679 7.38281C92.1679 7.59375 92.0872 7.77474 91.9257 7.92578C91.7669 8.07422 91.5742 8.14844 91.3476 8.14844ZM96.012 15.1172C95.4131 15.1172 94.8988 14.9857 94.4691 14.7227C94.042 14.4596 93.7126 14.0964 93.4808 13.6328C93.2516 13.1667 93.137 12.6302 93.137 12.0234C93.137 11.4141 93.2542 10.8763 93.4886 10.4102C93.723 9.94141 94.0537 9.57682 94.4808 9.31641C94.9105 9.05339 95.4183 8.92188 96.0042 8.92188C96.4912 8.92188 96.9222 9.01172 97.2972 9.19141C97.6748 9.36849 97.9756 9.61979 98.1995 9.94531C98.4235 10.2682 98.5511 10.6458 98.5823 11.0781H97.2308C97.1761 10.7891 97.0459 10.5482 96.8402 10.3555C96.637 10.1602 96.3649 10.0625 96.0238 10.0625C95.7347 10.0625 95.4808 10.1406 95.262 10.2969C95.0433 10.4505 94.8727 10.6719 94.7503 10.9609C94.6305 11.25 94.5706 11.5964 94.5706 12C94.5706 12.4089 94.6305 12.7604 94.7503 13.0547C94.8701 13.3464 95.0381 13.5716 95.2542 13.7305C95.473 13.8867 95.7295 13.9648 96.0238 13.9648C96.2321 13.9648 96.4183 13.9258 96.5823 13.8477C96.749 13.7669 96.8883 13.651 97.0003 13.5C97.1123 13.349 97.1891 13.1654 97.2308 12.9492H98.5823C98.5485 13.3737 98.4235 13.75 98.2073 14.0781C97.9912 14.4036 97.6969 14.6589 97.3245 14.8437C96.9521 15.026 96.5146 15.1172 96.012 15.1172ZM100.923 13.1172L100.919 11.4102H101.145L103.301 9H104.954L102.301 11.9531H102.008L100.923 13.1172ZM99.6335 15V7H101.048V15H99.6335ZM103.399 15L101.446 12.2695L102.399 11.2734L105.091 15H103.399Z" fill="#9747FF"/>
<path d="M16.4998 12.7C15.9467 12.7 15.4844 12.6998 15.1249 12.6547C14.753 12.608 14.3854 12.5025 14.116 12.2029M16.4998 12.7L14.116 12.2029M16.4998 12.7V14.7299L16.4998 14.762C16.4998 15.18 16.4998 15.5357 16.5272 15.7907C16.541 15.9191 16.5659 16.0698 16.6261 16.2046C16.6914 16.3507 16.8298 16.5404 17.0885 16.5974C17.3472 16.6544 17.5525 16.5403 17.6731 16.4352C17.7845 16.3382 17.8703 16.2119 17.9368 16.1012C18.0688 15.8813 18.2182 15.5585 18.3938 15.1791L18.4073 15.15L19.5794 12.6183L19.5935 12.5878C19.8272 12.083 20.0225 11.6612 20.133 11.3145C20.2469 10.9574 20.3056 10.5794 20.147 10.2092C20.0823 10.0583 19.9934 9.9191 19.8836 9.79707C19.6143 9.49753 19.2466 9.39204 18.8747 9.34532C18.5153 9.30016 18.0529 9.29998 17.4998 9.3V7.27012L17.4998 7.23805C17.4999 6.82004 17.4999 6.4643 17.4724 6.20926C17.4586 6.08088 17.4338 5.93022 17.3735 5.79539C17.3083 5.64932 17.1699 5.4596 16.9112 5.40262C16.6524 5.34563 16.4472 5.45966 16.3266 5.56479C16.2152 5.66183 16.1294 5.78811 16.0629 5.89881C15.9309 6.11873 15.7814 6.44155 15.6059 6.82088C15.6014 6.83055 15.5969 6.84026 15.5924 6.85L14.4203 9.38171L14.4062 9.41219C14.1724 9.91703 13.9771 10.3388 13.8666 10.6855C13.7528 11.0426 13.694 11.4206 13.8527 11.7908C13.9173 11.9417 14.0063 12.0809 14.116 12.2029M16.4998 12.7L14.4878 11.8686L14.116 12.2029" stroke="#9747FF"/>
</svg>
