<svg width="110" height="22" viewBox="0 0 110 22" fill="none" xmlns="http://www.w3.org/2000/svg">
<rect x="0.5" y="0.5" width="109" height="21" rx="10.5" stroke="#0C77FF"/>
<path d="M27.4375 8.21484V7H33.8203V8.21484H31.3477V15H29.9102V8.21484H27.4375ZM34.2552 15V9H35.6263V10H35.6888C35.7982 9.65365 35.9857 9.38672 36.2513 9.19922C36.5196 9.00911 36.8255 8.91406 37.1693 8.91406C37.2474 8.91406 37.3347 8.91797 37.431 8.92578C37.53 8.93099 37.612 8.9401 37.6771 8.95312V10.2539C37.6172 10.2331 37.5222 10.2148 37.392 10.1992C37.2643 10.181 37.1407 10.1719 37.0209 10.1719C36.763 10.1719 36.5313 10.2279 36.3255 10.3398C36.1224 10.4492 35.9623 10.6016 35.8451 10.7969C35.7279 10.9922 35.6693 11.2174 35.6693 11.4727V15H34.2552ZM40.1257 15.1211C39.7455 15.1211 39.403 15.0534 39.0984 14.918C38.7963 14.7799 38.5567 14.5768 38.3796 14.3086C38.2051 14.0404 38.1179 13.7096 38.1179 13.3164C38.1179 12.9779 38.1804 12.6979 38.3054 12.4766C38.4304 12.2552 38.601 12.0781 38.8171 11.9453C39.0333 11.8125 39.2767 11.7122 39.5476 11.6445C39.821 11.5742 40.1036 11.5234 40.3952 11.4922C40.7468 11.4557 41.032 11.4232 41.2507 11.3945C41.4695 11.3633 41.6283 11.3164 41.7273 11.2539C41.8288 11.1888 41.8796 11.0885 41.8796 10.9531V10.9297C41.8796 10.6354 41.7924 10.4076 41.6179 10.2461C41.4434 10.0846 41.1921 10.0039 40.864 10.0039C40.5176 10.0039 40.2429 10.0794 40.0398 10.2305C39.8392 10.3815 39.7038 10.5599 39.6335 10.7656L38.3132 10.5781C38.4174 10.2135 38.5892 9.90885 38.8288 9.66406C39.0684 9.41667 39.3614 9.23177 39.7077 9.10937C40.0541 8.98438 40.4369 8.92188 40.8562 8.92188C41.1452 8.92188 41.433 8.95573 41.7195 9.02344C42.0059 9.09115 42.2676 9.20312 42.5046 9.35937C42.7416 9.51302 42.9317 9.72266 43.0749 9.98828C43.2208 10.2539 43.2937 10.5859 43.2937 10.9844V15H41.9343V14.1758H41.8874C41.8015 14.3424 41.6804 14.4987 41.5241 14.6445C41.3705 14.7878 41.1765 14.9036 40.9421 14.9922C40.7103 15.0781 40.4382 15.1211 40.1257 15.1211ZM40.4929 14.082C40.7767 14.082 41.0228 14.026 41.2312 13.9141C41.4395 13.7995 41.5997 13.6484 41.7116 13.4609C41.8262 13.2734 41.8835 13.069 41.8835 12.8477V12.1406C41.8392 12.1771 41.7637 12.2109 41.657 12.2422C41.5528 12.2734 41.4356 12.3008 41.3054 12.3242C41.1752 12.3477 41.0463 12.3685 40.9187 12.3867C40.7911 12.4049 40.6804 12.4206 40.5866 12.4336C40.3757 12.4622 40.1869 12.5091 40.0202 12.5742C39.8536 12.6393 39.7221 12.7305 39.6257 12.8477C39.5293 12.9622 39.4812 13.1107 39.4812 13.293C39.4812 13.5534 39.5762 13.75 39.7663 13.8828C39.9564 14.0156 40.1986 14.082 40.4929 14.082ZM46.0196 11.4844V15H44.6055V9H45.9571V10.0195H46.0274C46.1654 9.68359 46.3855 9.41667 46.6876 9.21875C46.9923 9.02083 47.3686 8.92188 47.8165 8.92188C48.2305 8.92188 48.5912 9.01042 48.8985 9.1875C49.2084 9.36458 49.448 9.62109 49.6173 9.95703C49.7891 10.293 49.8738 10.7005 49.8712 11.1797V15H48.4571V11.3984C48.4571 10.9974 48.3529 10.6836 48.1446 10.457C47.9389 10.2305 47.6537 10.1172 47.2891 10.1172C47.0417 10.1172 46.8217 10.1719 46.629 10.2812C46.4389 10.388 46.2891 10.543 46.1798 10.7461C46.073 10.9492 46.0196 11.1953 46.0196 11.4844ZM55.9409 10.5859L54.6518 10.7266C54.6153 10.5964 54.5515 10.474 54.4604 10.3594C54.3718 10.2448 54.2521 10.1523 54.101 10.082C53.95 10.0117 53.7651 9.97656 53.5463 9.97656C53.2521 9.97656 53.0047 10.0404 52.8041 10.168C52.6062 10.2956 52.5086 10.4609 52.5112 10.6641C52.5086 10.8385 52.5724 10.9805 52.7026 11.0898C52.8354 11.1992 53.0541 11.2891 53.3588 11.3594L54.3823 11.5781C54.95 11.7005 55.3718 11.8945 55.6479 12.1602C55.9265 12.4258 56.0672 12.7734 56.0698 13.2031C56.0672 13.5807 55.9565 13.9141 55.7377 14.2031C55.5216 14.4896 55.2208 14.7135 54.8354 14.875C54.45 15.0365 54.0073 15.1172 53.5073 15.1172C52.7729 15.1172 52.1817 14.9635 51.7338 14.6562C51.2859 14.3464 51.019 13.9154 50.933 13.3633L52.312 13.2305C52.3745 13.5013 52.5073 13.7057 52.7104 13.8437C52.9135 13.9818 53.1778 14.0508 53.5034 14.0508C53.8393 14.0508 54.1088 13.9818 54.312 13.8437C54.5177 13.7057 54.6205 13.5352 54.6205 13.332C54.6205 13.1602 54.5541 13.0182 54.4213 12.9062C54.2911 12.7943 54.088 12.7083 53.812 12.6484L52.7885 12.4336C52.213 12.3138 51.7872 12.112 51.5112 11.8281C51.2351 11.5417 51.0984 11.1797 51.101 10.7422C51.0984 10.3724 51.1987 10.0521 51.4018 9.78125C51.6075 9.50781 51.8927 9.29687 52.2573 9.14844C52.6245 8.9974 53.0476 8.92188 53.5268 8.92188C54.2299 8.92188 54.7833 9.07161 55.187 9.37109C55.5932 9.67057 55.8445 10.0755 55.9409 10.5859ZM57.1258 17.25V9H58.5164V9.99219H58.5984C58.6714 9.84635 58.7742 9.69141 58.907 9.52734C59.0398 9.36068 59.2195 9.21875 59.4461 9.10156C59.6727 8.98177 59.9617 8.92188 60.3133 8.92188C60.7768 8.92188 61.1948 9.04036 61.5672 9.27734C61.9422 9.51172 62.2391 9.85937 62.4578 10.3203C62.6792 10.7786 62.7898 11.3411 62.7898 12.0078C62.7898 12.6667 62.6818 13.2266 62.4656 13.6875C62.2495 14.1484 61.9552 14.5 61.5828 14.7422C61.2104 14.9844 60.7885 15.1055 60.3172 15.1055C59.9734 15.1055 59.6883 15.0482 59.4617 14.9336C59.2352 14.819 59.0529 14.681 58.9148 14.5195C58.7794 14.3555 58.674 14.2005 58.5984 14.0547H58.5398V17.25H57.1258ZM58.5125 12C58.5125 12.388 58.5672 12.7279 58.6766 13.0195C58.7885 13.3112 58.9487 13.5391 59.157 13.7031C59.368 13.8646 59.6232 13.9453 59.9227 13.9453C60.2352 13.9453 60.4969 13.862 60.7078 13.6953C60.9188 13.526 61.0776 13.2956 61.1844 13.0039C61.2938 12.7096 61.3484 12.375 61.3484 12C61.3484 11.6276 61.2951 11.2969 61.1883 11.0078C61.0815 10.7187 60.9227 10.4922 60.7117 10.3281C60.5008 10.1641 60.2378 10.082 59.9227 10.082C59.6206 10.082 59.3641 10.1615 59.1531 10.3203C58.9422 10.4792 58.782 10.7018 58.6727 10.9883C58.5659 11.2747 58.5125 11.612 58.5125 12ZM65.6173 15.1211C65.2371 15.1211 64.8947 15.0534 64.59 14.918C64.2879 14.7799 64.0483 14.5768 63.8713 14.3086C63.6968 14.0404 63.6095 13.7096 63.6095 13.3164C63.6095 12.9779 63.672 12.6979 63.797 12.4766C63.922 12.2552 64.0926 12.0781 64.3088 11.9453C64.5249 11.8125 64.7684 11.7122 65.0392 11.6445C65.3127 11.5742 65.5952 11.5234 65.8869 11.4922C66.2384 11.4557 66.5236 11.4232 66.7423 11.3945C66.9611 11.3633 67.1199 11.3164 67.2189 11.2539C67.3205 11.1888 67.3713 11.0885 67.3713 10.9531V10.9297C67.3713 10.6354 67.284 10.4076 67.1095 10.2461C66.9351 10.0846 66.6838 10.0039 66.3556 10.0039C66.0093 10.0039 65.7345 10.0794 65.5314 10.2305C65.3309 10.3815 65.1955 10.5599 65.1252 10.7656L63.8048 10.5781C63.909 10.2135 64.0809 9.90885 64.3205 9.66406C64.5601 9.41667 64.853 9.23177 65.1994 9.10937C65.5457 8.98438 65.9285 8.92188 66.3478 8.92188C66.6369 8.92188 66.9246 8.95573 67.2111 9.02344C67.4976 9.09115 67.7593 9.20312 67.9963 9.35937C68.2332 9.51302 68.4233 9.72266 68.5666 9.98828C68.7124 10.2539 68.7853 10.5859 68.7853 10.9844V15H67.4259V14.1758H67.3791C67.2931 14.3424 67.172 14.4987 67.0158 14.6445C66.8621 14.7878 66.6681 14.9036 66.4338 14.9922C66.202 15.0781 65.9298 15.1211 65.6173 15.1211ZM65.9845 14.082C66.2684 14.082 66.5145 14.026 66.7228 13.9141C66.9311 13.7995 67.0913 13.6484 67.2033 13.4609C67.3179 13.2734 67.3752 13.069 67.3752 12.8477V12.1406C67.3309 12.1771 67.2554 12.2109 67.1486 12.2422C67.0444 12.2734 66.9272 12.3008 66.797 12.3242C66.6668 12.3477 66.5379 12.3685 66.4103 12.3867C66.2827 12.4049 66.172 12.4206 66.0783 12.4336C65.8673 12.4622 65.6785 12.5091 65.5119 12.5742C65.3452 12.6393 65.2137 12.7305 65.1173 12.8477C65.021 12.9622 64.9728 13.1107 64.9728 13.293C64.9728 13.5534 65.0679 13.75 65.258 13.8828C65.4481 14.0156 65.6903 14.082 65.9845 14.082ZM70.0972 15V9H71.4683V10H71.5308C71.6402 9.65365 71.8277 9.38672 72.0933 9.19922C72.3615 9.00911 72.6675 8.91406 73.0112 8.91406C73.0894 8.91406 73.1766 8.91797 73.273 8.92578C73.3719 8.93099 73.454 8.9401 73.5191 8.95312V10.2539C73.4592 10.2331 73.3641 10.2148 73.2339 10.1992C73.1063 10.181 72.9826 10.1719 72.8628 10.1719C72.605 10.1719 72.3732 10.2279 72.1675 10.3398C71.9644 10.4492 71.8042 10.6016 71.687 10.7969C71.5698 10.9922 71.5112 11.2174 71.5112 11.4727V15H70.0972ZM76.7577 15.1172C76.1561 15.1172 75.6366 14.9922 75.1991 14.7422C74.7642 14.4896 74.4296 14.1328 74.1952 13.6719C73.9608 13.2083 73.8436 12.6628 73.8436 12.0352C73.8436 11.418 73.9608 10.8763 74.1952 10.4102C74.4322 9.94141 74.7629 9.57682 75.1874 9.31641C75.6119 9.05339 76.1106 8.92188 76.6835 8.92188C77.0533 8.92188 77.4022 8.98177 77.7304 9.10156C78.0611 9.21875 78.3527 9.40104 78.6054 9.64844C78.8606 9.89583 79.0611 10.2109 79.2069 10.5937C79.3527 10.974 79.4257 11.4271 79.4257 11.9531V12.3867H74.5077V11.4336H78.0702C78.0676 11.1628 78.009 10.9219 77.8944 10.7109C77.7798 10.4974 77.6197 10.3294 77.4139 10.207C77.2108 10.0846 76.9738 10.0234 76.703 10.0234C76.4139 10.0234 76.16 10.0937 75.9413 10.2344C75.7225 10.3724 75.552 10.5547 75.4296 10.7812C75.3098 11.0052 75.2486 11.2513 75.246 11.5195V12.3516C75.246 12.7005 75.3098 13 75.4374 13.25C75.565 13.4974 75.7434 13.6875 75.9725 13.8203C76.2017 13.9505 76.4699 14.0156 76.7772 14.0156C76.983 14.0156 77.1692 13.987 77.3358 13.9297C77.5025 13.8698 77.647 13.7826 77.7694 13.668C77.8918 13.5534 77.9843 13.4115 78.0468 13.2422L79.3671 13.3906C79.2837 13.7396 79.1249 14.0443 78.8905 14.3047C78.6587 14.5625 78.3619 14.763 77.9999 14.9062C77.6379 15.0469 77.2238 15.1172 76.7577 15.1172ZM81.926 11.4844V15H80.512V9H81.8635V10.0195H81.9338C82.0718 9.68359 82.2919 9.41667 82.594 9.21875C82.8987 9.02083 83.275 8.92188 83.7229 8.92188C84.137 8.92188 84.4976 9.01042 84.8049 9.1875C85.1148 9.36458 85.3544 9.62109 85.5237 9.95703C85.6955 10.293 85.7802 10.7005 85.7776 11.1797V15H84.3635V11.3984C84.3635 10.9974 84.2593 10.6836 84.051 10.457C83.8453 10.2305 83.5601 10.1172 83.1955 10.1172C82.9481 10.1172 82.7281 10.1719 82.5354 10.2812C82.3453 10.388 82.1955 10.543 82.0862 10.7461C81.9794 10.9492 81.926 11.1953 81.926 11.4844ZM89.7223 15.1172C89.1233 15.1172 88.609 14.9857 88.1793 14.7227C87.7522 14.4596 87.4228 14.0964 87.191 13.6328C86.9619 13.1667 86.8473 12.6302 86.8473 12.0234C86.8473 11.4141 86.9645 10.8763 87.1988 10.4102C87.4332 9.94141 87.7639 9.57682 88.191 9.31641C88.6207 9.05339 89.1285 8.92188 89.7145 8.92188C90.2014 8.92188 90.6324 9.01172 91.0074 9.19141C91.385 9.36849 91.6858 9.61979 91.9098 9.94531C92.1337 10.2682 92.2613 10.6458 92.2926 11.0781H90.941C90.8863 10.7891 90.7561 10.5482 90.5504 10.3555C90.3473 10.1602 90.0751 10.0625 89.734 10.0625C89.4449 10.0625 89.191 10.1406 88.9723 10.2969C88.7535 10.4505 88.5829 10.6719 88.4605 10.9609C88.3408 11.25 88.2809 11.5964 88.2809 12C88.2809 12.4089 88.3408 12.7604 88.4605 13.0547C88.5803 13.3464 88.7483 13.5716 88.9645 13.7305C89.1832 13.8867 89.4397 13.9648 89.734 13.9648C89.9423 13.9648 90.1285 13.9258 90.2926 13.8477C90.4592 13.7669 90.5986 13.651 90.7105 13.5C90.8225 13.349 90.8994 13.1654 90.941 12.9492H92.2926C92.2587 13.3737 92.1337 13.75 91.9176 14.0781C91.7014 14.4036 91.4072 14.6589 91.0348 14.8437C90.6624 15.026 90.2249 15.1172 89.7223 15.1172ZM94.2226 17.25C94.0299 17.25 93.8515 17.2344 93.6875 17.2031C93.526 17.1745 93.3971 17.1406 93.3007 17.1016L93.6289 16C93.8346 16.0599 94.0182 16.0885 94.1796 16.0859C94.3411 16.0833 94.483 16.0326 94.6054 15.9336C94.7304 15.8372 94.8359 15.6758 94.9218 15.4492L95.0429 15.125L92.8671 9H94.3671L95.75 13.5312H95.8125L97.1992 9H98.7031L96.3007 15.7266C96.1888 16.0443 96.0403 16.3164 95.8554 16.543C95.6705 16.7721 95.444 16.9466 95.1757 17.0664C94.9101 17.1888 94.5924 17.25 94.2226 17.25Z" fill="#0C77FF"/>
<circle cx="16" cy="11" r="2.375" stroke="#388EFF" stroke-width="1.25"/>
<path d="M21.9236 9.94266C22.3177 10.3999 22.5147 10.6285 22.5147 11C22.5147 11.3715 22.3177 11.6001 21.9236 12.0573C20.777 13.3875 18.5542 15.5 16 15.5C13.4458 15.5 11.223 13.3875 10.0764 12.0573C9.68233 11.6001 9.48528 11.3715 9.48528 11C9.48528 10.6285 9.68233 10.3999 10.0764 9.94266C11.223 8.61246 13.4458 6.5 16 6.5C18.5542 6.5 20.777 8.61246 21.9236 9.94266Z" stroke="#388EFF" stroke-width="1.25"/>
</svg>
